<svg width="430" height="460" viewBox="0 0 430 460" fill="none" xmlns="http://www.w3.org/2000/svg">
<g clip-path="url(#clip0_2722_60029)">
<g opacity="0.05">
<rect x="215" y="-22.8123" width="357.531" height="357.531" transform="rotate(45 215 -22.8123)" stroke="url(#paint0_radial_2722_60029)" stroke-width="1.67967"/>
<rect x="214.517" y="431.903" width="287.775" height="287.775" transform="rotate(-135 214.517 431.903)" stroke="url(#paint1_radial_2722_60029)" stroke-width="1.67967"/>
<path d="M214.273 -3.54918L218.334 0.511184L214.273 4.57155L206.153 -3.54918L214.273 -11.6699L227.131 1.18791L214.95 13.369L202.092 0.511184L189.911 12.6923L202.769 25.5501L210.89 17.4294L202.769 9.30865L198.709 13.369L202.431 17.091" stroke="url(#paint2_linear_2722_60029)" stroke-width="1.67967" stroke-linecap="square"/>
<path d="M185.851 24.8732L189.911 28.9335L185.851 32.9939L177.73 24.8732L185.851 16.7524L198.709 29.6103L186.528 41.7914L173.67 28.9335L161.489 41.1147L174.346 53.9725L182.467 45.8518L174.346 37.731L170.286 41.7914L174.008 45.5134" stroke="url(#paint3_linear_2722_60029)" stroke-width="1.67967" stroke-linecap="square"/>
<path d="M157.428 53.296L161.489 57.3564L157.428 61.4168L149.307 53.296L157.428 45.1753L170.286 58.0331L158.105 70.2142L145.247 57.3564L133.066 69.5375L145.924 82.3953L154.045 74.2746L145.924 66.1539L141.863 70.2142L145.585 73.9362" stroke="url(#paint4_linear_2722_60029)" stroke-width="1.67967" stroke-linecap="square"/>
<path d="M129.006 81.7189L133.066 85.7793L129.006 89.8396L120.885 81.7189L129.006 73.5981L141.863 86.456L129.682 98.6371L116.825 85.7793L104.643 97.9604L117.501 110.818L125.622 102.697L117.501 94.5767L113.441 98.6371L117.163 102.359" stroke="url(#paint5_linear_2722_60029)" stroke-width="1.67967" stroke-linecap="square"/>
<path d="M100.583 110.141L104.643 114.202L100.583 118.262L92.4623 110.141L100.583 102.021L113.441 114.878L101.26 127.059L88.4019 114.202L76.2208 126.383L89.0786 139.241L97.1994 131.12L89.0786 122.999L85.0183 127.059L88.7403 130.781" stroke="url(#paint6_linear_2722_60029)" stroke-width="1.67967" stroke-linecap="square"/>
<path d="M72.1604 138.564L76.2208 142.624L72.1604 146.684L64.0397 138.564L72.1604 130.443L85.0182 143.301L72.8371 155.482L59.9793 142.624L47.7982 154.805L60.656 167.663L68.7768 159.542L60.656 151.421L56.5957 155.482L60.3177 159.204" stroke="url(#paint7_linear_2722_60029)" stroke-width="1.67967" stroke-linecap="square"/>
<path d="M43.7378 166.986L47.7982 171.047L43.7378 175.107L35.6171 166.986L43.7378 158.866L56.5956 171.724L44.4145 183.905L31.5567 171.047L19.3756 183.228L32.2334 196.086L40.3542 187.965L32.2334 179.844L28.173 183.905L31.8951 187.627" stroke="url(#paint8_linear_2722_60029)" stroke-width="1.67967" stroke-linecap="square"/>
<path d="M15.3152 195.409L19.3756 199.469L15.3152 203.53L7.19445 195.409L15.3152 187.288L28.173 200.146L15.9919 212.327L3.13408 199.469L-9.04703 211.65L3.81081 224.508L11.9315 216.387L3.81081 208.267L-0.249561 212.327L3.47244 216.049" stroke="url(#paint9_linear_2722_60029)" stroke-width="1.67967" stroke-linecap="square"/>
<path d="M425.051 242.208L429.111 246.268L425.051 250.328L416.93 242.208L425.051 234.087L437.908 246.945L425.727 259.126L412.869 246.268L400.688 258.449L413.546 271.307L421.667 263.186L413.546 255.065L409.486 259.126L413.208 262.848" stroke="url(#paint10_linear_2722_60029)" stroke-width="1.67967" stroke-linecap="square"/>
<path d="M396.628 270.631L400.689 274.691L396.628 278.751L388.507 270.631L396.628 262.51L409.486 275.368L397.305 287.549L384.447 274.691L372.266 286.872L385.124 299.73L393.245 291.609L385.124 283.488L381.063 287.549L384.785 291.271" stroke="url(#paint11_linear_2722_60029)" stroke-width="1.67967" stroke-linecap="square"/>
<path d="M368.206 299.053L372.266 303.113L368.206 307.174L360.085 299.053L368.206 290.932L381.063 303.79L368.882 315.971L356.024 303.113L343.843 315.294L356.701 328.152L364.822 320.031L356.701 311.911L352.641 315.971L356.363 319.693" stroke="url(#paint12_linear_2722_60029)" stroke-width="1.67967" stroke-linecap="square"/>
<path d="M339.783 327.476L343.843 331.536L339.783 335.596L331.662 327.476L339.783 319.355L352.641 332.213L340.46 344.394L327.602 331.536L315.421 343.717L328.279 356.575L336.399 348.454L328.279 340.334L324.218 344.394L327.94 348.116" stroke="url(#paint13_linear_2722_60029)" stroke-width="1.67967" stroke-linecap="square"/>
<path d="M311.36 355.898L315.421 359.958L311.36 364.019L303.24 355.898L311.36 347.777L324.218 360.635L312.037 372.816L299.179 359.958L286.998 372.14L299.856 384.997L307.977 376.877L299.856 368.756L295.796 372.816L299.518 376.538" stroke="url(#paint14_linear_2722_60029)" stroke-width="1.67967" stroke-linecap="square"/>
<path d="M282.938 384.321L286.998 388.381L282.938 392.442L274.817 384.321L282.938 376.2L295.796 389.058L283.614 401.239L270.757 388.381L258.576 400.562L271.433 413.42L279.554 405.3L271.433 397.179L267.373 401.239L271.095 404.961" stroke="url(#paint15_linear_2722_60029)" stroke-width="1.67967" stroke-linecap="square"/>
<path d="M254.515 412.743L258.576 416.804L254.515 420.864L246.394 412.743L254.515 404.623L267.373 417.48L255.192 429.661L242.334 416.804L230.153 428.985L243.011 441.843L251.131 433.722L243.011 425.601L238.95 429.661L242.672 433.384" stroke="url(#paint16_linear_2722_60029)" stroke-width="1.67967" stroke-linecap="square"/>
<path d="M226.093 441.166L230.153 445.226L226.093 449.286L217.972 441.166L226.093 433.045L238.95 445.903L226.769 458.084L213.911 445.226L201.73 457.407L214.588 470.265L222.709 462.144L214.588 454.023L210.528 458.084L214.25 461.806" stroke="url(#paint17_linear_2722_60029)" stroke-width="1.67967" stroke-linecap="square"/>
<path d="M447.743 228.877L443.682 232.937L439.622 228.877L447.743 220.756L455.863 228.877L443.005 241.735L430.824 229.554L443.682 216.696L431.501 204.515L418.643 217.373L426.764 225.493L434.885 217.373L430.824 213.312L427.102 217.034" stroke="url(#paint18_linear_2722_60029)" stroke-width="1.67967" stroke-linecap="square"/>
<path d="M419.32 200.455L415.26 204.515L411.199 200.455L419.32 192.334L427.441 200.455L414.583 213.312L402.402 201.131L415.26 188.273L403.078 176.092L390.221 188.95L398.341 197.071L406.462 188.95L402.402 184.89L398.68 188.612" stroke="url(#paint19_linear_2722_60029)" stroke-width="1.67967" stroke-linecap="square"/>
<path d="M390.897 172.032L386.837 176.092L382.777 172.032L390.897 163.911L399.018 172.032L386.16 184.89L373.979 172.708L386.837 159.851L374.656 147.67L361.798 160.527L369.919 168.648L378.039 160.527L373.979 156.467L370.257 160.189" stroke="url(#paint20_linear_2722_60029)" stroke-width="1.67967" stroke-linecap="square"/>
<path d="M362.475 143.609L358.414 147.67L354.354 143.609L362.475 135.489L370.595 143.609L357.738 156.467L345.557 144.286L358.414 131.428L346.233 119.247L333.375 132.105L341.496 140.226L349.617 132.105L345.557 128.045L341.835 131.767" stroke="url(#paint21_linear_2722_60029)" stroke-width="1.67967" stroke-linecap="square"/>
<path d="M334.052 115.187L329.992 119.247L325.932 115.187L334.052 107.066L342.173 115.187L329.315 128.045L317.134 115.864L329.992 103.006L317.811 90.8248L304.953 103.683L313.074 111.803L321.195 103.683L317.134 99.6223L313.412 103.344" stroke="url(#paint22_linear_2722_60029)" stroke-width="1.67967" stroke-linecap="square"/>
<path d="M305.63 86.7642L301.569 90.8245L297.509 86.7642L305.63 78.6434L313.75 86.7642L300.892 99.622L288.711 87.4409L301.569 74.5831L289.388 62.4019L276.53 75.2598L284.651 83.3805L292.772 75.2598L288.711 71.1994L284.989 74.9214" stroke="url(#paint23_linear_2722_60029)" stroke-width="1.67967" stroke-linecap="square"/>
<path d="M277.207 58.3418L273.147 62.4022L269.086 58.3418L277.207 50.2211L285.328 58.3418L272.47 71.1996L260.289 59.0185L273.147 46.1607L260.965 33.9796L248.108 46.8374L256.228 54.9582L264.349 46.8374L260.289 42.7771L256.567 46.4991" stroke="url(#paint24_linear_2722_60029)" stroke-width="1.67967" stroke-linecap="square"/>
<path d="M248.784 29.9189L244.724 33.9793L240.664 29.9189L248.784 21.7982L256.905 29.9189L244.047 42.7768L231.866 30.5957L244.724 17.7378L232.543 5.55673L219.685 18.4146L227.806 26.5353L235.926 18.4146L231.866 14.3542L228.144 18.0762" stroke="url(#paint25_linear_2722_60029)" stroke-width="1.67967" stroke-linecap="square"/>
<path d="M200.793 440.051L196.733 444.111L192.672 440.051L200.793 431.93L208.914 440.051L196.056 452.909L183.875 440.728L196.733 427.87L184.552 415.689L171.694 428.546L179.815 436.667L187.935 428.546L183.875 424.486L180.153 428.208" stroke="url(#paint26_linear_2722_60029)" stroke-width="1.67967" stroke-linecap="square"/>
<path d="M172.37 411.628L168.31 415.689L164.25 411.628L172.37 403.508L180.491 411.628L167.633 424.486L155.452 412.305L168.31 399.447L156.129 387.266L143.271 400.124L151.392 408.245L159.513 400.124L155.452 396.064L151.73 399.786" stroke="url(#paint27_linear_2722_60029)" stroke-width="1.67967" stroke-linecap="square"/>
<path d="M143.948 383.206L139.887 387.266L135.827 383.206L143.948 375.085L152.069 383.206L139.211 396.063L127.03 383.882L139.887 371.024L127.706 358.843L114.849 371.701L122.969 379.822L131.09 371.701L127.03 367.641L123.308 371.363" stroke="url(#paint28_linear_2722_60029)" stroke-width="1.67967" stroke-linecap="square"/>
<path d="M115.525 354.783L111.465 358.844L107.405 354.783L115.525 346.662L123.646 354.783L110.788 367.641L98.6071 355.46L111.465 342.602L99.2838 330.421L86.426 343.279L94.5467 351.4L102.667 343.279L98.6071 339.218L94.8851 342.94" stroke="url(#paint29_linear_2722_60029)" stroke-width="1.67967" stroke-linecap="square"/>
<path d="M87.1029 326.36L83.0425 330.421L78.9822 326.36L87.1029 318.24L95.2236 326.36L82.3658 339.218L70.1847 327.037L83.0425 314.179L70.8614 301.998L58.0036 314.856L66.1243 322.977L74.2451 314.856L70.1847 310.796L66.4627 314.518" stroke="url(#paint30_linear_2722_60029)" stroke-width="1.67967" stroke-linecap="square"/>
<path d="M58.68 297.938L54.6197 301.998L50.5593 297.938L58.68 289.817L66.8008 297.938L53.9429 310.796L41.7618 298.615L54.6197 285.757L42.4386 273.576L29.5807 286.434L37.7015 294.554L45.8222 286.434L41.7618 282.373L38.0398 286.095" stroke="url(#paint31_linear_2722_60029)" stroke-width="1.67967" stroke-linecap="square"/>
<path d="M30.2574 269.515L26.1971 273.576L22.1367 269.515L30.2574 261.394L38.3782 269.515L25.5203 282.373L13.3392 270.192L26.1971 257.334L14.016 245.153L1.15813 258.011L9.27887 266.131L17.3996 258.011L13.3392 253.95L9.61723 257.672" stroke="url(#paint32_linear_2722_60029)" stroke-width="1.67967" stroke-linecap="square"/>
<path d="M1.83483 241.093L-2.22554 245.153L-6.28591 241.093L1.83483 232.972L9.95557 241.093L-2.90227 253.951L-15.0834 241.77L-2.22554 228.912L-14.4066 216.731L-27.2645 229.588L-19.1437 237.709L-11.023 229.588L-15.0834 225.528L-18.8054 229.25" stroke="url(#paint33_linear_2722_60029)" stroke-width="1.67967" stroke-linecap="square"/>
</g>
<mask id="path-35-inside-1_2722_60029" fill="white">
<path fill-rule="evenodd" clip-rule="evenodd" d="M334 113C325.163 113 318 105.837 318 97C318 88.1634 325.163 81 334 81C342.837 81 350 88.1634 350 97C350 105.837 342.837 113 334 113ZM333.894 105.16C329.446 105.16 325.84 101.554 325.84 97.1065C325.84 92.6588 329.446 89.0533 333.894 89.0533C338.341 89.0533 341.947 92.6588 341.947 97.1065C341.947 101.554 338.341 105.16 333.894 105.16Z"/>
</mask>
<path fill-rule="evenodd" clip-rule="evenodd" d="M334 113C325.163 113 318 105.837 318 97C318 88.1634 325.163 81 334 81C342.837 81 350 88.1634 350 97C350 105.837 342.837 113 334 113ZM333.894 105.16C329.446 105.16 325.84 101.554 325.84 97.1065C325.84 92.6588 329.446 89.0533 333.894 89.0533C338.341 89.0533 341.947 92.6588 341.947 97.1065C341.947 101.554 338.341 105.16 333.894 105.16Z" fill="url(#paint34_linear_2722_60029)"/>
<path d="M318.457 97C318.457 105.584 325.416 112.543 334 112.543V113.457C324.911 113.457 317.543 106.089 317.543 97H318.457ZM334 81.4566C325.416 81.4566 318.457 88.4156 318.457 97H317.543C317.543 87.9113 324.911 80.5434 334 80.5434V81.4566ZM349.543 97C349.543 88.4156 342.584 81.4566 334 81.4566V80.5434C343.089 80.5434 350.457 87.9113 350.457 97H349.543ZM334 112.543C342.584 112.543 349.543 105.584 349.543 97H350.457C350.457 106.089 343.089 113.457 334 113.457V112.543ZM326.297 97.1065C326.297 101.302 329.698 104.703 333.894 104.703V105.616C329.194 105.616 325.384 101.806 325.384 97.1065H326.297ZM333.894 89.5098C329.698 89.5098 326.297 92.911 326.297 97.1065H325.384C325.384 92.4067 329.194 88.5967 333.894 88.5967V89.5098ZM341.49 97.1065C341.49 92.911 338.089 89.5098 333.894 89.5098V88.5967C338.593 88.5967 342.403 92.4067 342.403 97.1065H341.49ZM333.894 104.703C338.089 104.703 341.49 101.302 341.49 97.1065H342.403C342.403 101.806 338.593 105.616 333.894 105.616V104.703Z" fill="#FFE2BF" mask="url(#path-35-inside-1_2722_60029)"/>
<g filter="url(#filter0_d_2722_60029)">
<mask id="path-37-inside-2_2722_60029" fill="white">
<path fill-rule="evenodd" clip-rule="evenodd" d="M334 106.823C328.477 106.823 324 102.386 324 96.9117C324 91.4376 328.477 87 334 87C339.523 87 344 91.4376 344 96.9117C344 102.386 339.523 106.823 334 106.823ZM333.027 92.6107C333.564 92.0782 334.435 92.0782 334.973 92.6107L338.33 95.9387C338.868 96.4712 338.868 97.3346 338.33 97.8672L334.973 101.195C334.435 101.728 333.564 101.728 333.027 101.195L329.669 97.8672C329.132 97.3346 329.132 96.4712 329.669 95.9387L333.027 92.6107Z"/>
</mask>
<path fill-rule="evenodd" clip-rule="evenodd" d="M334 106.823C328.477 106.823 324 102.386 324 96.9117C324 91.4376 328.477 87 334 87C339.523 87 344 91.4376 344 96.9117C344 102.386 339.523 106.823 334 106.823ZM333.027 92.6107C333.564 92.0782 334.435 92.0782 334.973 92.6107L338.33 95.9387C338.868 96.4712 338.868 97.3346 338.33 97.8672L334.973 101.195C334.435 101.728 333.564 101.728 333.027 101.195L329.669 97.8672C329.132 97.3346 329.132 96.4712 329.669 95.9387L333.027 92.6107Z" fill="url(#paint35_linear_2722_60029)"/>
<path d="M334.973 92.6107L335.254 92.3266L334.973 92.6107ZM333.027 92.6107L332.746 92.3266L333.027 92.6107ZM338.33 95.9387L338.612 95.6546L338.33 95.9387ZM338.33 97.8672L338.049 97.5831L338.33 97.8672ZM334.973 101.195L335.254 101.479L334.973 101.195ZM333.027 101.195L332.746 101.479L333.027 101.195ZM329.669 97.8672L329.951 97.5831L329.669 97.8672ZM329.669 95.9387L329.951 96.2228L329.669 95.9387ZM324.4 96.9117C324.4 102.161 328.695 106.423 334 106.423V107.223C328.26 107.223 323.6 102.61 323.6 96.9117H324.4ZM334 87.4C328.695 87.4 324.4 91.6619 324.4 96.9117H323.6C323.6 91.2133 328.26 86.6 334 86.6V87.4ZM343.6 96.9117C343.6 91.6619 339.305 87.4 334 87.4V86.6C339.74 86.6 344.4 91.2133 344.4 96.9117H343.6ZM334 106.423C339.305 106.423 343.6 102.161 343.6 96.9117H344.4C344.4 102.61 339.74 107.223 334 107.223V106.423ZM334.691 92.8948C334.31 92.5168 333.69 92.5168 333.309 92.8948L332.746 92.3266C333.439 91.6395 334.561 91.6395 335.254 92.3266L334.691 92.8948ZM338.049 96.2228L334.691 92.8948L335.254 92.3266L338.612 95.6546L338.049 96.2228ZM338.049 97.5831C338.428 97.207 338.428 96.5988 338.049 96.2228L338.612 95.6546C339.307 96.3436 339.307 97.4622 338.612 98.1513L338.049 97.5831ZM334.691 100.911L338.049 97.5831L338.612 98.1513L335.254 101.479L334.691 100.911ZM333.309 100.911C333.69 101.289 334.31 101.289 334.691 100.911L335.254 101.479C334.561 102.166 333.439 102.166 332.746 101.479L333.309 100.911ZM329.951 97.5831L333.309 100.911L332.746 101.479L329.388 98.1513L329.951 97.5831ZM329.951 96.2228C329.572 96.5988 329.572 97.207 329.951 97.5831L329.388 98.1513C328.693 97.4622 328.693 96.3436 329.388 95.6546L329.951 96.2228ZM333.309 92.8948L329.951 96.2228L329.388 95.6546L332.746 92.3266L333.309 92.8948Z" fill="#FFE2BF" mask="url(#path-37-inside-2_2722_60029)"/>
</g>
<path d="M334 81L334 -61" stroke="#DEBF9A" stroke-width="0.601124"/>
<mask id="path-40-inside-3_2722_60029" fill="white">
<path fill-rule="evenodd" clip-rule="evenodd" d="M97 113C88.1634 113 81 105.837 81 97C81 88.1634 88.1634 81 97 81C105.837 81 113 88.1634 113 97C113 105.837 105.837 113 97 113ZM96.8935 105.16C92.4459 105.16 88.8403 101.554 88.8403 97.1065C88.8403 92.6588 92.4459 89.0533 96.8935 89.0533C101.341 89.0533 104.947 92.6588 104.947 97.1065C104.947 101.554 101.341 105.16 96.8935 105.16Z"/>
</mask>
<path fill-rule="evenodd" clip-rule="evenodd" d="M97 113C88.1634 113 81 105.837 81 97C81 88.1634 88.1634 81 97 81C105.837 81 113 88.1634 113 97C113 105.837 105.837 113 97 113ZM96.8935 105.16C92.4459 105.16 88.8403 101.554 88.8403 97.1065C88.8403 92.6588 92.4459 89.0533 96.8935 89.0533C101.341 89.0533 104.947 92.6588 104.947 97.1065C104.947 101.554 101.341 105.16 96.8935 105.16Z" fill="url(#paint36_linear_2722_60029)"/>
<path d="M81.4566 97C81.4566 105.584 88.4156 112.543 97 112.543V113.457C87.9113 113.457 80.5434 106.089 80.5434 97H81.4566ZM97 81.4566C88.4156 81.4566 81.4566 88.4156 81.4566 97H80.5434C80.5434 87.9113 87.9113 80.5434 97 80.5434V81.4566ZM112.543 97C112.543 88.4156 105.584 81.4566 97 81.4566V80.5434C106.089 80.5434 113.457 87.9113 113.457 97H112.543ZM97 112.543C105.584 112.543 112.543 105.584 112.543 97H113.457C113.457 106.089 106.089 113.457 97 113.457V112.543ZM89.2969 97.1065C89.2969 101.302 92.698 104.703 96.8935 104.703V105.616C92.1937 105.616 88.3837 101.806 88.3837 97.1065H89.2969ZM96.8935 89.5098C92.698 89.5098 89.2969 92.911 89.2969 97.1065H88.3837C88.3837 92.4067 92.1937 88.5967 96.8935 88.5967V89.5098ZM104.49 97.1065C104.49 92.911 101.089 89.5098 96.8935 89.5098V88.5967C101.593 88.5967 105.403 92.4067 105.403 97.1065H104.49ZM96.8935 104.703C101.089 104.703 104.49 101.302 104.49 97.1065H105.403C105.403 101.806 101.593 105.616 96.8935 105.616V104.703Z" fill="#FFE2BF" mask="url(#path-40-inside-3_2722_60029)"/>
<g filter="url(#filter1_d_2722_60029)">
<mask id="path-42-inside-4_2722_60029" fill="white">
<path fill-rule="evenodd" clip-rule="evenodd" d="M97 106.823C91.4772 106.823 87 102.386 87 96.9117C87 91.4376 91.4772 87 97 87C102.523 87 107 91.4376 107 96.9117C107 102.386 102.523 106.823 97 106.823ZM96.0271 92.6107C96.5644 92.0782 97.4355 92.0782 97.9727 92.6107L101.33 95.9387C101.868 96.4712 101.868 97.3346 101.33 97.8672L97.9727 101.195C97.4355 101.728 96.5644 101.728 96.0271 101.195L92.6694 97.8672C92.1322 97.3346 92.1322 96.4712 92.6694 95.9387L96.0271 92.6107Z"/>
</mask>
<path fill-rule="evenodd" clip-rule="evenodd" d="M97 106.823C91.4772 106.823 87 102.386 87 96.9117C87 91.4376 91.4772 87 97 87C102.523 87 107 91.4376 107 96.9117C107 102.386 102.523 106.823 97 106.823ZM96.0271 92.6107C96.5644 92.0782 97.4355 92.0782 97.9727 92.6107L101.33 95.9387C101.868 96.4712 101.868 97.3346 101.33 97.8672L97.9727 101.195C97.4355 101.728 96.5644 101.728 96.0271 101.195L92.6694 97.8672C92.1322 97.3346 92.1322 96.4712 92.6694 95.9387L96.0271 92.6107Z" fill="url(#paint37_linear_2722_60029)"/>
<path d="M97.9727 92.6107L98.2543 92.3266L97.9727 92.6107ZM96.0271 92.6107L95.7455 92.3266L96.0271 92.6107ZM101.33 95.9387L101.612 95.6546L101.33 95.9387ZM101.33 97.8672L101.049 97.5831L101.33 97.8672ZM97.9727 101.195L98.2543 101.479L97.9727 101.195ZM96.0271 101.195L95.7455 101.479L96.0271 101.195ZM92.6694 97.8672L92.951 97.5831L92.6694 97.8672ZM92.6694 95.9387L92.951 96.2228L92.6694 95.9387ZM87.4 96.9117C87.4 102.161 91.6947 106.423 97 106.423V107.223C91.2596 107.223 86.6 102.61 86.6 96.9117H87.4ZM97 87.4C91.6947 87.4 87.4 91.6619 87.4 96.9117H86.6C86.6 91.2133 91.2596 86.6 97 86.6V87.4ZM106.6 96.9117C106.6 91.6619 102.305 87.4 97 87.4V86.6C102.74 86.6 107.4 91.2133 107.4 96.9117H106.6ZM97 106.423C102.305 106.423 106.6 102.161 106.6 96.9117H107.4C107.4 102.61 102.74 107.223 97 107.223V106.423ZM97.6911 92.8948C97.3098 92.5168 96.69 92.5168 96.3087 92.8948L95.7455 92.3266C96.4387 91.6395 97.5611 91.6395 98.2543 92.3266L97.6911 92.8948ZM101.049 96.2228L97.6911 92.8948L98.2543 92.3266L101.612 95.6546L101.049 96.2228ZM101.049 97.5831C101.428 97.207 101.428 96.5988 101.049 96.2228L101.612 95.6546C102.307 96.3436 102.307 97.4622 101.612 98.1513L101.049 97.5831ZM97.6911 100.911L101.049 97.5831L101.612 98.1513L98.2543 101.479L97.6911 100.911ZM96.3087 100.911C96.69 101.289 97.3098 101.289 97.6911 100.911L98.2543 101.479C97.5611 102.166 96.4387 102.166 95.7455 101.479L96.3087 100.911ZM92.951 97.5831L96.3087 100.911L95.7455 101.479L92.3878 98.1513L92.951 97.5831ZM92.951 96.2228C92.5716 96.5988 92.5716 97.207 92.951 97.5831L92.3878 98.1513C91.6927 97.4622 91.6927 96.3436 92.3878 95.6546L92.951 96.2228ZM96.3087 92.8948L92.951 96.2228L92.3878 95.6546L95.7455 92.3266L96.3087 92.8948Z" fill="#FFE2BF" mask="url(#path-42-inside-4_2722_60029)"/>
</g>
<path d="M97 81L97 -61" stroke="#DEBF9A" stroke-width="0.601124"/>
<path fill-rule="evenodd" clip-rule="evenodd" d="M214.03 68.8799L214.03 71.1708H215.324V68.8799C216.078 68.6164 216.618 67.9057 216.618 67.0702C216.618 66.2347 216.078 65.5239 215.324 65.2605V63.4951L214.03 63.4951L214.03 65.2604C213.276 65.5238 212.735 66.2346 212.735 67.0702C212.735 67.9057 213.276 68.6165 214.03 68.8799Z" fill="#E0A680"/>
<rect x="214.353" y="27.6758" width="1.23046" height="0.647059" rx="0.323529" transform="rotate(-90 214.353 27.6758)" fill="#DEBF9A"/>
<rect x="214.353" y="26.0645" width="1.23046" height="0.647059" rx="0.323529" transform="rotate(-90 214.353 26.0645)" fill="#DEBF9A"/>
<rect x="214.353" y="24.4531" width="1.23046" height="0.647059" rx="0.323529" transform="rotate(-90 214.353 24.4531)" fill="#DEBF9A"/>
<rect x="214.353" y="22.8418" width="1.23046" height="0.647059" rx="0.323529" transform="rotate(-90 214.353 22.8418)" fill="#DEBF9A"/>
<rect x="214.353" y="21.2305" width="1.23046" height="0.647059" rx="0.323529" transform="rotate(-90 214.353 21.2305)" fill="#DEBF9A"/>
<rect x="193.647" y="30.2344" width="42.7059" height="31.3423" rx="15.6712" fill="url(#paint38_linear_2722_60029)"/>
<path fill-rule="evenodd" clip-rule="evenodd" d="M208.231 29.9907C208.231 29.0655 208.981 28.3154 209.906 28.3154H220.094C221.019 28.3154 221.769 29.0655 221.769 29.9907H221.127C229.898 30.0135 237 37.13 237 45.9055C237 54.695 229.875 61.8203 221.085 61.8203H215.423V61.8204H220.5C220.5 62.7456 219.75 63.4956 218.825 63.4956H210.329C209.404 63.4956 208.654 62.7456 208.654 61.8204H214.154V61.8203H208.915C200.125 61.8203 193 54.695 193 45.9055C193 37.13 200.102 30.0135 208.873 29.9907H208.231ZM214.423 60.9826C214.333 60.9826 214.244 60.9818 214.154 60.9802V30.8305C214.224 30.8293 214.293 30.8285 214.363 30.8282H215.214C215.532 30.8295 215.848 30.8406 216.161 30.8612C226.104 39.0386 225.91 52.7628 216.157 60.9497C215.826 60.9715 215.491 60.9826 215.154 60.9826H214.423ZM217.61 60.7835C226.542 52.4725 226.73 39.3523 217.635 31.0313C224.781 32.2146 230.231 38.4236 230.231 45.9053C230.231 53.396 224.769 59.6107 217.61 60.7835ZM220.271 60.9827H221.085C229.412 60.9827 236.162 54.2324 236.162 45.9055C236.162 37.5785 229.412 30.8282 221.085 30.8282H220.27C226.554 32.9565 231.077 38.9029 231.077 45.9056C231.077 52.908 226.555 58.8542 220.271 60.9827ZM212.039 31.0157C204.845 32.1589 199.346 38.39 199.346 45.9053C199.346 53.4293 204.858 59.6661 212.063 60.7989C203.109 52.4835 202.921 39.341 212.039 31.0157ZM213.502 30.8558C213.718 30.8428 213.935 30.8343 214.154 30.8305V60.9802C213.937 60.9764 213.721 60.968 213.506 60.9551C203.744 52.767 203.55 39.0343 213.502 30.8558ZM208.915 30.8282H209.307C203.023 32.9565 198.5 38.9029 198.5 45.9056C198.5 52.908 203.023 58.8542 209.306 60.9827H208.915C200.588 60.9827 193.838 54.2324 193.838 45.9055C193.838 37.5785 200.588 30.8282 208.915 30.8282Z" fill="url(#paint39_radial_2722_60029)"/>
<path d="M212.29 88.6408C212.161 88.5132 212.088 88.3393 212.088 88.1579L212.088 73.1198C212.088 71.6903 213.247 70.5315 214.676 70.5315C216.106 70.5315 217.265 71.6903 217.265 73.1198L217.265 88.1579C217.265 88.3393 217.192 88.5132 217.063 88.6408C215.74 89.9481 213.612 89.9481 212.29 88.6408Z" fill="url(#paint40_linear_2722_60029)"/>
<rect x="213.059" y="87.8018" width="8.31532" height="0.647059" rx="0.323529" transform="rotate(-90 213.059 87.8018)" fill="#FFD0D0"/>
<rect x="215.647" y="87.8018" width="8.31532" height="0.647059" rx="0.323529" transform="rotate(-90 215.647 87.8018)" fill="#FFD0D0"/>
<rect x="214.353" y="88.4873" width="8.31532" height="0.647059" rx="0.323529" transform="rotate(-90 214.353 88.4873)" fill="#FFD0D0"/>
<path d="M320.431 366.991L314.694 371.733L318.005 379.447L321.316 387.162L343.569 439.009L325.894 383.995L323.162 375.493L320.431 366.991Z" fill="#F3A5A5"/>
<path d="M321.316 387.162L318.005 379.447L323.163 375.493L325.894 383.995L321.316 387.162Z" fill="#F7E0C5"/>
<path d="M321.316 387.162L318.005 379.447L323.163 375.493L325.894 383.995L321.316 387.162Z" fill="#F7E0C5"/>
<path d="M314.694 371.733L306.758 373.085L310.941 380.576L315.125 388.068L343.57 439.009L321.316 387.162L318.005 379.448L314.694 371.733Z" fill="#DC8484"/>
<path d="M315.124 388.068L310.941 380.576L318.005 379.448L321.316 387.162L315.124 388.068Z" fill="#E8BD87"/>
<path d="M306.758 373.085L302.168 378.739L306.607 385.2L311.045 391.662L343.57 439.009L315.125 388.068L310.941 380.576L306.758 373.085Z" fill="#F3A5A5"/>
<path d="M311.045 391.662L306.607 385.201L310.941 380.577L315.124 388.068L311.045 391.662Z" fill="#F7E0C5"/>
<path d="M311.045 391.662L306.607 385.201L310.941 380.577L315.124 388.068L311.045 391.662Z" fill="#F7E0C5"/>
<path d="M302.168 378.739L294.967 381.05L300.166 387.249L305.365 393.449L343.57 439.009L311.045 391.662L306.607 385.2L302.168 378.739Z" fill="#DC8484"/>
<path d="M305.365 393.449L300.166 387.249L306.607 385.201L311.045 391.662L305.365 393.449Z" fill="#E8BD87"/>
<path d="M294.967 381.05L291.373 387.409L296.688 392.663L302.003 397.918L343.57 439.009L305.365 393.449L300.166 387.249L294.967 381.05Z" fill="#F3A5A5"/>
<path d="M302.003 397.918L296.688 392.663L300.166 387.249L305.365 393.449L302.003 397.918Z" fill="#F7E0C5"/>
<path d="M302.003 397.918L296.688 392.663L300.166 387.249L305.365 393.449L302.003 397.918Z" fill="#F7E0C5"/>
<path d="M291.373 387.409L284.901 391.192L291.001 396.164L297.101 401.136L343.569 439.009L302.003 397.918L296.688 392.663L291.373 387.409Z" fill="#DC8484"/>
<path d="M297.101 401.136L291.001 396.164L296.688 392.663L302.003 397.918L297.101 401.136Z" fill="#E8BD87"/>
<path d="M284.901 391.192L282.711 398.467L288.426 402.274L294.141 406.081L343.57 439.009L297.102 401.136L291.001 396.164L284.901 391.192Z" fill="#F3A5A5"/>
<path d="M294.14 406.081L288.425 402.274L291.001 396.164L297.101 401.136L294.14 406.081Z" fill="#F7E0C5"/>
<path d="M294.14 406.081L288.425 402.274L291.001 396.164L297.101 401.136L294.14 406.081Z" fill="#F7E0C5"/>
<path d="M282.711 398.467L276.972 403.466L283.319 406.854L290.278 410.567L343.569 439.009L294.141 406.081L288.426 402.274L282.711 398.467Z" fill="#DC8484"/>
<path d="M290.278 410.568L283.319 406.854L288.426 402.274L294.14 406.081L290.278 410.568Z" fill="#E8BD87"/>
<path d="M276.971 403.466L276.043 410.677L282.062 413.203L289.149 416.176L343.569 439.008L290.278 410.567L283.319 406.853L276.971 403.466Z" fill="#F3A5A5"/>
<path d="M289.149 416.176L282.062 413.203L283.319 406.854L290.278 410.567L289.149 416.176Z" fill="#F7E0C5"/>
<path d="M289.149 416.176L282.062 413.203L283.319 406.854L290.278 410.567L289.149 416.176Z" fill="#F7E0C5"/>
<path d="M276.043 410.678L271.702 417.106L278.498 419.177L286.218 421.53L343.569 439.009L289.148 416.176L282.062 413.203L276.043 410.678Z" fill="#DC8484"/>
<path d="M286.218 421.53L278.498 419.177L282.062 413.204L289.149 416.177L286.218 421.53Z" fill="#E8BD87"/>
<path d="M271.702 417.106L272.446 424.207L279.255 425.624L286.54 427.141L343.569 439.009L286.218 421.53L278.498 419.177L271.702 417.106Z" fill="#F3A5A5"/>
<path d="M286.54 427.141L279.255 425.625L278.498 419.177L286.218 421.53L286.54 427.141Z" fill="#F7E0C5"/>
<path d="M286.54 427.141L279.255 425.625L278.498 419.177L286.218 421.53L286.54 427.141Z" fill="#F7E0C5"/>
<path d="M272.446 424.207L268.503 430.009L275.638 430.864L283.299 431.783L343.569 439.009L286.54 427.14L279.255 425.624L272.446 424.207Z" fill="#DC8484"/>
<path d="M275.639 430.864L279.255 425.625L286.54 427.141L283.299 431.783L275.639 430.864Z" fill="#E8BD87"/>
<path d="M320.431 366.991L327.858 367.51L329.659 375.709L331.461 383.908L343.569 439.009L325.894 383.996L323.162 375.493L320.431 366.991Z" fill="#DC8484"/>
<path d="M331.461 383.907L329.66 375.709L323.163 375.493L325.894 383.995L331.461 383.907Z" fill="#E8BD87"/>
<path d="M327.858 367.511L335.099 363.993L336.061 372.518L337.024 381.043L343.57 439.009L331.461 383.908L329.66 375.709L327.858 367.511Z" fill="#F3A5A5"/>
<path d="M337.024 381.043L336.061 372.518L329.66 375.709L331.461 383.908L337.024 381.043Z" fill="#F7E0C5"/>
<path d="M337.024 381.043L336.061 372.518L329.66 375.709L331.461 383.908L337.024 381.043Z" fill="#F7E0C5"/>
<path d="M335.099 363.993L342.124 365.921L342.279 373.757L342.434 381.592L343.57 439.009L337.024 381.043L336.061 372.518L335.099 363.993Z" fill="#DC8484"/>
<path d="M342.434 381.592L342.279 373.756L336.061 372.518L337.024 381.043L342.434 381.592Z" fill="#E8BD87"/>
<path d="M342.124 365.921L349.326 363.611L348.71 371.676L348.094 379.741L343.57 439.009L342.434 381.592L342.279 373.757L342.124 365.921Z" fill="#F3A5A5"/>
<path d="M348.094 379.741L348.71 371.676L342.279 373.757L342.434 381.592L348.094 379.741Z" fill="#F7E0C5"/>
<path d="M348.094 379.741L348.71 371.676L342.279 373.757L342.434 381.592L348.094 379.741Z" fill="#F7E0C5"/>
<path d="M349.326 363.611L355.953 366.691L354.692 374.056L353.431 381.42L343.57 439.009L348.094 379.741L348.71 371.676L349.326 363.611Z" fill="#DC8484"/>
<path d="M353.431 381.42L354.692 374.055L348.71 371.676L348.094 379.741L353.431 381.42Z" fill="#E8BD87"/>
<path d="M355.953 366.691L363.419 366.003L361.355 373.594L359.291 381.185L343.569 439.009L353.431 381.42L354.692 374.055L355.953 366.691Z" fill="#F3A5A5"/>
<path d="M359.291 381.185L361.355 373.594L354.692 374.055L353.431 381.42L359.291 381.185Z" fill="#F7E0C5"/>
<path d="M359.291 381.185L361.355 373.594L354.692 374.055L353.431 381.42L359.291 381.185Z" fill="#F7E0C5"/>
<path d="M363.419 366.003L369.437 370.644L367.008 377.064L364.579 383.483L343.569 439.009L359.291 381.185L361.355 373.594L363.419 366.003Z" fill="#DC8484"/>
<path d="M364.579 383.483L367.008 377.064L361.355 373.594L359.291 381.185L364.579 383.483Z" fill="#E8BD87"/>
<path d="M369.437 370.644L377.017 371.371L373.829 377.818L370.334 384.885L343.569 439.009L364.579 383.483L367.008 377.064L369.437 370.644Z" fill="#F3A5A5"/>
<path d="M370.334 384.885L373.828 377.818L367.008 377.064L364.579 383.483L370.334 384.885Z" fill="#F7E0C5"/>
<path d="M370.334 384.885L373.828 377.818L367.008 377.064L364.579 383.483L370.334 384.885Z" fill="#F7E0C5"/>
<path d="M377.016 371.371L381.973 376.694L378.549 382.249L374.519 388.789L343.569 439.009L370.334 384.885L373.828 377.818L377.016 371.371Z" fill="#DC8484"/>
<path d="M374.519 388.788L378.549 382.249L373.828 377.817L370.333 384.885L374.519 388.788Z" fill="#E8BD87"/>
<path d="M381.973 376.694L389.247 379.396L384.928 385.033L380.021 391.437L343.569 439.009L374.519 388.789L378.549 382.249L381.973 376.694Z" fill="#F3A5A5"/>
<path d="M380.021 391.437L384.928 385.034L378.549 382.25L374.519 388.789L380.021 391.437Z" fill="#F7E0C5"/>
<path d="M380.021 391.437L384.928 385.034L378.549 382.25L374.519 388.789L380.021 391.437Z" fill="#F7E0C5"/>
<path d="M389.247 379.396L392.779 385.603L388.067 390.716L383.027 396.186L343.569 439.009L380.021 391.437L384.928 385.033L389.247 379.396Z" fill="#DC8484"/>
<path d="M383.027 396.187L388.067 390.717L384.928 385.034L380.021 391.437L383.027 396.187Z" fill="#E8BD87"/>
<path d="M392.778 385.603L399.364 388.027L394.06 392.873L388.366 398.076L343.569 439.009L383.027 396.186L388.067 390.716L392.778 385.603Z" fill="#F3A5A5"/>
<path d="M394.061 392.874L388.067 390.717L383.027 396.187L388.366 398.077L394.061 392.874Z" fill="#F7E0C5"/>
<path d="M394.061 392.874L388.067 390.717L383.027 396.187L388.366 398.077L394.061 392.874Z" fill="#F7E0C5"/>
<path fill-rule="evenodd" clip-rule="evenodd" d="M345.541 445.209C341.516 445.209 338.254 441.949 338.254 437.927C338.254 433.905 341.516 430.645 345.541 430.645C349.566 430.645 352.829 433.905 352.829 437.927C352.829 441.949 349.566 445.209 345.541 445.209ZM345.541 441.568C343.529 441.568 341.898 439.938 341.898 437.927C341.898 435.916 343.529 434.285 345.541 434.285C347.554 434.285 349.185 435.916 349.185 437.927C349.185 439.938 347.554 441.568 345.541 441.568Z" fill="url(#paint41_linear_2722_60029)"/>
<g filter="url(#filter2_d_2722_60029)">
<path d="M341.057 437.927C341.057 440.402 343.065 442.409 345.541 442.409C348.018 442.409 350.026 440.402 350.026 437.927C350.026 435.452 348.018 433.446 345.541 433.446C343.065 433.446 341.057 435.452 341.057 437.927Z" fill="url(#paint42_radial_2722_60029)"/>
</g>
<path d="M96.5693 366.991L102.306 371.733L98.9949 379.447L95.6839 387.162L73.4308 439.009L91.106 383.995L93.8377 375.493L96.5693 366.991Z" fill="#F3A5A5"/>
<path d="M95.6836 387.162L98.9947 379.447L93.8374 375.493L91.1057 383.995L95.6836 387.162Z" fill="#F7E0C5"/>
<path d="M95.6836 387.162L98.9947 379.447L93.8374 375.493L91.1057 383.995L95.6836 387.162Z" fill="#F7E0C5"/>
<path d="M102.306 371.733L110.242 373.085L106.059 380.576L101.875 388.068L73.4305 439.009L95.6836 387.162L98.9946 379.448L102.306 371.733Z" fill="#DC8484"/>
<path d="M101.876 388.068L106.059 380.576L98.9949 379.448L95.6839 387.162L101.876 388.068Z" fill="#E8BD87"/>
<path d="M110.242 373.085L114.832 378.739L110.393 385.2L105.955 391.662L73.4305 439.009L101.875 388.068L106.059 380.576L110.242 373.085Z" fill="#F3A5A5"/>
<path d="M105.955 391.662L110.393 385.201L106.059 380.577L101.876 388.068L105.955 391.662Z" fill="#F7E0C5"/>
<path d="M105.955 391.662L110.393 385.201L106.059 380.577L101.876 388.068L105.955 391.662Z" fill="#F7E0C5"/>
<path d="M114.832 378.739L122.033 381.05L116.834 387.249L111.635 393.449L73.4304 439.009L105.955 391.662L110.393 385.2L114.832 378.739Z" fill="#DC8484"/>
<path d="M111.635 393.449L116.834 387.249L110.393 385.201L105.955 391.662L111.635 393.449Z" fill="#E8BD87"/>
<path d="M122.033 381.05L125.627 387.409L120.312 392.663L114.997 397.918L73.4304 439.009L111.635 393.449L116.834 387.249L122.033 381.05Z" fill="#F3A5A5"/>
<path d="M114.997 397.918L120.312 392.663L116.834 387.249L111.635 393.449L114.997 397.918Z" fill="#F7E0C5"/>
<path d="M114.997 397.918L120.312 392.663L116.834 387.249L111.635 393.449L114.997 397.918Z" fill="#F7E0C5"/>
<path d="M125.627 387.409L132.099 391.192L125.999 396.164L119.899 401.136L73.4307 439.009L114.997 397.918L120.312 392.663L125.627 387.409Z" fill="#DC8484"/>
<path d="M119.899 401.136L125.999 396.164L120.312 392.663L114.997 397.918L119.899 401.136Z" fill="#E8BD87"/>
<path d="M132.099 391.192L134.289 398.467L128.574 402.274L122.859 406.081L73.4303 439.009L119.898 401.136L125.999 396.164L132.099 391.192Z" fill="#F3A5A5"/>
<path d="M122.86 406.081L128.575 402.274L125.999 396.164L119.899 401.136L122.86 406.081Z" fill="#F7E0C5"/>
<path d="M122.86 406.081L128.575 402.274L125.999 396.164L119.899 401.136L122.86 406.081Z" fill="#F7E0C5"/>
<path d="M134.289 398.467L140.028 403.466L133.681 406.854L126.722 410.567L73.4305 439.009L122.859 406.081L128.574 402.274L134.289 398.467Z" fill="#DC8484"/>
<path d="M126.722 410.568L133.681 406.854L128.574 402.274L122.86 406.081L126.722 410.568Z" fill="#E8BD87"/>
<path d="M140.029 403.466L140.957 410.677L134.938 413.203L127.851 416.176L73.4307 439.008L126.722 410.567L133.681 406.853L140.029 403.466Z" fill="#F3A5A5"/>
<path d="M127.851 416.176L134.938 413.203L133.681 406.854L126.722 410.567L127.851 416.176Z" fill="#F7E0C5"/>
<path d="M127.851 416.176L134.938 413.203L133.681 406.854L126.722 410.567L127.851 416.176Z" fill="#F7E0C5"/>
<path d="M140.957 410.678L145.298 417.106L138.502 419.177L130.782 421.53L73.4307 439.009L127.852 416.176L134.938 413.203L140.957 410.678Z" fill="#DC8484"/>
<path d="M130.782 421.53L138.502 419.177L134.938 413.204L127.851 416.177L130.782 421.53Z" fill="#E8BD87"/>
<path d="M145.298 417.106L144.554 424.207L137.745 425.624L130.46 427.141L73.4306 439.009L130.782 421.53L138.502 419.177L145.298 417.106Z" fill="#F3A5A5"/>
<path d="M130.46 427.141L137.745 425.625L138.502 419.177L130.782 421.53L130.46 427.141Z" fill="#F7E0C5"/>
<path d="M130.46 427.141L137.745 425.625L138.502 419.177L130.782 421.53L130.46 427.141Z" fill="#F7E0C5"/>
<path d="M144.554 424.207L148.497 430.009L141.362 430.864L133.701 431.783L73.4309 439.009L130.46 427.14L137.745 425.624L144.554 424.207Z" fill="#DC8484"/>
<path d="M141.361 430.864L137.745 425.625L130.46 427.141L133.701 431.783L141.361 430.864Z" fill="#E8BD87"/>
<path d="M96.5693 366.991L89.1422 367.51L87.3406 375.709L85.539 383.908L73.4308 439.009L91.106 383.996L93.8377 375.493L96.5693 366.991Z" fill="#DC8484"/>
<path d="M85.5387 383.907L87.3403 375.709L93.8374 375.493L91.1057 383.995L85.5387 383.907Z" fill="#E8BD87"/>
<path d="M89.1418 367.511L81.9013 363.993L80.9387 372.518L79.976 381.043L73.4305 439.009L85.5387 383.908L87.3403 375.709L89.1418 367.511Z" fill="#F3A5A5"/>
<path d="M79.976 381.043L80.9386 372.518L87.3402 375.709L85.5386 383.908L79.976 381.043Z" fill="#F7E0C5"/>
<path d="M79.976 381.043L80.9386 372.518L87.3402 375.709L85.5386 383.908L79.976 381.043Z" fill="#F7E0C5"/>
<path d="M81.9013 363.993L74.8756 365.921L74.7207 373.757L74.5657 381.592L73.4305 439.009L79.976 381.043L80.9387 372.518L81.9013 363.993Z" fill="#DC8484"/>
<path d="M74.5658 381.592L74.7207 373.756L80.9387 372.518L79.9761 381.043L74.5658 381.592Z" fill="#E8BD87"/>
<path d="M74.8755 365.921L67.6741 363.611L68.2899 371.676L68.9056 379.741L73.4304 439.009L74.5657 381.592L74.7206 373.757L74.8755 365.921Z" fill="#F3A5A5"/>
<path d="M68.9058 379.741L68.2901 371.676L74.7208 373.757L74.5659 381.592L68.9058 379.741Z" fill="#F7E0C5"/>
<path d="M68.9058 379.741L68.2901 371.676L74.7208 373.757L74.5659 381.592L68.9058 379.741Z" fill="#F7E0C5"/>
<path d="M67.6741 363.611L61.047 366.691L62.3081 374.056L63.5691 381.42L73.4304 439.009L68.9056 379.741L68.2899 371.676L67.6741 363.611Z" fill="#DC8484"/>
<path d="M63.569 381.42L62.308 374.055L68.2898 371.676L68.9055 379.741L63.569 381.42Z" fill="#E8BD87"/>
<path d="M61.0474 366.691L53.5811 366.003L55.6451 373.594L57.709 381.185L73.4307 439.009L63.5694 381.42L62.3084 374.055L61.0474 366.691Z" fill="#F3A5A5"/>
<path d="M57.7089 381.185L55.645 373.594L62.3083 374.055L63.5693 381.42L57.7089 381.185Z" fill="#F7E0C5"/>
<path d="M57.7089 381.185L55.645 373.594L62.3083 374.055L63.5693 381.42L57.7089 381.185Z" fill="#F7E0C5"/>
<path d="M53.581 366.003L47.5627 370.644L49.9918 377.064L52.4208 383.483L73.4306 439.009L57.7088 381.185L55.6449 373.594L53.581 366.003Z" fill="#DC8484"/>
<path d="M52.4206 383.483L49.9916 377.064L55.6447 373.594L57.7086 381.185L52.4206 383.483Z" fill="#E8BD87"/>
<path d="M47.5627 370.644L39.9835 371.371L43.1715 377.818L46.6662 384.885L73.4305 439.009L52.4208 383.483L49.9917 377.064L47.5627 370.644Z" fill="#F3A5A5"/>
<path d="M46.6664 384.885L43.1716 377.818L49.9918 377.064L52.4209 383.483L46.6664 384.885Z" fill="#F7E0C5"/>
<path d="M46.6664 384.885L43.1716 377.818L49.9918 377.064L52.4209 383.483L46.6664 384.885Z" fill="#F7E0C5"/>
<path d="M39.9837 371.371L35.0275 376.694L38.4509 382.249L42.4809 388.789L73.4307 439.009L46.6664 384.885L43.1716 377.818L39.9837 371.371Z" fill="#DC8484"/>
<path d="M42.4811 388.788L38.451 382.249L43.1718 377.817L46.6665 384.885L42.4811 388.788Z" fill="#E8BD87"/>
<path d="M35.0275 376.694L27.7532 379.396L32.0725 385.033L36.9793 391.437L73.4307 439.009L42.4809 388.789L38.4509 382.249L35.0275 376.694Z" fill="#F3A5A5"/>
<path d="M36.9793 391.437L32.0724 385.034L38.4509 382.25L42.4809 388.789L36.9793 391.437Z" fill="#F7E0C5"/>
<path d="M36.9793 391.437L32.0724 385.034L38.4509 382.25L42.4809 388.789L36.9793 391.437Z" fill="#F7E0C5"/>
<path d="M27.7531 379.396L24.2214 385.603L28.9325 390.716L33.9729 396.186L73.4306 439.009L36.9792 391.437L32.0724 385.033L27.7531 379.396Z" fill="#DC8484"/>
<path d="M33.973 396.187L28.9326 390.717L32.0725 385.034L36.9793 391.437L33.973 396.187Z" fill="#E8BD87"/>
<path d="M24.2216 385.603L17.6359 388.027L22.9397 392.873L28.6338 398.076L73.4309 439.009L33.9732 396.186L28.9328 390.716L24.2216 385.603Z" fill="#F3A5A5"/>
<path d="M22.9395 392.874L28.9325 390.717L33.9729 396.187L28.6335 398.077L22.9395 392.874Z" fill="#F7E0C5"/>
<path d="M22.9395 392.874L28.9325 390.717L33.9729 396.187L28.6335 398.077L22.9395 392.874Z" fill="#F7E0C5"/>
<path fill-rule="evenodd" clip-rule="evenodd" d="M71.4586 445.209C75.4835 445.209 78.7464 441.949 78.7464 437.927C78.7464 433.905 75.4835 430.645 71.4586 430.645C67.4337 430.645 64.1709 433.905 64.1709 437.927C64.1709 441.949 67.4337 445.209 71.4586 445.209ZM71.4586 441.568C73.471 441.568 75.1024 439.938 75.1024 437.927C75.1024 435.916 73.471 434.285 71.4586 434.285C69.4461 434.285 67.8147 435.916 67.8147 437.927C67.8147 439.938 69.4461 441.568 71.4586 441.568Z" fill="url(#paint43_linear_2722_60029)"/>
<g filter="url(#filter3_d_2722_60029)">
<path d="M75.9434 437.927C75.9434 440.402 73.9355 442.409 71.4586 442.409C68.9818 442.409 66.9739 440.402 66.9739 437.927C66.9739 435.452 68.9818 433.446 71.4586 433.446C73.9355 433.446 75.9434 435.452 75.9434 437.927Z" fill="url(#paint44_radial_2722_60029)"/>
</g>
</g>
<defs>
<filter id="filter0_d_2722_60029" x="321.261" y="86.0869" width="25.4788" height="25.3021" filterUnits="userSpaceOnUse" color-interpolation-filters="sRGB">
<feFlood flood-opacity="0" result="BackgroundImageFix"/>
<feColorMatrix in="SourceAlpha" type="matrix" values="0 0 0 0 0 0 0 0 0 0 0 0 0 0 0 0 0 0 127 0" result="hardAlpha"/>
<feOffset dy="1.82627"/>
<feGaussianBlur stdDeviation="1.36971"/>
<feComposite in2="hardAlpha" operator="out"/>
<feColorMatrix type="matrix" values="0 0 0 0 0 0 0 0 0 0 0 0 0 0 0 0 0 0 0.12 0"/>
<feBlend mode="normal" in2="BackgroundImageFix" result="effect1_dropShadow_2722_60029"/>
<feBlend mode="normal" in="SourceGraphic" in2="effect1_dropShadow_2722_60029" result="shape"/>
</filter>
<filter id="filter1_d_2722_60029" x="84.2606" y="86.0869" width="25.4788" height="25.3021" filterUnits="userSpaceOnUse" color-interpolation-filters="sRGB">
<feFlood flood-opacity="0" result="BackgroundImageFix"/>
<feColorMatrix in="SourceAlpha" type="matrix" values="0 0 0 0 0 0 0 0 0 0 0 0 0 0 0 0 0 0 127 0" result="hardAlpha"/>
<feOffset dy="1.82627"/>
<feGaussianBlur stdDeviation="1.36971"/>
<feComposite in2="hardAlpha" operator="out"/>
<feColorMatrix type="matrix" values="0 0 0 0 0 0 0 0 0 0 0 0 0 0 0 0 0 0 0.12 0"/>
<feBlend mode="normal" in2="BackgroundImageFix" result="effect1_dropShadow_2722_60029"/>
<feBlend mode="normal" in="SourceGraphic" in2="effect1_dropShadow_2722_60029" result="shape"/>
</filter>
<filter id="filter2_d_2722_60029" x="339.297" y="432.859" width="12.4882" height="12.4816" filterUnits="userSpaceOnUse" color-interpolation-filters="sRGB">
<feFlood flood-opacity="0" result="BackgroundImageFix"/>
<feColorMatrix in="SourceAlpha" type="matrix" values="0 0 0 0 0 0 0 0 0 0 0 0 0 0 0 0 0 0 127 0" result="hardAlpha"/>
<feOffset dy="1.17289"/>
<feGaussianBlur stdDeviation="0.879669"/>
<feComposite in2="hardAlpha" operator="out"/>
<feColorMatrix type="matrix" values="0 0 0 0 0 0 0 0 0 0 0 0 0 0 0 0 0 0 0.12 0"/>
<feBlend mode="normal" in2="BackgroundImageFix" result="effect1_dropShadow_2722_60029"/>
<feBlend mode="normal" in="SourceGraphic" in2="effect1_dropShadow_2722_60029" result="shape"/>
</filter>
<filter id="filter3_d_2722_60029" x="65.2145" y="432.859" width="12.4882" height="12.4816" filterUnits="userSpaceOnUse" color-interpolation-filters="sRGB">
<feFlood flood-opacity="0" result="BackgroundImageFix"/>
<feColorMatrix in="SourceAlpha" type="matrix" values="0 0 0 0 0 0 0 0 0 0 0 0 0 0 0 0 0 0 127 0" result="hardAlpha"/>
<feOffset dy="1.17289"/>
<feGaussianBlur stdDeviation="0.879669"/>
<feComposite in2="hardAlpha" operator="out"/>
<feColorMatrix type="matrix" values="0 0 0 0 0 0 0 0 0 0 0 0 0 0 0 0 0 0 0.12 0"/>
<feBlend mode="normal" in2="BackgroundImageFix" result="effect1_dropShadow_2722_60029"/>
<feBlend mode="normal" in="SourceGraphic" in2="effect1_dropShadow_2722_60029" result="shape"/>
</filter>
<radialGradient id="paint0_radial_2722_60029" cx="0" cy="0" r="1" gradientUnits="userSpaceOnUse" gradientTransform="translate(335.888 -17.5855) rotate(72.1936) scale(384.021 403.158)">
<stop stop-color="#FFF0CE"/>
<stop offset="1" stop-color="#A4480A"/>
</radialGradient>
<radialGradient id="paint1_radial_2722_60029" cx="0" cy="0" r="1" gradientUnits="userSpaceOnUse" gradientTransform="translate(311.929 438.26) rotate(72.1936) scale(309.447 324.867)">
<stop stop-color="#FFF0CE"/>
<stop offset="1" stop-color="#A4480A"/>
</radialGradient>
<linearGradient id="paint2_linear_2722_60029" x1="238.759" y1="-35.9085" x2="236.697" y2="23.4521" gradientUnits="userSpaceOnUse">
<stop stop-color="#FFF0CE"/>
<stop offset="1" stop-color="#A4480A"/>
</linearGradient>
<linearGradient id="paint3_linear_2722_60029" x1="210.337" y1="-7.48614" x2="208.275" y2="51.8745" gradientUnits="userSpaceOnUse">
<stop stop-color="#FFF0CE"/>
<stop offset="1" stop-color="#A4480A"/>
</linearGradient>
<linearGradient id="paint4_linear_2722_60029" x1="181.914" y1="20.9367" x2="179.852" y2="80.2974" gradientUnits="userSpaceOnUse">
<stop stop-color="#FFF0CE"/>
<stop offset="1" stop-color="#A4480A"/>
</linearGradient>
<linearGradient id="paint5_linear_2722_60029" x1="153.491" y1="49.3596" x2="151.429" y2="108.72" gradientUnits="userSpaceOnUse">
<stop stop-color="#FFF0CE"/>
<stop offset="1" stop-color="#A4480A"/>
</linearGradient>
<linearGradient id="paint6_linear_2722_60029" x1="125.069" y1="77.7819" x2="123.007" y2="137.143" gradientUnits="userSpaceOnUse">
<stop stop-color="#FFF0CE"/>
<stop offset="1" stop-color="#A4480A"/>
</linearGradient>
<linearGradient id="paint7_linear_2722_60029" x1="96.6462" y1="106.204" x2="94.5842" y2="165.565" gradientUnits="userSpaceOnUse">
<stop stop-color="#FFF0CE"/>
<stop offset="1" stop-color="#A4480A"/>
</linearGradient>
<linearGradient id="paint8_linear_2722_60029" x1="68.2236" y1="134.627" x2="66.1616" y2="193.988" gradientUnits="userSpaceOnUse">
<stop stop-color="#FFF0CE"/>
<stop offset="1" stop-color="#A4480A"/>
</linearGradient>
<linearGradient id="paint9_linear_2722_60029" x1="39.801" y1="163.05" x2="37.739" y2="222.41" gradientUnits="userSpaceOnUse">
<stop stop-color="#FFF0CE"/>
<stop offset="1" stop-color="#A4480A"/>
</linearGradient>
<linearGradient id="paint10_linear_2722_60029" x1="449.536" y1="209.848" x2="447.474" y2="269.209" gradientUnits="userSpaceOnUse">
<stop stop-color="#FFF0CE"/>
<stop offset="1" stop-color="#A4480A"/>
</linearGradient>
<linearGradient id="paint11_linear_2722_60029" x1="421.114" y1="238.271" x2="419.052" y2="297.632" gradientUnits="userSpaceOnUse">
<stop stop-color="#FFF0CE"/>
<stop offset="1" stop-color="#A4480A"/>
</linearGradient>
<linearGradient id="paint12_linear_2722_60029" x1="392.691" y1="266.694" x2="390.629" y2="326.054" gradientUnits="userSpaceOnUse">
<stop stop-color="#FFF0CE"/>
<stop offset="1" stop-color="#A4480A"/>
</linearGradient>
<linearGradient id="paint13_linear_2722_60029" x1="364.269" y1="295.116" x2="362.207" y2="354.477" gradientUnits="userSpaceOnUse">
<stop stop-color="#FFF0CE"/>
<stop offset="1" stop-color="#A4480A"/>
</linearGradient>
<linearGradient id="paint14_linear_2722_60029" x1="335.846" y1="323.539" x2="333.784" y2="382.899" gradientUnits="userSpaceOnUse">
<stop stop-color="#FFF0CE"/>
<stop offset="1" stop-color="#A4480A"/>
</linearGradient>
<linearGradient id="paint15_linear_2722_60029" x1="307.424" y1="351.962" x2="305.362" y2="411.322" gradientUnits="userSpaceOnUse">
<stop stop-color="#FFF0CE"/>
<stop offset="1" stop-color="#A4480A"/>
</linearGradient>
<linearGradient id="paint16_linear_2722_60029" x1="279.001" y1="380.384" x2="276.939" y2="439.745" gradientUnits="userSpaceOnUse">
<stop stop-color="#FFF0CE"/>
<stop offset="1" stop-color="#A4480A"/>
</linearGradient>
<linearGradient id="paint17_linear_2722_60029" x1="250.578" y1="408.806" x2="248.516" y2="468.167" gradientUnits="userSpaceOnUse">
<stop stop-color="#FFF0CE"/>
<stop offset="1" stop-color="#A4480A"/>
</linearGradient>
<linearGradient id="paint18_linear_2722_60029" x1="480.102" y1="253.363" x2="420.741" y2="251.301" gradientUnits="userSpaceOnUse">
<stop stop-color="#FFF0CE"/>
<stop offset="1" stop-color="#A4480A"/>
</linearGradient>
<linearGradient id="paint19_linear_2722_60029" x1="451.679" y1="224.94" x2="392.319" y2="222.878" gradientUnits="userSpaceOnUse">
<stop stop-color="#FFF0CE"/>
<stop offset="1" stop-color="#A4480A"/>
</linearGradient>
<linearGradient id="paint20_linear_2722_60029" x1="423.257" y1="196.518" x2="363.896" y2="194.456" gradientUnits="userSpaceOnUse">
<stop stop-color="#FFF0CE"/>
<stop offset="1" stop-color="#A4480A"/>
</linearGradient>
<linearGradient id="paint21_linear_2722_60029" x1="394.834" y1="168.095" x2="335.473" y2="166.033" gradientUnits="userSpaceOnUse">
<stop stop-color="#FFF0CE"/>
<stop offset="1" stop-color="#A4480A"/>
</linearGradient>
<linearGradient id="paint22_linear_2722_60029" x1="366.412" y1="139.673" x2="307.051" y2="137.611" gradientUnits="userSpaceOnUse">
<stop stop-color="#FFF0CE"/>
<stop offset="1" stop-color="#A4480A"/>
</linearGradient>
<linearGradient id="paint23_linear_2722_60029" x1="337.989" y1="111.25" x2="278.628" y2="109.188" gradientUnits="userSpaceOnUse">
<stop stop-color="#FFF0CE"/>
<stop offset="1" stop-color="#A4480A"/>
</linearGradient>
<linearGradient id="paint24_linear_2722_60029" x1="309.566" y1="82.8276" x2="250.206" y2="80.7656" gradientUnits="userSpaceOnUse">
<stop stop-color="#FFF0CE"/>
<stop offset="1" stop-color="#A4480A"/>
</linearGradient>
<linearGradient id="paint25_linear_2722_60029" x1="281.144" y1="54.4048" x2="221.783" y2="52.3428" gradientUnits="userSpaceOnUse">
<stop stop-color="#FFF0CE"/>
<stop offset="1" stop-color="#A4480A"/>
</linearGradient>
<linearGradient id="paint26_linear_2722_60029" x1="233.152" y1="464.537" x2="173.792" y2="462.475" gradientUnits="userSpaceOnUse">
<stop stop-color="#FFF0CE"/>
<stop offset="1" stop-color="#A4480A"/>
</linearGradient>
<linearGradient id="paint27_linear_2722_60029" x1="204.73" y1="436.114" x2="145.369" y2="434.052" gradientUnits="userSpaceOnUse">
<stop stop-color="#FFF0CE"/>
<stop offset="1" stop-color="#A4480A"/>
</linearGradient>
<linearGradient id="paint28_linear_2722_60029" x1="176.307" y1="407.691" x2="116.947" y2="405.629" gradientUnits="userSpaceOnUse">
<stop stop-color="#FFF0CE"/>
<stop offset="1" stop-color="#A4480A"/>
</linearGradient>
<linearGradient id="paint29_linear_2722_60029" x1="147.885" y1="379.269" x2="88.5239" y2="377.207" gradientUnits="userSpaceOnUse">
<stop stop-color="#FFF0CE"/>
<stop offset="1" stop-color="#A4480A"/>
</linearGradient>
<linearGradient id="paint30_linear_2722_60029" x1="119.462" y1="350.846" x2="60.1016" y2="348.784" gradientUnits="userSpaceOnUse">
<stop stop-color="#FFF0CE"/>
<stop offset="1" stop-color="#A4480A"/>
</linearGradient>
<linearGradient id="paint31_linear_2722_60029" x1="91.0394" y1="322.424" x2="31.6787" y2="320.362" gradientUnits="userSpaceOnUse">
<stop stop-color="#FFF0CE"/>
<stop offset="1" stop-color="#A4480A"/>
</linearGradient>
<linearGradient id="paint32_linear_2722_60029" x1="62.6168" y1="294.001" x2="3.25611" y2="291.939" gradientUnits="userSpaceOnUse">
<stop stop-color="#FFF0CE"/>
<stop offset="1" stop-color="#A4480A"/>
</linearGradient>
<linearGradient id="paint33_linear_2722_60029" x1="34.1941" y1="265.579" x2="-25.1665" y2="263.517" gradientUnits="userSpaceOnUse">
<stop stop-color="#FFF0CE"/>
<stop offset="1" stop-color="#A4480A"/>
</linearGradient>
<linearGradient id="paint34_linear_2722_60029" x1="343.667" y1="111.333" x2="322.667" y2="83" gradientUnits="userSpaceOnUse">
<stop stop-color="#E8BD87"/>
<stop offset="1" stop-color="#F7E0C4"/>
</linearGradient>
<linearGradient id="paint35_linear_2722_60029" x1="327" y1="89.3127" x2="339.538" y2="103.96" gradientUnits="userSpaceOnUse">
<stop stop-color="#E8BD87"/>
<stop offset="1" stop-color="#F7E0C5"/>
</linearGradient>
<linearGradient id="paint36_linear_2722_60029" x1="106.667" y1="111.333" x2="85.6667" y2="83" gradientUnits="userSpaceOnUse">
<stop stop-color="#E8BD87"/>
<stop offset="1" stop-color="#F7E0C4"/>
</linearGradient>
<linearGradient id="paint37_linear_2722_60029" x1="90" y1="89.3127" x2="102.538" y2="103.96" gradientUnits="userSpaceOnUse">
<stop stop-color="#E8BD87"/>
<stop offset="1" stop-color="#F7E0C5"/>
</linearGradient>
<linearGradient id="paint38_linear_2722_60029" x1="215" y1="30.2344" x2="215" y2="61.5767" gradientUnits="userSpaceOnUse">
<stop stop-color="#E6AAAA"/>
<stop offset="1" stop-color="#CE6767"/>
</linearGradient>
<radialGradient id="paint39_radial_2722_60029" cx="0" cy="0" r="1" gradientUnits="userSpaceOnUse" gradientTransform="translate(207.808 28.9436) rotate(68.1141) scale(38.5896 48.1297)">
<stop stop-color="#F1E7D0"/>
<stop offset="1" stop-color="#E0A680"/>
</radialGradient>
<linearGradient id="paint40_linear_2722_60029" x1="212.088" y1="80.7658" x2="217.265" y2="80.7658" gradientUnits="userSpaceOnUse">
<stop stop-color="#E5A6A6"/>
<stop offset="1" stop-color="#CE6767"/>
</linearGradient>
<linearGradient id="paint41_linear_2722_60029" x1="340.356" y1="432.955" x2="351.49" y2="443.397" gradientUnits="userSpaceOnUse">
<stop stop-color="#FFDDB4"/>
<stop offset="0.256329" stop-color="#FFF1C2"/>
<stop offset="0.691007" stop-color="#FFCC6C"/>
<stop offset="1" stop-color="#FFFAE9"/>
</linearGradient>
<radialGradient id="paint42_radial_2722_60029" cx="0" cy="0" r="1" gradientUnits="userSpaceOnUse" gradientTransform="translate(343.159 434.146) rotate(65.1633) scale(12.3454 18.1721)">
<stop stop-color="#FFD5A2"/>
<stop offset="0.256329" stop-color="#FFFBED"/>
<stop offset="0.691007" stop-color="#FFDA94"/>
<stop offset="1" stop-color="#FFF5D3"/>
</radialGradient>
<linearGradient id="paint43_linear_2722_60029" x1="76.6441" y1="432.955" x2="65.51" y2="443.397" gradientUnits="userSpaceOnUse">
<stop stop-color="#FFDDB4"/>
<stop offset="0.256329" stop-color="#FFF1C2"/>
<stop offset="0.691007" stop-color="#FFCC6C"/>
<stop offset="1" stop-color="#FFFAE9"/>
</linearGradient>
<radialGradient id="paint44_radial_2722_60029" cx="0" cy="0" r="1" gradientUnits="userSpaceOnUse" gradientTransform="translate(73.8412 434.146) rotate(114.837) scale(12.3454 18.1721)">
<stop stop-color="#FFD5A2"/>
<stop offset="0.256329" stop-color="#FFFBED"/>
<stop offset="0.691007" stop-color="#FFDA94"/>
<stop offset="1" stop-color="#FFF5D3"/>
</radialGradient>
<clipPath id="clip0_2722_60029">
<rect width="430" height="460" fill="white"/>
</clipPath>
</defs>
</svg>
