<svg width="1920" height="420" viewBox="0 0 1920 420" fill="none" xmlns="http://www.w3.org/2000/svg">
<g clipPath="url(#clip0_2722_60026)">
<g opacity="0.05">
<rect x="959.701" y="-241.84" width="638.574" height="638.574" transform="rotate(45 959.701 -241.84)" stroke="url(#paint0_radial_2722_60026)" strokeWidth="3"/>
<rect x="958.838" y="570.313" width="513.985" height="513.985" transform="rotate(-135 958.838 570.313)" stroke="url(#paint1_radial_2722_60026)" strokeWidth="3"/>
<path d="M755.344 -4.37569L762.596 2.8764L755.344 10.1285L740.84 -4.37569L755.344 -18.8799L778.309 4.08509L756.553 25.8414L733.588 2.8764L711.831 24.6327L734.796 47.5977L749.301 33.0935L734.796 18.5893L727.544 25.8414L734.192 32.4891" stroke="url(#paint2_linear_2722_60026)" strokeWidth="3" strokeLinecap="square"/>
<path d="M704.579 46.389L711.831 53.6411L704.579 60.8931L690.075 46.389L704.579 31.8848L727.544 54.8497L705.788 76.606L682.823 53.6411L661.067 75.3973L684.032 98.3623L698.536 83.8581L684.032 69.3539L676.78 76.606L683.427 83.2538" stroke="url(#paint3_linear_2722_60026)" strokeWidth="3" strokeLinecap="square"/>
<path d="M653.815 97.1541L661.067 104.406L653.815 111.658L639.31 97.1541L653.815 82.6499L676.78 105.615L655.023 127.371L632.058 104.406L610.302 126.162L633.267 149.127L647.771 134.623L633.267 120.119L626.015 127.371L632.663 134.019" stroke="url(#paint4_linear_2722_60026)" strokeWidth="3" strokeLinecap="square"/>
<path d="M603.05 147.919L610.302 155.171L603.05 162.423L588.546 147.919L603.05 133.415L626.015 156.38L604.259 178.136L581.294 155.171L559.537 176.927L582.502 199.892L597.007 185.388L582.502 170.884L575.25 178.136L581.898 184.784" stroke="url(#paint5_linear_2722_60026)" strokeWidth="3" strokeLinecap="square"/>
<path d="M1334.87 231.504L1342.12 238.756L1334.87 246.008L1320.36 231.504L1334.87 217L1357.83 239.965L1336.07 261.721L1313.11 238.756L1291.35 260.513L1314.32 283.478L1328.82 268.973L1314.32 254.469L1307.07 261.721L1313.71 268.369" stroke="url(#paint6_linear_2722_60026)" strokeWidth="3" strokeLinecap="square"/>
<path d="M1284.1 282.269L1291.35 289.521L1284.1 296.773L1269.6 282.269L1284.1 267.765L1307.07 290.73L1285.31 312.486L1262.34 289.521L1240.59 311.277L1263.55 334.242L1278.06 319.738L1263.55 305.234L1256.3 312.486L1262.95 319.134" stroke="url(#paint7_linear_2722_60026)" strokeWidth="3" strokeLinecap="square"/>
<path d="M1233.34 333.033L1240.59 340.286L1233.34 347.538L1218.83 333.033L1233.34 318.529L1256.3 341.494L1234.54 363.251L1211.58 340.286L1189.82 362.042L1212.79 385.007L1227.29 370.503L1212.79 355.998L1205.54 363.251L1212.18 369.898" stroke="url(#paint8_linear_2722_60026)" strokeWidth="3" strokeLinecap="square"/>
<path d="M1182.57 383.798L1189.82 391.05L1182.57 398.302L1168.07 383.798L1182.57 369.294L1205.54 392.259L1183.78 414.015L1160.81 391.05L1139.06 412.807L1162.02 435.771L1176.53 421.267L1162.02 406.763L1154.77 414.015L1161.42 420.663" stroke="url(#paint9_linear_2722_60026)" strokeWidth="3" strokeLinecap="square"/>
<path d="M1131.81 434.563L1139.06 441.815L1131.81 449.067L1117.3 434.563L1131.81 420.059L1154.77 443.024L1133.02 464.78L1110.05 441.815L1088.29 463.571L1111.26 486.536L1125.76 472.032L1111.26 457.528L1104.01 464.78L1110.65 471.428" stroke="url(#paint10_linear_2722_60026)" strokeWidth="3" strokeLinecap="square"/>
<path d="M1375.39 207.695L1368.14 214.947L1360.89 207.695L1375.39 193.191L1389.9 207.695L1366.93 230.66L1345.18 208.904L1368.14 185.939L1346.39 164.182L1323.42 187.147L1337.93 201.651L1352.43 187.147L1345.18 179.895L1338.53 186.543" stroke="url(#paint11_linear_2722_60026)" strokeWidth="3" strokeLinecap="square"/>
<path d="M1324.63 156.93L1317.38 164.182L1310.13 156.93L1324.63 142.426L1339.13 156.93L1316.17 179.895L1294.41 158.139L1317.38 135.174L1295.62 113.418L1272.66 136.383L1287.16 150.887L1301.66 136.383L1294.41 129.13L1287.77 135.778" stroke="url(#paint12_linear_2722_60026)" strokeWidth="3" strokeLinecap="square"/>
<path d="M1273.87 106.166L1266.61 113.418L1259.36 106.166L1273.87 91.6613L1288.37 106.166L1265.4 129.13L1243.65 107.374L1266.61 84.4092L1244.86 62.653L1221.89 85.6179L1236.4 100.122L1250.9 85.6179L1243.65 78.3658L1237 85.0136" stroke="url(#paint13_linear_2722_60026)" strokeWidth="3" strokeLinecap="square"/>
<path d="M1223.1 55.4009L1215.85 62.653L1208.6 55.4009L1223.1 40.8967L1237.6 55.4009L1214.64 78.3658L1192.88 56.6096L1215.85 33.6446L1194.09 11.8883L1171.13 34.8533L1185.63 49.3575L1200.14 34.8533L1192.88 27.6012L1186.24 34.2489" stroke="url(#paint14_linear_2722_60026)" strokeWidth="3" strokeLinecap="square"/>
<path d="M1172.34 4.63623L1165.08 11.8883L1157.83 4.63623L1172.34 -9.86796L1186.84 4.63623L1163.88 27.6012L1142.12 5.84491L1165.08 -17.1201L1143.33 -38.8763L1120.36 -15.9114L1134.87 -1.40718L1149.37 -15.9114L1142.12 -23.1635L1135.47 -16.5157" stroke="url(#paint15_linear_2722_60026)" strokeWidth="3" strokeLinecap="square"/>
<path d="M782.032 432.571L774.78 439.823L767.528 432.571L782.032 418.067L796.536 432.571L773.571 455.536L751.815 433.78L774.78 410.815L753.024 389.059L730.059 412.024L744.563 426.528L759.067 412.024L751.815 404.772L745.167 411.419" stroke="url(#paint16_linear_2722_60026)" strokeWidth="3" strokeLinecap="square"/>
<path d="M731.267 381.807L724.015 389.059L716.763 381.807L731.267 367.302L745.771 381.807L722.807 404.772L701.05 383.015L724.015 360.05L702.259 338.294L679.294 361.259L693.798 375.763L708.302 361.259L701.05 354.007L694.402 360.655" stroke="url(#paint17_linear_2722_60026)" strokeWidth="3" strokeLinecap="square"/>
<path d="M680.503 331.042L673.25 338.294L665.998 331.042L680.503 316.538L695.007 331.042L672.042 354.007L650.286 332.251L673.25 309.286L651.494 287.529L628.529 310.494L643.033 324.999L657.538 310.494L650.286 303.242L643.638 309.89" stroke="url(#paint18_linear_2722_60026)" strokeWidth="3" strokeLinecap="square"/>
<path d="M629.738 280.277L622.486 287.529L615.234 280.277L629.738 265.773L644.242 280.277L621.277 303.242L599.521 281.486L622.486 258.521L600.73 236.765L577.765 259.73L592.269 274.234L606.773 259.73L599.521 252.478L592.873 259.125" stroke="url(#paint19_linear_2722_60026)" strokeWidth="3" strokeLinecap="square"/>
<path d="M578.973 229.512L571.721 236.764L564.469 229.512L578.973 215.008L593.477 229.512L570.512 252.477L548.756 230.721L571.721 207.756L549.965 186L527 208.965L541.504 223.469L556.008 208.965L548.756 201.713L542.108 208.36" stroke="url(#paint20_linear_2722_60026)" strokeWidth="3" strokeLinecap="square"/>
</g>
<mask id="path-22-inside-1_2722_60026" fill="white">
<path fill-rule="evenodd" clip-rule="evenodd" d="M344 174C352.837 174 360 166.837 360 158C360 149.163 352.837 142 344 142C335.163 142 328 149.163 328 158C328 166.837 335.163 174 344 174ZM344.106 166.16C348.554 166.16 352.16 162.554 352.16 158.107C352.16 153.659 348.554 150.053 344.106 150.053C339.659 150.053 336.053 153.659 336.053 158.107C336.053 162.554 339.659 166.16 344.106 166.16Z"/>
</mask>
<path fill-rule="evenodd" clip-rule="evenodd" d="M344 174C352.837 174 360 166.837 360 158C360 149.163 352.837 142 344 142C335.163 142 328 149.163 328 158C328 166.837 335.163 174 344 174ZM344.106 166.16C348.554 166.16 352.16 162.554 352.16 158.107C352.16 153.659 348.554 150.053 344.106 150.053C339.659 150.053 336.053 153.659 336.053 158.107C336.053 162.554 339.659 166.16 344.106 166.16Z" fill="url(#paint21_linear_2722_60026)"/>
<path d="M359.543 158C359.543 166.584 352.584 173.543 344 173.543V174.457C353.089 174.457 360.457 167.089 360.457 158H359.543ZM344 142.457C352.584 142.457 359.543 149.416 359.543 158H360.457C360.457 148.911 353.089 141.543 344 141.543V142.457ZM328.457 158C328.457 149.416 335.416 142.457 344 142.457V141.543C334.911 141.543 327.543 148.911 327.543 158H328.457ZM344 173.543C335.416 173.543 328.457 166.584 328.457 158H327.543C327.543 167.089 334.911 174.457 344 174.457V173.543ZM351.703 158.107C351.703 162.302 348.302 165.703 344.106 165.703V166.616C348.806 166.616 352.616 162.806 352.616 158.107H351.703ZM344.106 150.51C348.302 150.51 351.703 153.911 351.703 158.107H352.616C352.616 153.407 348.806 149.597 344.106 149.597V150.51ZM336.51 158.107C336.51 153.911 339.911 150.51 344.106 150.51V149.597C339.407 149.597 335.597 153.407 335.597 158.107H336.51ZM344.106 165.703C339.911 165.703 336.51 162.302 336.51 158.107H335.597C335.597 162.806 339.407 166.616 344.106 166.616V165.703Z" fill="#FFE2BF" mask="url(#path-22-inside-1_2722_60026)"/>
<g filter="url(#filter0_d_2722_60026)">
<mask id="path-24-inside-2_2722_60026" fill="white">
<path fill-rule="evenodd" clip-rule="evenodd" d="M344 167.823C349.523 167.823 354 163.386 354 157.912C354 152.438 349.523 148 344 148C338.477 148 334 152.438 334 157.912C334 163.386 338.477 167.823 344 167.823ZM344.973 153.611C344.436 153.078 343.565 153.078 343.027 153.611L339.67 156.939C339.132 157.471 339.132 158.335 339.67 158.867L343.027 162.195C343.565 162.728 344.436 162.728 344.973 162.195L348.331 158.867C348.868 158.335 348.868 157.471 348.331 156.939L344.973 153.611Z"/>
</mask>
<path fill-rule="evenodd" clip-rule="evenodd" d="M344 167.823C349.523 167.823 354 163.386 354 157.912C354 152.438 349.523 148 344 148C338.477 148 334 152.438 334 157.912C334 163.386 338.477 167.823 344 167.823ZM344.973 153.611C344.436 153.078 343.565 153.078 343.027 153.611L339.67 156.939C339.132 157.471 339.132 158.335 339.67 158.867L343.027 162.195C343.565 162.728 344.436 162.728 344.973 162.195L348.331 158.867C348.868 158.335 348.868 157.471 348.331 156.939L344.973 153.611Z" fill="url(#paint22_linear_2722_60026)"/>
<path d="M343.027 153.611L342.746 153.327L343.027 153.611ZM344.973 153.611L345.254 153.327L344.973 153.611ZM339.67 156.939L339.388 156.655L339.67 156.939ZM339.67 158.867L339.951 158.583L339.67 158.867ZM343.027 162.195L342.746 162.479L343.027 162.195ZM344.973 162.195L345.254 162.479L344.973 162.195ZM348.331 158.867L348.049 158.583L348.331 158.867ZM348.331 156.939L348.049 157.223L348.331 156.939ZM353.6 157.912C353.6 163.161 349.305 167.423 344 167.423V168.223C349.74 168.223 354.4 163.61 354.4 157.912H353.6ZM344 148.4C349.305 148.4 353.6 152.662 353.6 157.912H354.4C354.4 152.213 349.74 147.6 344 147.6V148.4ZM334.4 157.912C334.4 152.662 338.695 148.4 344 148.4V147.6C338.26 147.6 333.6 152.213 333.6 157.912H334.4ZM344 167.423C338.695 167.423 334.4 163.161 334.4 157.912H333.6C333.6 163.61 338.26 168.223 344 168.223V167.423ZM343.309 153.895C343.69 153.517 344.31 153.517 344.691 153.895L345.254 153.327C344.561 152.64 343.439 152.64 342.746 153.327L343.309 153.895ZM339.951 157.223L343.309 153.895L342.746 153.327L339.388 156.655L339.951 157.223ZM339.951 158.583C339.572 158.207 339.572 157.599 339.951 157.223L339.388 156.655C338.693 157.344 338.693 158.462 339.388 159.151L339.951 158.583ZM343.309 161.911L339.951 158.583L339.388 159.151L342.746 162.479L343.309 161.911ZM344.691 161.911C344.31 162.289 343.69 162.289 343.309 161.911L342.746 162.479C343.439 163.166 344.561 163.166 345.254 162.479L344.691 161.911ZM348.049 158.583L344.691 161.911L345.254 162.479L348.612 159.151L348.049 158.583ZM348.049 157.223C348.428 157.599 348.428 158.207 348.049 158.583L348.612 159.151C349.307 158.462 349.307 157.344 348.612 156.655L348.049 157.223ZM344.691 153.895L348.049 157.223L348.612 156.655L345.254 153.327L344.691 153.895Z" fill="#FFE2BF" mask="url(#path-24-inside-2_2722_60026)"/>
</g>
<path d="M344 142L344 0" stroke="#DEBF9A" strokeWidth="0.601124"/>
<path fill-rule="evenodd" clip-rule="evenodd" d="M410 115.874L410 121H412L412 115.874C413.725 115.43 415 113.864 415 112C415 110.136 413.725 108.57 412 108.126V104H410L410 108.126C408.275 108.57 407 110.136 407 112C407 113.864 408.275 115.43 410 115.874Z" fill="#E0A680"/>
<rect x="411" y="19" width="3" height="2" rx="1" transform="rotate(-90 411 19)" fill="#DEBF9A"/>
<rect x="411" y="15" width="3" height="2" rx="1" transform="rotate(-90 411 15)" fill="#DEBF9A"/>
<rect x="411" y="11" width="3" height="2" rx="1" transform="rotate(-90 411 11)" fill="#DEBF9A"/>
<rect x="411" y="7" width="3" height="2" rx="1" transform="rotate(-90 411 7)" fill="#DEBF9A"/>
<rect x="411" y="3" width="3" height="2" rx="1" transform="rotate(-90 411 3)" fill="#DEBF9A"/>
<rect x="362" y="26" width="100" height="72" rx="36" fill="url(#paint23_linear_2722_60026)"/>
<path fill-rule="evenodd" clip-rule="evenodd" d="M396 24C396 21.7909 397.791 20 400 20H424C426.209 20 428 21.7909 428 24H426C446.987 24 464 41.0132 464 62C464 82.9868 446.987 100 426 100H425C425 102.209 423.209 104 421 104H401C398.791 104 397 102.209 397 100H398C377.013 100 360 82.9868 360 62C360 41.0132 377.013 24 398 24H396ZM412 26H411C410.139 26 409.284 26.0303 408.438 26.0898C384.958 45.612 385.415 78.3656 408.447 97.9108C409.29 97.9699 410.141 98 411 98H412C412.928 98 413.848 97.9649 414.759 97.8958C437.767 78.3539 438.224 45.6239 414.768 26.1048C413.855 26.0354 412.931 26 412 26ZM404.986 97.4999C383.903 77.6621 383.461 46.3715 404.926 26.5102C387.936 29.397 375 44.1878 375 62C375 79.8331 387.967 94.6376 404.986 97.4999ZM448 62C448 79.7527 435.15 94.5041 418.244 97.4605C439.271 77.634 439.713 46.4004 418.305 26.5503C435.181 29.5314 448 44.2687 448 62ZM424.198 98H426C445.882 98 462 81.8823 462 62C462 42.1178 445.882 26 426 26H424.198C439.201 31.0819 450 45.2799 450 62C450 78.7201 439.201 92.9181 424.198 98ZM398 26H398.802C383.799 31.0819 373 45.2799 373 62C373 78.7201 383.799 92.9181 398.802 98H398C378.118 98 362 81.8823 362 62C362 42.1178 378.118 26 398 26Z" fill="url(#paint24_radial_2722_60026)"/>
<path d="M405.459 162.459C405.165 162.165 405 161.766 405 161.351L405 126C405 122.686 407.686 120 411 120C414.314 120 417 122.686 417 126L417 161.351C417 161.766 416.835 162.165 416.541 162.459C413.481 165.519 408.519 165.519 405.459 162.459Z" fill="url(#paint25_linear_2722_60026)"/>
<rect x="407" y="161" width="20" height="1" rx="0.5" transform="rotate(-90 407 161)" fill="#FFD0D0"/>
<rect x="414" y="161" width="20" height="1" rx="0.5" transform="rotate(-90 414 161)" fill="#FFD0D0"/>
<rect x="410.5" y="162" width="20" height="1" rx="0.5" transform="rotate(-90 410.5 162)" fill="#FFD0D0"/>
<mask id="path-39-inside-3_2722_60026" fill="white">
<path fill-rule="evenodd" clip-rule="evenodd" d="M488 257C501.255 257 512 246.255 512 233C512 219.745 501.255 209 488 209C474.745 209 464 219.745 464 233C464 246.255 474.745 257 488 257ZM488 245C494.628 245 500 239.627 500 233C500 226.373 494.628 221 488 221C481.373 221 476 226.373 476 233C476 239.627 481.373 245 488 245Z"/>
</mask>
<path fill-rule="evenodd" clip-rule="evenodd" d="M488 257C501.255 257 512 246.255 512 233C512 219.745 501.255 209 488 209C474.745 209 464 219.745 464 233C464 246.255 474.745 257 488 257ZM488 245C494.628 245 500 239.627 500 233C500 226.373 494.628 221 488 221C481.373 221 476 226.373 476 233C476 239.627 481.373 245 488 245Z" fill="url(#paint26_linear_2722_60026)"/>
<path d="M511.543 233C511.543 246.003 501.003 256.543 488 256.543V257.457C501.507 257.457 512.457 246.507 512.457 233H511.543ZM488 209.457C501.003 209.457 511.543 219.997 511.543 233H512.457C512.457 219.493 501.507 208.543 488 208.543V209.457ZM464.457 233C464.457 219.997 474.997 209.457 488 209.457V208.543C474.493 208.543 463.543 219.493 463.543 233H464.457ZM488 256.543C474.997 256.543 464.457 246.003 464.457 233H463.543C463.543 246.507 474.493 257.457 488 257.457V256.543ZM499.544 233C499.544 239.375 494.375 244.543 488 244.543V245.457C494.88 245.457 500.457 239.88 500.457 233H499.544ZM488 221.457C494.375 221.457 499.544 226.625 499.544 233H500.457C500.457 226.12 494.88 220.543 488 220.543V221.457ZM476.457 233C476.457 226.625 481.625 221.457 488 221.457V220.543C481.121 220.543 475.544 226.12 475.544 233H476.457ZM488 244.543C481.625 244.543 476.457 239.375 476.457 233H475.544C475.544 239.88 481.121 245.457 488 245.457V244.543Z" fill="#FFE2BF" mask="url(#path-39-inside-3_2722_60026)"/>
<g filter="url(#filter1_d_2722_60026)">
<mask id="path-41-inside-4_2722_60026" fill="white">
<path fill-rule="evenodd" clip-rule="evenodd" d="M488 248C496.284 248 503 241.284 503 233C503 224.716 496.284 218 488 218C479.716 218 473 224.716 473 233C473 241.284 479.716 248 488 248ZM494.986 232.018L488.969 226C488.434 225.465 487.566 225.465 487.031 226L481.014 232.018C480.479 232.553 480.479 233.42 481.014 233.955L487.031 239.973C487.566 240.508 488.434 240.508 488.969 239.973L494.986 233.955C495.521 233.42 495.521 232.553 494.986 232.018Z"/>
</mask>
<path fill-rule="evenodd" clip-rule="evenodd" d="M488 248C496.284 248 503 241.284 503 233C503 224.716 496.284 218 488 218C479.716 218 473 224.716 473 233C473 241.284 479.716 248 488 248ZM494.986 232.018L488.969 226C488.434 225.465 487.566 225.465 487.031 226L481.014 232.018C480.479 232.553 480.479 233.42 481.014 233.955L487.031 239.973C487.566 240.508 488.434 240.508 488.969 239.973L494.986 233.955C495.521 233.42 495.521 232.553 494.986 232.018Z" fill="url(#paint27_linear_2722_60026)"/>
<path d="M487.031 226L486.749 225.717L487.031 226ZM481.014 232.018L481.296 232.301L481.014 232.018ZM487.031 239.973L487.314 239.69L487.031 239.973ZM488.969 239.973L488.686 239.69L488.969 239.973ZM494.986 233.955L495.269 234.238V234.238L494.986 233.955ZM502.6 233C502.6 241.063 496.063 247.6 488 247.6V248.4C496.505 248.4 503.4 241.505 503.4 233H502.6ZM488 218.4C496.063 218.4 502.6 224.937 502.6 233H503.4C503.4 224.495 496.505 217.6 488 217.6V218.4ZM473.4 233C473.4 224.937 479.937 218.4 488 218.4V217.6C479.495 217.6 472.6 224.495 472.6 233H473.4ZM488 247.6C479.937 247.6 473.4 241.063 473.4 233H472.6C472.6 241.505 479.495 248.4 488 248.4V247.6ZM488.686 226.283L494.704 232.301L495.269 231.735L489.251 225.717L488.686 226.283ZM487.314 226.283C487.693 225.904 488.307 225.904 488.686 226.283L489.251 225.717C488.56 225.026 487.44 225.026 486.749 225.717L487.314 226.283ZM481.296 232.301L487.314 226.283L486.749 225.717L480.731 231.735L481.296 232.301ZM481.296 233.672C480.918 233.293 480.918 232.679 481.296 232.301L480.731 231.735C480.04 232.426 480.04 233.547 480.731 234.238L481.296 233.672ZM487.314 239.69L481.296 233.672L480.731 234.238L486.749 240.256L487.314 239.69ZM488.686 239.69C488.307 240.069 487.693 240.069 487.314 239.69L486.749 240.256C487.44 240.947 488.56 240.947 489.251 240.256L488.686 239.69ZM494.704 233.672L488.686 239.69L489.251 240.256L495.269 234.238L494.704 233.672ZM494.704 232.301C495.082 232.679 495.082 233.293 494.704 233.672L495.269 234.238C495.96 233.547 495.96 232.426 495.269 231.735L494.704 232.301Z" fill="#FFE2BF" mask="url(#path-41-inside-4_2722_60026)"/>
</g>
<path d="M488 209L488 0" stroke="#DEBF9A" strokeWidth="0.601124"/>
<path fill-rule="evenodd" clip-rule="evenodd" d="M547.5 76.4176L547.5 80H545.5L545.5 76.4176C544.335 76.0058 543.5 74.8945 543.5 73.5883C543.5 72.2821 544.335 71.1709 545.5 70.759V68H547.5L547.5 70.759C548.665 71.1709 549.5 72.2821 549.5 73.5883C549.5 74.8945 548.665 76.0058 547.5 76.4176Z" fill="#E0A680"/>
<rect width="1.92368" height="1" rx="0.5" transform="matrix(4.54455e-08 -1 -1 -4.20434e-08 547 12)" fill="#DEBF9A"/>
<rect width="1.92368" height="1" rx="0.5" transform="matrix(4.54455e-08 -1 -1 -4.20434e-08 547 9.48096)" fill="#DEBF9A"/>
<rect width="1.92368" height="1" rx="0.5" transform="matrix(4.54455e-08 -1 -1 -4.20434e-08 547 6.96191)" fill="#DEBF9A"/>
<rect width="1.92368" height="1" rx="0.5" transform="matrix(4.54455e-08 -1 -1 -4.20434e-08 547 4.44287)" fill="#DEBF9A"/>
<rect width="1.92368" height="1" rx="0.5" transform="matrix(4.54455e-08 -1 -1 -4.20434e-08 547 1.92383)" fill="#DEBF9A"/>
<rect width="66" height="49" rx="24.5" transform="matrix(-1 0 0 1 579 16)" fill="url(#paint28_linear_2722_60026)"/>
<path fill-rule="evenodd" clip-rule="evenodd" d="M556.462 15.619C556.462 14.1726 555.289 13 553.842 13H538.158C536.711 13 535.538 14.1726 535.538 15.619H556.462ZM555.119 16.9286C568.137 16.9286 578.69 27.4819 578.69 40.5C578.69 53.5182 568.137 64.0715 555.119 64.0715H554.606C564.43 60.744 571.5 51.4477 571.5 40.5001C571.5 29.5523 564.429 20.256 554.605 16.9286H555.119ZM548.326 64.0109C563.38 51.214 563.68 29.7717 548.331 16.9898C547.766 16.9493 547.196 16.9287 546.621 16.9287H546.033C545.803 16.9287 545.574 16.932 545.346 16.9385C544.958 16.9496 544.571 16.9702 544.188 16.9999C528.856 29.7796 529.154 51.2062 544.194 64.0009C544.575 64.0303 544.96 64.0507 545.346 64.0618C545.55 64.0676 545.754 64.0708 545.959 64.0715H546.695C547.243 64.0698 547.787 64.0494 548.326 64.0109ZM550.593 63.7383C564.37 50.7509 564.659 30.2715 550.632 17.2686C561.74 19.1729 570.192 28.8494 570.192 40.5001C570.192 52.1646 561.72 61.8502 550.593 63.7383ZM522.462 40.5001C522.462 52.1119 530.858 61.7627 541.91 63.7123C528.17 50.7324 527.881 30.2906 541.87 17.2951C530.838 19.261 522.462 28.9024 522.462 40.5001ZM538.048 16.9286C528.225 20.256 521.154 29.5523 521.154 40.5001C521.154 51.4477 528.224 60.744 538.048 64.0715H536.881C523.863 64.0715 513.31 53.5182 513.31 40.5C513.31 27.4819 523.863 16.9286 536.881 16.9286H538.048ZM555.119 15.6191C568.86 15.6191 580 26.7586 580 40.5C580 54.2291 568.88 65.3611 555.156 65.381H555.808C555.808 66.8274 554.635 68 553.189 68H540.119C538.673 68 537.5 66.8274 537.5 65.381L536.881 65.381C523.14 65.381 512 54.2414 512 40.5C512 26.7586 523.14 15.6191 536.881 15.6191H555.119Z" fill="url(#paint29_radial_2722_60026)"/>
<path d="M550.194 107.306C550.39 107.11 550.5 106.844 550.5 106.567L550.5 83C550.5 80.7909 548.709 79 546.5 79C544.291 79 542.5 80.7909 542.5 83L542.5 106.567C542.5 106.844 542.61 107.11 542.806 107.306C544.846 109.346 548.154 109.346 550.194 107.306Z" fill="url(#paint30_linear_2722_60026)"/>
<rect width="13" height="1" rx="0.5" transform="matrix(4.36503e-08 -1 -1 -4.37726e-08 549 106)" fill="#FFD0D0"/>
<rect width="13" height="1" rx="0.5" transform="matrix(4.36503e-08 -1 -1 -4.37726e-08 545 106)" fill="#FFD0D0"/>
<rect width="13" height="1" rx="0.5" transform="matrix(4.36503e-08 -1 -1 -4.37726e-08 547 107.071)" fill="#FFD0D0"/>
<mask id="path-56-inside-5_2722_60026" fill="white">
<path fill-rule="evenodd" clip-rule="evenodd" d="M1576 174C1567.16 174 1560 166.837 1560 158C1560 149.163 1567.16 142 1576 142C1584.84 142 1592 149.163 1592 158C1592 166.837 1584.84 174 1576 174ZM1575.89 166.16C1571.45 166.16 1567.84 162.554 1567.84 158.107C1567.84 153.659 1571.45 150.053 1575.89 150.053C1580.34 150.053 1583.95 153.659 1583.95 158.107C1583.95 162.554 1580.34 166.16 1575.89 166.16Z"/>
</mask>
<path fill-rule="evenodd" clip-rule="evenodd" d="M1576 174C1567.16 174 1560 166.837 1560 158C1560 149.163 1567.16 142 1576 142C1584.84 142 1592 149.163 1592 158C1592 166.837 1584.84 174 1576 174ZM1575.89 166.16C1571.45 166.16 1567.84 162.554 1567.84 158.107C1567.84 153.659 1571.45 150.053 1575.89 150.053C1580.34 150.053 1583.95 153.659 1583.95 158.107C1583.95 162.554 1580.34 166.16 1575.89 166.16Z" fill="url(#paint31_linear_2722_60026)"/>
<path d="M1560.46 158C1560.46 166.584 1567.42 173.543 1576 173.543V174.457C1566.91 174.457 1559.54 167.089 1559.54 158H1560.46ZM1576 142.457C1567.42 142.457 1560.46 149.416 1560.46 158H1559.54C1559.54 148.911 1566.91 141.543 1576 141.543V142.457ZM1591.54 158C1591.54 149.416 1584.58 142.457 1576 142.457V141.543C1585.09 141.543 1592.46 148.911 1592.46 158H1591.54ZM1576 173.543C1584.58 173.543 1591.54 166.584 1591.54 158H1592.46C1592.46 167.089 1585.09 174.457 1576 174.457V173.543ZM1568.3 158.107C1568.3 162.302 1571.7 165.703 1575.89 165.703V166.616C1571.19 166.616 1567.38 162.806 1567.38 158.107H1568.3ZM1575.89 150.51C1571.7 150.51 1568.3 153.911 1568.3 158.107H1567.38C1567.38 153.407 1571.19 149.597 1575.89 149.597V150.51ZM1583.49 158.107C1583.49 153.911 1580.09 150.51 1575.89 150.51V149.597C1580.59 149.597 1584.4 153.407 1584.4 158.107H1583.49ZM1575.89 165.703C1580.09 165.703 1583.49 162.302 1583.49 158.107H1584.4C1584.4 162.806 1580.59 166.616 1575.89 166.616V165.703Z" fill="#FFE2BF" mask="url(#path-56-inside-5_2722_60026)"/>
<g filter="url(#filter2_d_2722_60026)">
<mask id="path-58-inside-6_2722_60026" fill="white">
<path fill-rule="evenodd" clip-rule="evenodd" d="M1576 167.823C1570.48 167.823 1566 163.386 1566 157.912C1566 152.438 1570.48 148 1576 148C1581.52 148 1586 152.438 1586 157.912C1586 163.386 1581.52 167.823 1576 167.823ZM1575.03 153.611C1575.56 153.078 1576.44 153.078 1576.97 153.611L1580.33 156.939C1580.87 157.471 1580.87 158.335 1580.33 158.867L1576.97 162.195C1576.44 162.728 1575.56 162.728 1575.03 162.195L1571.67 158.867C1571.13 158.335 1571.13 157.471 1571.67 156.939L1575.03 153.611Z"/>
</mask>
<path fill-rule="evenodd" clip-rule="evenodd" d="M1576 167.823C1570.48 167.823 1566 163.386 1566 157.912C1566 152.438 1570.48 148 1576 148C1581.52 148 1586 152.438 1586 157.912C1586 163.386 1581.52 167.823 1576 167.823ZM1575.03 153.611C1575.56 153.078 1576.44 153.078 1576.97 153.611L1580.33 156.939C1580.87 157.471 1580.87 158.335 1580.33 158.867L1576.97 162.195C1576.44 162.728 1575.56 162.728 1575.03 162.195L1571.67 158.867C1571.13 158.335 1571.13 157.471 1571.67 156.939L1575.03 153.611Z" fill="url(#paint32_linear_2722_60026)"/>
<path d="M1576.97 153.611L1577.25 153.327L1576.97 153.611ZM1575.03 153.611L1574.75 153.327L1575.03 153.611ZM1580.33 156.939L1580.61 156.655L1580.33 156.939ZM1580.33 158.867L1580.05 158.583L1580.33 158.867ZM1576.97 162.195L1577.25 162.479L1576.97 162.195ZM1575.03 162.195L1574.75 162.479L1575.03 162.195ZM1571.67 158.867L1571.95 158.583L1571.67 158.867ZM1571.67 156.939L1571.95 157.223L1571.67 156.939ZM1566.4 157.912C1566.4 163.161 1570.69 167.423 1576 167.423V168.223C1570.26 168.223 1565.6 163.61 1565.6 157.912H1566.4ZM1576 148.4C1570.69 148.4 1566.4 152.662 1566.4 157.912H1565.6C1565.6 152.213 1570.26 147.6 1576 147.6V148.4ZM1585.6 157.912C1585.6 152.662 1581.31 148.4 1576 148.4V147.6C1581.74 147.6 1586.4 152.213 1586.4 157.912H1585.6ZM1576 167.423C1581.31 167.423 1585.6 163.161 1585.6 157.912H1586.4C1586.4 163.61 1581.74 168.223 1576 168.223V167.423ZM1576.69 153.895C1576.31 153.517 1575.69 153.517 1575.31 153.895L1574.75 153.327C1575.44 152.64 1576.56 152.64 1577.25 153.327L1576.69 153.895ZM1580.05 157.223L1576.69 153.895L1577.25 153.327L1580.61 156.655L1580.05 157.223ZM1580.05 158.583C1580.43 158.207 1580.43 157.599 1580.05 157.223L1580.61 156.655C1581.31 157.344 1581.31 158.462 1580.61 159.151L1580.05 158.583ZM1576.69 161.911L1580.05 158.583L1580.61 159.151L1577.25 162.479L1576.69 161.911ZM1575.31 161.911C1575.69 162.289 1576.31 162.289 1576.69 161.911L1577.25 162.479C1576.56 163.166 1575.44 163.166 1574.75 162.479L1575.31 161.911ZM1571.95 158.583L1575.31 161.911L1574.75 162.479L1571.39 159.151L1571.95 158.583ZM1571.95 157.223C1571.57 157.599 1571.57 158.207 1571.95 158.583L1571.39 159.151C1570.69 158.462 1570.69 157.344 1571.39 156.655L1571.95 157.223ZM1575.31 153.895L1571.95 157.223L1571.39 156.655L1574.75 153.327L1575.31 153.895Z" fill="#FFE2BF" mask="url(#path-58-inside-6_2722_60026)"/>
</g>
<path d="M1576 142L1576 0" stroke="#DEBF9A" strokeWidth="0.601124"/>
<path fill-rule="evenodd" clip-rule="evenodd" d="M1510 115.874L1510 121H1508L1508 115.874C1506.27 115.43 1505 113.864 1505 112C1505 110.136 1506.27 108.57 1508 108.126V104H1510L1510 108.126C1511.73 108.57 1513 110.136 1513 112C1513 113.864 1511.73 115.43 1510 115.874Z" fill="#E0A680"/>
<rect width="3" height="2" rx="1" transform="matrix(4.37114e-08 -1 -1 -4.37114e-08 1509 19)" fill="#DEBF9A"/>
<rect width="3" height="2" rx="1" transform="matrix(4.37114e-08 -1 -1 -4.37114e-08 1509 15)" fill="#DEBF9A"/>
<rect width="3" height="2" rx="1" transform="matrix(4.37114e-08 -1 -1 -4.37114e-08 1509 11)" fill="#DEBF9A"/>
<rect width="3" height="2" rx="1" transform="matrix(4.37114e-08 -1 -1 -4.37114e-08 1509 7)" fill="#DEBF9A"/>
<rect width="3" height="2" rx="1" transform="matrix(4.37114e-08 -1 -1 -4.37114e-08 1509 3)" fill="#DEBF9A"/>
<rect width="100" height="72" rx="36" transform="matrix(-1 0 0 1 1558 26)" fill="url(#paint33_linear_2722_60026)"/>
<path fill-rule="evenodd" clip-rule="evenodd" d="M1524 24C1524 21.7909 1522.21 20 1520 20H1496C1493.79 20 1492 21.7909 1492 24H1494C1473.01 24 1456 41.0132 1456 62C1456 82.9868 1473.01 100 1494 100H1495C1495 102.209 1496.79 104 1499 104H1519C1521.21 104 1523 102.209 1523 100H1522C1542.99 100 1560 82.9868 1560 62C1560 41.0132 1542.99 24 1522 24H1524ZM1508 26H1509C1509.86 26 1510.72 26.0303 1511.56 26.0898C1535.04 45.612 1534.58 78.3656 1511.55 97.9108C1510.71 97.9699 1509.86 98 1509 98H1508C1507.07 98 1506.15 97.9649 1505.24 97.8958C1482.23 78.3539 1481.78 45.6239 1505.23 26.1048C1506.15 26.0354 1507.07 26 1508 26ZM1515.01 97.4999C1536.1 77.6621 1536.54 46.3715 1515.07 26.5102C1532.06 29.397 1545 44.1878 1545 62C1545 79.8331 1532.03 94.6376 1515.01 97.4999ZM1472 62C1472 79.7527 1484.85 94.5041 1501.76 97.4605C1480.73 77.634 1480.29 46.4004 1501.69 26.5503C1484.82 29.5314 1472 44.2687 1472 62ZM1495.8 98H1494C1474.12 98 1458 81.8823 1458 62C1458 42.1178 1474.12 26 1494 26H1495.8C1480.8 31.0819 1470 45.2799 1470 62C1470 78.7201 1480.8 92.9181 1495.8 98ZM1522 26H1521.2C1536.2 31.0819 1547 45.2799 1547 62C1547 78.7201 1536.2 92.9181 1521.2 98H1522C1541.88 98 1558 81.8823 1558 62C1558 42.1178 1541.88 26 1522 26Z" fill="url(#paint34_radial_2722_60026)"/>
<path d="M1514.54 162.459C1514.83 162.165 1515 161.766 1515 161.351L1515 126C1515 122.686 1512.31 120 1509 120C1505.69 120 1503 122.686 1503 126L1503 161.351C1503 161.766 1503.17 162.165 1503.46 162.459C1506.52 165.519 1511.48 165.519 1514.54 162.459Z" fill="url(#paint35_linear_2722_60026)"/>
<rect width="20" height="1" rx="0.5" transform="matrix(4.37114e-08 -1 -1 -4.37114e-08 1513 161)" fill="#FFD0D0"/>
<rect width="20" height="1" rx="0.5" transform="matrix(4.37114e-08 -1 -1 -4.37114e-08 1506 161)" fill="#FFD0D0"/>
<rect width="20" height="1" rx="0.5" transform="matrix(4.37114e-08 -1 -1 -4.37114e-08 1509.5 162)" fill="#FFD0D0"/>
<mask id="path-73-inside-7_2722_60026" fill="white">
<path fill-rule="evenodd" clip-rule="evenodd" d="M1432 257C1418.75 257 1408 246.255 1408 233C1408 219.745 1418.75 209 1432 209C1445.25 209 1456 219.745 1456 233C1456 246.255 1445.25 257 1432 257ZM1432 245C1425.37 245 1420 239.627 1420 233C1420 226.373 1425.37 221 1432 221C1438.63 221 1444 226.373 1444 233C1444 239.627 1438.63 245 1432 245Z"/>
</mask>
<path fill-rule="evenodd" clip-rule="evenodd" d="M1432 257C1418.75 257 1408 246.255 1408 233C1408 219.745 1418.75 209 1432 209C1445.25 209 1456 219.745 1456 233C1456 246.255 1445.25 257 1432 257ZM1432 245C1425.37 245 1420 239.627 1420 233C1420 226.373 1425.37 221 1432 221C1438.63 221 1444 226.373 1444 233C1444 239.627 1438.63 245 1432 245Z" fill="url(#paint36_linear_2722_60026)"/>
<path d="M1408.46 233C1408.46 246.003 1419 256.543 1432 256.543V257.457C1418.49 257.457 1407.54 246.507 1407.54 233H1408.46ZM1432 209.457C1419 209.457 1408.46 219.997 1408.46 233H1407.54C1407.54 219.493 1418.49 208.543 1432 208.543V209.457ZM1455.54 233C1455.54 219.997 1445 209.457 1432 209.457V208.543C1445.51 208.543 1456.46 219.493 1456.46 233H1455.54ZM1432 256.543C1445 256.543 1455.54 246.003 1455.54 233H1456.46C1456.46 246.507 1445.51 257.457 1432 257.457V256.543ZM1420.46 233C1420.46 239.375 1425.62 244.543 1432 244.543V245.457C1425.12 245.457 1419.54 239.88 1419.54 233H1420.46ZM1432 221.457C1425.62 221.457 1420.46 226.625 1420.46 233H1419.54C1419.54 226.12 1425.12 220.543 1432 220.543V221.457ZM1443.54 233C1443.54 226.625 1438.38 221.457 1432 221.457V220.543C1438.88 220.543 1444.46 226.12 1444.46 233H1443.54ZM1432 244.543C1438.38 244.543 1443.54 239.375 1443.54 233H1444.46C1444.46 239.88 1438.88 245.457 1432 245.457V244.543Z" fill="#FFE2BF" mask="url(#path-73-inside-7_2722_60026)"/>
<g filter="url(#filter3_d_2722_60026)">
<mask id="path-75-inside-8_2722_60026" fill="white">
<path fill-rule="evenodd" clip-rule="evenodd" d="M1432 248C1423.72 248 1417 241.284 1417 233C1417 224.716 1423.72 218 1432 218C1440.28 218 1447 224.716 1447 233C1447 241.284 1440.28 248 1432 248ZM1425.01 232.018L1431.03 226C1431.57 225.465 1432.43 225.465 1432.97 226L1438.99 232.018C1439.52 232.553 1439.52 233.42 1438.99 233.955L1432.97 239.973C1432.43 240.508 1431.57 240.508 1431.03 239.973L1425.01 233.955C1424.48 233.42 1424.48 232.553 1425.01 232.018Z"/>
</mask>
<path fill-rule="evenodd" clip-rule="evenodd" d="M1432 248C1423.72 248 1417 241.284 1417 233C1417 224.716 1423.72 218 1432 218C1440.28 218 1447 224.716 1447 233C1447 241.284 1440.28 248 1432 248ZM1425.01 232.018L1431.03 226C1431.57 225.465 1432.43 225.465 1432.97 226L1438.99 232.018C1439.52 232.553 1439.52 233.42 1438.99 233.955L1432.97 239.973C1432.43 240.508 1431.57 240.508 1431.03 239.973L1425.01 233.955C1424.48 233.42 1424.48 232.553 1425.01 232.018Z" fill="url(#paint37_linear_2722_60026)"/>
<path d="M1432.97 226L1433.25 225.717L1432.97 226ZM1438.99 232.018L1438.7 232.301L1438.99 232.018ZM1432.97 239.973L1432.69 239.69L1432.97 239.973ZM1431.03 239.973L1431.31 239.69L1431.03 239.973ZM1425.01 233.955L1424.73 234.238V234.238L1425.01 233.955ZM1417.4 233C1417.4 241.063 1423.94 247.6 1432 247.6V248.4C1423.49 248.4 1416.6 241.505 1416.6 233H1417.4ZM1432 218.4C1423.94 218.4 1417.4 224.937 1417.4 233H1416.6C1416.6 224.495 1423.49 217.6 1432 217.6V218.4ZM1446.6 233C1446.6 224.937 1440.06 218.4 1432 218.4V217.6C1440.51 217.6 1447.4 224.495 1447.4 233H1446.6ZM1432 247.6C1440.06 247.6 1446.6 241.063 1446.6 233H1447.4C1447.4 241.505 1440.51 248.4 1432 248.4V247.6ZM1431.31 226.283L1425.3 232.301L1424.73 231.735L1430.75 225.717L1431.31 226.283ZM1432.69 226.283C1432.31 225.904 1431.69 225.904 1431.31 226.283L1430.75 225.717C1431.44 225.026 1432.56 225.026 1433.25 225.717L1432.69 226.283ZM1438.7 232.301L1432.69 226.283L1433.25 225.717L1439.27 231.735L1438.7 232.301ZM1438.7 233.672C1439.08 233.293 1439.08 232.679 1438.7 232.301L1439.27 231.735C1439.96 232.426 1439.96 233.547 1439.27 234.238L1438.7 233.672ZM1432.69 239.69L1438.7 233.672L1439.27 234.238L1433.25 240.256L1432.69 239.69ZM1431.31 239.69C1431.69 240.069 1432.31 240.069 1432.69 239.69L1433.25 240.256C1432.56 240.947 1431.44 240.947 1430.75 240.256L1431.31 239.69ZM1425.3 233.672L1431.31 239.69L1430.75 240.256L1424.73 234.238L1425.3 233.672ZM1425.3 232.301C1424.92 232.679 1424.92 233.293 1425.3 233.672L1424.73 234.238C1424.04 233.547 1424.04 232.426 1424.73 231.735L1425.3 232.301Z" fill="#FFE2BF" mask="url(#path-75-inside-8_2722_60026)"/>
</g>
<path d="M1432 209L1432 0" stroke="#DEBF9A" strokeWidth="0.601124"/>
<path fill-rule="evenodd" clip-rule="evenodd" d="M1372.5 76.4176L1372.5 80H1374.5L1374.5 76.4176C1375.67 76.0058 1376.5 74.8945 1376.5 73.5883C1376.5 72.2821 1375.67 71.1709 1374.5 70.759V68H1372.5L1372.5 70.759C1371.33 71.1709 1370.5 72.2821 1370.5 73.5883C1370.5 74.8945 1371.33 76.0058 1372.5 76.4176Z" fill="#E0A680"/>
<rect x="1373" y="12" width="1.92368" height="1" rx="0.5" transform="rotate(-90 1373 12)" fill="#DEBF9A"/>
<rect x="1373" y="9.48096" width="1.92368" height="1" rx="0.5" transform="rotate(-90 1373 9.48096)" fill="#DEBF9A"/>
<rect x="1373" y="6.96191" width="1.92368" height="1" rx="0.5" transform="rotate(-90 1373 6.96191)" fill="#DEBF9A"/>
<rect x="1373" y="4.44287" width="1.92368" height="1" rx="0.5" transform="rotate(-90 1373 4.44287)" fill="#DEBF9A"/>
<rect x="1373" y="1.92383" width="1.92368" height="1" rx="0.5" transform="rotate(-90 1373 1.92383)" fill="#DEBF9A"/>
<rect x="1341" y="16" width="66" height="49" rx="24.5" fill="url(#paint38_linear_2722_60026)"/>
<path fill-rule="evenodd" clip-rule="evenodd" d="M1363.54 15.619C1363.54 14.1726 1364.71 13 1366.16 13H1381.84C1383.29 13 1384.46 14.1726 1384.46 15.619H1363.54ZM1364.88 16.9286C1351.86 16.9286 1341.31 27.4819 1341.31 40.5C1341.31 53.5182 1351.86 64.0715 1364.88 64.0715H1365.39C1355.57 60.744 1348.5 51.4477 1348.5 40.5001C1348.5 29.5523 1355.57 20.256 1365.39 16.9286H1364.88ZM1371.67 64.0109C1356.62 51.214 1356.32 29.7717 1371.67 16.9898C1372.23 16.9493 1372.8 16.9287 1373.38 16.9287H1373.97C1374.2 16.9287 1374.43 16.932 1374.65 16.9385C1375.04 16.9496 1375.43 16.9702 1375.81 16.9999C1391.14 29.7796 1390.85 51.2062 1375.81 64.0009C1375.42 64.0303 1375.04 64.0507 1374.65 64.0618C1374.45 64.0676 1374.25 64.0708 1374.04 64.0715H1373.3C1372.76 64.0698 1372.21 64.0494 1371.67 64.0109ZM1369.41 63.7383C1355.63 50.7509 1355.34 30.2715 1369.37 17.2686C1358.26 19.1729 1349.81 28.8494 1349.81 40.5001C1349.81 52.1646 1358.28 61.8502 1369.41 63.7383ZM1397.54 40.5001C1397.54 52.1119 1389.14 61.7627 1378.09 63.7123C1391.83 50.7324 1392.12 30.2906 1378.13 17.2951C1389.16 19.261 1397.54 28.9024 1397.54 40.5001ZM1381.95 16.9286C1391.78 20.256 1398.85 29.5523 1398.85 40.5001C1398.85 51.4477 1391.78 60.744 1381.95 64.0715H1383.12C1396.14 64.0715 1406.69 53.5182 1406.69 40.5C1406.69 27.4819 1396.14 16.9286 1383.12 16.9286H1381.95ZM1364.88 15.6191C1351.14 15.6191 1340 26.7586 1340 40.5C1340 54.2291 1351.12 65.3611 1364.84 65.381H1364.19C1364.19 66.8274 1365.36 68 1366.81 68H1379.88C1381.33 68 1382.5 66.8274 1382.5 65.381L1383.12 65.381C1396.86 65.381 1408 54.2414 1408 40.5C1408 26.7586 1396.86 15.6191 1383.12 15.6191H1364.88Z" fill="url(#paint39_radial_2722_60026)"/>
<path d="M1369.81 107.306C1369.61 107.11 1369.5 106.844 1369.5 106.567L1369.5 83C1369.5 80.7909 1371.29 79 1373.5 79C1375.71 79 1377.5 80.7909 1377.5 83L1377.5 106.567C1377.5 106.844 1377.39 107.11 1377.19 107.306C1375.15 109.346 1371.85 109.346 1369.81 107.306Z" fill="url(#paint40_linear_2722_60026)"/>
<rect x="1371" y="106" width="13" height="1" rx="0.5" transform="rotate(-90 1371 106)" fill="#FFD0D0"/>
<rect x="1375" y="106" width="13" height="1" rx="0.5" transform="rotate(-90 1375 106)" fill="#FFD0D0"/>
<rect x="1373" y="107.071" width="13" height="1" rx="0.5" transform="rotate(-90 1373 107.071)" fill="#FFD0D0"/>
<path d="M1321.97 308.591L1313.03 315.954L1318.19 327.932L1323.35 339.909L1358.03 420.408L1330.48 334.992L1326.23 321.792L1321.97 308.591Z" fill="#F3A5A5"/>
<path d="M1323.35 339.909L1318.19 327.931L1326.23 321.792L1330.48 334.992L1323.35 339.909Z" fill="#F7E0C5"/>
<path d="M1323.35 339.909L1318.19 327.931L1326.23 321.792L1330.48 334.992L1323.35 339.909Z" fill="#F7E0C5"/>
<path d="M1313.03 315.954L1300.66 318.052L1307.18 329.685L1313.7 341.317L1358.03 420.409L1323.35 339.91L1318.19 327.932L1313.03 315.954Z" fill="#DC8484"/>
<path d="M1313.7 341.316L1307.18 329.684L1318.19 327.932L1323.35 339.909L1313.7 341.316Z" fill="#E8BD87"/>
<path d="M1300.66 318.052L1293.51 326.832L1300.43 336.864L1307.34 346.896L1358.03 420.409L1313.7 341.317L1307.18 329.685L1300.66 318.052Z" fill="#F3A5A5"/>
<path d="M1307.34 346.896L1300.43 336.864L1307.18 329.684L1313.7 341.316L1307.34 346.896Z" fill="#F7E0C5"/>
<path d="M1307.34 346.896L1300.43 336.864L1307.18 329.684L1313.7 341.316L1307.34 346.896Z" fill="#F7E0C5"/>
<path d="M1293.51 326.831L1282.29 330.419L1290.39 340.044L1298.49 349.67L1358.03 420.408L1307.34 346.895L1300.43 336.863L1293.51 326.831Z" fill="#DC8484"/>
<path d="M1298.49 349.671L1290.39 340.045L1300.43 336.864L1307.34 346.896L1298.49 349.671Z" fill="#E8BD87"/>
<path d="M1282.29 330.419L1276.68 340.292L1284.97 348.451L1293.25 356.609L1358.03 420.408L1298.49 349.67L1290.39 340.044L1282.29 330.419Z" fill="#F3A5A5"/>
<path d="M1293.25 356.609L1284.97 348.451L1290.39 340.044L1298.49 349.67L1293.25 356.609Z" fill="#F7E0C5"/>
<path d="M1293.25 356.609L1284.97 348.451L1290.39 340.044L1298.49 349.67L1293.25 356.609Z" fill="#F7E0C5"/>
<path d="M1276.68 340.293L1266.6 346.167L1276.11 353.886L1285.61 361.606L1358.03 420.408L1293.25 356.609L1284.97 348.451L1276.68 340.293Z" fill="#DC8484"/>
<path d="M1285.61 361.605L1276.11 353.886L1284.97 348.451L1293.25 356.609L1285.61 361.605Z" fill="#E8BD87"/>
<path d="M1266.6 346.166L1263.19 357.461L1272.09 363.372L1281 369.283L1358.03 420.408L1285.61 361.605L1276.11 353.886L1266.6 346.166Z" fill="#F3A5A5"/>
<path d="M1281 369.283L1272.09 363.372L1276.11 353.886L1285.61 361.606L1281 369.283Z" fill="#F7E0C5"/>
<path d="M1281 369.283L1272.09 363.372L1276.11 353.886L1285.61 361.606L1281 369.283Z" fill="#F7E0C5"/>
<path d="M1263.19 357.461L1254.24 365.223L1264.13 370.483L1274.98 376.249L1358.03 420.408L1281 369.283L1272.09 363.372L1263.19 357.461Z" fill="#DC8484"/>
<path d="M1274.98 376.25L1264.13 370.484L1272.09 363.372L1281 369.283L1274.98 376.25Z" fill="#E8BD87"/>
<path d="M1254.24 365.223L1252.79 376.42L1262.17 380.342L1273.22 384.958L1358.03 420.408L1274.98 376.249L1264.13 370.483L1254.24 365.223Z" fill="#F3A5A5"/>
<path d="M1273.22 384.957L1262.17 380.341L1264.13 370.483L1274.98 376.249L1273.22 384.957Z" fill="#F7E0C5"/>
<path d="M1273.22 384.957L1262.17 380.341L1264.13 370.483L1274.98 376.249L1273.22 384.957Z" fill="#F7E0C5"/>
<path d="M1252.79 376.421L1246.03 386.401L1256.62 389.617L1268.65 393.27L1358.03 420.408L1273.22 384.958L1262.18 380.342L1252.79 376.421Z" fill="#DC8484"/>
<path d="M1268.65 393.271L1256.62 389.617L1262.17 380.342L1273.22 384.958L1268.65 393.271Z" fill="#E8BD87"/>
<path d="M1246.03 386.401L1247.19 397.427L1257.8 399.627L1269.15 401.981L1358.03 420.408L1268.65 393.27L1256.62 389.616L1246.03 386.401Z" fill="#F3A5A5"/>
<path d="M1269.15 401.981L1257.8 399.627L1256.62 389.617L1268.65 393.27L1269.15 401.981Z" fill="#F7E0C5"/>
<path d="M1269.15 401.981L1257.8 399.627L1256.62 389.617L1268.65 393.27L1269.15 401.981Z" fill="#F7E0C5"/>
<path d="M1247.19 397.427L1241.04 406.435L1252.16 407.763L1264.1 409.189L1358.03 420.408L1269.15 401.981L1257.8 399.627L1247.19 397.427Z" fill="#DC8484"/>
<path d="M1252.16 407.763L1257.8 399.627L1269.15 401.981L1264.1 409.189L1252.16 407.763Z" fill="#E8BD87"/>
<path d="M1321.97 308.591L1333.54 309.397L1336.35 322.126L1339.16 334.856L1358.03 420.408L1330.48 334.992L1326.23 321.792L1321.97 308.591Z" fill="#DC8484"/>
<path d="M1339.16 334.856L1336.35 322.126L1326.23 321.792L1330.48 334.992L1339.16 334.856Z" fill="#E8BD87"/>
<path d="M1333.54 309.397L1344.83 303.936L1346.33 317.172L1347.83 330.408L1358.03 420.409L1339.16 334.856L1336.35 322.127L1333.54 309.397Z" fill="#F3A5A5"/>
<path d="M1347.83 330.408L1346.33 317.172L1336.35 322.127L1339.16 334.856L1347.83 330.408Z" fill="#F7E0C5"/>
<path d="M1347.83 330.408L1346.33 317.172L1336.35 322.127L1339.16 334.856L1347.83 330.408Z" fill="#F7E0C5"/>
<path d="M1344.83 303.936L1355.78 306.93L1356.02 319.095L1356.26 331.261L1358.03 420.409L1347.83 330.408L1346.33 317.172L1344.83 303.936Z" fill="#DC8484"/>
<path d="M1356.26 331.26L1356.02 319.095L1346.33 317.172L1347.83 330.408L1356.26 331.26Z" fill="#E8BD87"/>
<path d="M1355.78 306.929L1367 303.342L1366.04 315.864L1365.08 328.386L1358.03 420.408L1356.26 331.26L1356.02 319.095L1355.78 306.929Z" fill="#F3A5A5"/>
<path d="M1365.08 328.386L1366.04 315.864L1356.02 319.095L1356.26 331.26L1365.08 328.386Z" fill="#F7E0C5"/>
<path d="M1365.08 328.386L1366.04 315.864L1356.02 319.095L1356.26 331.26L1365.08 328.386Z" fill="#F7E0C5"/>
<path d="M1367 303.342L1377.33 308.125L1375.36 319.559L1373.4 330.993L1358.03 420.408L1365.08 328.386L1366.04 315.864L1367 303.342Z" fill="#DC8484"/>
<path d="M1373.4 330.993L1375.36 319.559L1366.04 315.864L1365.08 328.386L1373.4 330.993Z" fill="#E8BD87"/>
<path d="M1377.33 308.125L1388.96 307.056L1385.75 318.843L1382.53 330.629L1358.03 420.408L1373.4 330.993L1375.36 319.559L1377.33 308.125Z" fill="#F3A5A5"/>
<path d="M1382.53 330.628L1385.75 318.842L1375.36 319.559L1373.4 330.993L1382.53 330.628Z" fill="#F7E0C5"/>
<path d="M1382.53 330.628L1385.75 318.842L1375.36 319.559L1373.4 330.993L1382.53 330.628Z" fill="#F7E0C5"/>
<path d="M1388.96 307.056L1398.34 314.263L1394.56 324.23L1390.77 334.197L1358.03 420.408L1382.53 330.628L1385.75 318.842L1388.96 307.056Z" fill="#DC8484"/>
<path d="M1390.77 334.197L1394.56 324.23L1385.75 318.843L1382.53 330.629L1390.77 334.197Z" fill="#E8BD87"/>
<path d="M1398.34 314.263L1410.16 315.391L1405.19 325.4L1399.74 336.373L1358.03 420.408L1390.77 334.197L1394.56 324.23L1398.34 314.263Z" fill="#F3A5A5"/>
<path d="M1399.74 336.373L1405.19 325.401L1394.56 324.23L1390.77 334.197L1399.74 336.373Z" fill="#F7E0C5"/>
<path d="M1399.74 336.373L1405.19 325.401L1394.56 324.23L1390.77 334.197L1399.74 336.373Z" fill="#F7E0C5"/>
<path d="M1410.16 315.391L1417.88 323.656L1412.54 332.281L1406.26 342.434L1358.03 420.408L1399.74 336.373L1405.19 325.4L1410.16 315.391Z" fill="#DC8484"/>
<path d="M1406.26 342.434L1412.54 332.281L1405.19 325.4L1399.74 336.373L1406.26 342.434Z" fill="#E8BD87"/>
<path d="M1417.88 323.657L1429.22 327.852L1422.48 336.604L1414.84 346.547L1358.03 420.408L1406.26 342.435L1412.54 332.281L1417.88 323.657Z" fill="#F3A5A5"/>
<path d="M1414.84 346.547L1422.48 336.604L1412.54 332.282L1406.26 342.435L1414.84 346.547Z" fill="#F7E0C5"/>
<path d="M1414.84 346.547L1422.48 336.604L1412.54 332.282L1406.26 342.435L1414.84 346.547Z" fill="#F7E0C5"/>
<path d="M1429.22 327.851L1434.72 337.489L1427.38 345.427L1419.52 353.92L1358.03 420.408L1414.84 346.546L1422.48 336.603L1429.22 327.851Z" fill="#DC8484"/>
<path d="M1419.52 353.921L1427.38 345.428L1422.48 336.604L1414.84 346.547L1419.52 353.921Z" fill="#E8BD87"/>
<path d="M1434.72 337.489L1444.98 341.252L1436.72 348.777L1427.84 356.855L1358.03 420.408L1419.52 353.921L1427.38 345.427L1434.72 337.489Z" fill="#F3A5A5"/>
<path d="M1436.72 348.777L1427.38 345.427L1419.52 353.921L1427.84 356.855L1436.72 348.777Z" fill="#F7E0C5"/>
<path d="M1436.72 348.777L1427.38 345.427L1419.52 353.921L1427.84 356.855L1436.72 348.777Z" fill="#F7E0C5"/>
<path fill-rule="evenodd" clip-rule="evenodd" d="M1361.1 430.035C1354.83 430.035 1349.75 424.973 1349.75 418.729C1349.75 412.484 1354.83 407.422 1361.1 407.422C1367.38 407.422 1372.46 412.484 1372.46 418.729C1372.46 424.973 1367.38 430.035 1361.1 430.035ZM1361.1 424.382C1357.97 424.382 1355.42 421.851 1355.42 418.729C1355.42 415.607 1357.97 413.075 1361.1 413.075C1364.24 413.075 1366.78 415.607 1366.78 418.729C1366.78 421.851 1364.24 424.382 1361.1 424.382Z" fill="url(#paint41_linear_2722_60026)"/>
<g filter="url(#filter4_d_2722_60026)">
<path d="M1354.11 418.729C1354.11 422.571 1357.24 425.687 1361.1 425.687C1364.96 425.687 1368.09 422.571 1368.09 418.729C1368.09 414.886 1364.96 411.771 1361.1 411.771C1357.24 411.771 1354.11 414.886 1354.11 418.729Z" fill="url(#paint42_radial_2722_60026)"/>
</g>
<path d="M598.03 308.591L606.97 315.954L601.81 327.932L596.65 339.91L561.97 420.409L589.515 334.993L593.772 321.792L598.03 308.591Z" fill="#F3A5A5"/>
<path d="M596.65 339.909L601.81 327.932L593.772 321.792L589.515 334.993L596.65 339.909Z" fill="#F7E0C5"/>
<path d="M596.65 339.909L601.81 327.932L593.772 321.792L589.515 334.993L596.65 339.909Z" fill="#F7E0C5"/>
<path d="M606.97 315.955L619.338 318.053L612.819 329.685L606.299 341.317L561.969 420.409L596.65 339.91L601.81 327.932L606.97 315.955Z" fill="#DC8484"/>
<path d="M606.299 341.317L612.819 329.685L601.81 327.932L596.65 339.91L606.299 341.317Z" fill="#E8BD87"/>
<path d="M619.338 318.053L626.491 326.833L619.574 336.864L612.657 346.896L561.969 420.409L606.299 341.317L612.819 329.685L619.338 318.053Z" fill="#F3A5A5"/>
<path d="M612.657 346.896L619.574 336.864L612.819 329.685L606.299 341.317L612.657 346.896Z" fill="#F7E0C5"/>
<path d="M612.657 346.896L619.574 336.864L612.819 329.685L606.299 341.317L612.657 346.896Z" fill="#F7E0C5"/>
<path d="M626.491 326.832L637.714 330.419L629.612 340.045L621.51 349.67L561.969 420.408L612.657 346.896L619.574 336.864L626.491 326.832Z" fill="#DC8484"/>
<path d="M621.51 349.671L629.612 340.045L619.574 336.865L612.657 346.896L621.51 349.671Z" fill="#E8BD87"/>
<path d="M637.714 330.419L643.315 340.293L635.031 348.451L626.748 356.609L561.969 420.408L621.51 349.67L629.612 340.045L637.714 330.419Z" fill="#F3A5A5"/>
<path d="M626.748 356.61L635.031 348.451L629.612 340.045L621.51 349.67L626.748 356.61Z" fill="#F7E0C5"/>
<path d="M626.748 356.61L635.031 348.451L629.612 340.045L621.51 349.67L626.748 356.61Z" fill="#F7E0C5"/>
<path d="M643.315 340.293L653.401 346.167L643.894 353.887L634.387 361.606L561.97 420.409L626.748 356.61L635.032 348.451L643.315 340.293Z" fill="#DC8484"/>
<path d="M634.387 361.606L643.894 353.886L635.032 348.451L626.748 356.61L634.387 361.606Z" fill="#E8BD87"/>
<path d="M653.401 346.167L656.814 357.462L647.908 363.373L639.002 369.283L561.969 420.409L634.387 361.606L643.894 353.886L653.401 346.167Z" fill="#F3A5A5"/>
<path d="M639.001 369.284L647.908 363.373L643.894 353.887L634.387 361.606L639.001 369.284Z" fill="#F7E0C5"/>
<path d="M639.001 369.284L647.908 363.373L643.894 353.887L634.387 361.606L639.001 369.284Z" fill="#F7E0C5"/>
<path d="M656.814 357.462L665.758 365.224L655.866 370.484L645.021 376.25L561.97 420.408L639.002 369.283L647.908 363.372L656.814 357.462Z" fill="#DC8484"/>
<path d="M645.021 376.25L655.866 370.484L647.908 363.373L639.002 369.284L645.021 376.25Z" fill="#E8BD87"/>
<path d="M665.758 365.224L667.206 376.421L657.825 380.342L646.781 384.958L561.97 420.409L645.021 376.25L655.866 370.484L665.758 365.224Z" fill="#F3A5A5"/>
<path d="M646.781 384.958L657.825 380.342L655.866 370.483L645.021 376.249L646.781 384.958Z" fill="#F7E0C5"/>
<path d="M646.781 384.958L657.825 380.342L655.866 370.483L645.021 376.249L646.781 384.958Z" fill="#F7E0C5"/>
<path d="M667.206 376.421L673.971 386.402L663.38 389.618L651.348 393.271L561.969 420.409L646.781 384.958L657.825 380.342L667.206 376.421Z" fill="#DC8484"/>
<path d="M651.348 393.271L663.38 389.618L657.825 380.343L646.781 384.959L651.348 393.271Z" fill="#E8BD87"/>
<path d="M673.971 386.401L672.811 397.427L662.199 399.627L650.846 401.981L561.969 420.408L651.348 393.27L663.38 389.617L673.971 386.401Z" fill="#F3A5A5"/>
<path d="M650.846 401.982L662.199 399.628L663.38 389.617L651.348 393.271L650.846 401.982Z" fill="#F7E0C5"/>
<path d="M650.846 401.982L662.199 399.628L663.38 389.617L651.348 393.271L650.846 401.982Z" fill="#F7E0C5"/>
<path d="M672.811 397.428L678.956 406.435L667.836 407.763L655.897 409.189L561.97 420.409L650.846 401.982L662.199 399.628L672.811 397.428Z" fill="#DC8484"/>
<path d="M667.835 407.763L662.199 399.628L650.846 401.982L655.897 409.19L667.835 407.763Z" fill="#E8BD87"/>
<path d="M598.03 308.591L586.455 309.398L583.647 322.127L580.839 334.856L561.97 420.409L589.515 334.993L593.772 321.792L598.03 308.591Z" fill="#DC8484"/>
<path d="M580.839 334.856L583.647 322.127L593.772 321.792L589.515 334.993L580.839 334.856Z" fill="#E8BD87"/>
<path d="M586.455 309.398L575.171 303.936L573.671 317.173L572.17 330.409L561.969 420.409L580.839 334.857L583.647 322.127L586.455 309.398Z" fill="#F3A5A5"/>
<path d="M572.17 330.409L573.671 317.172L583.647 322.127L580.839 334.856L572.17 330.409Z" fill="#F7E0C5"/>
<path d="M572.17 330.409L573.671 317.172L583.647 322.127L580.839 334.856L572.17 330.409Z" fill="#F7E0C5"/>
<path d="M575.171 303.936L564.222 306.93L563.98 319.096L563.739 331.261L561.969 420.409L572.17 330.409L573.671 317.173L575.171 303.936Z" fill="#DC8484"/>
<path d="M563.739 331.261L563.98 319.095L573.671 317.172L572.17 330.408L563.739 331.261Z" fill="#E8BD87"/>
<path d="M564.222 306.93L552.999 303.343L553.958 315.865L554.918 328.386L561.969 420.408L563.739 331.261L563.98 319.095L564.222 306.93Z" fill="#F3A5A5"/>
<path d="M554.918 328.387L553.958 315.865L563.98 319.096L563.739 331.261L554.918 328.387Z" fill="#F7E0C5"/>
<path d="M552.999 303.343L542.671 308.125L544.636 319.559L546.601 330.993L561.969 420.408L554.918 328.386L553.958 315.865L552.999 303.343Z" fill="#DC8484"/>
<path d="M546.601 330.994L544.636 319.56L553.958 315.865L554.918 328.387L546.601 330.994Z" fill="#E8BD87"/>
<path d="M542.671 308.126L531.035 307.057L534.252 318.843L537.468 330.629L561.97 420.409L546.601 330.994L544.636 319.56L542.671 308.126Z" fill="#F3A5A5"/>
<path d="M537.468 330.629L534.252 318.843L544.636 319.56L546.601 330.994L537.468 330.629Z" fill="#F7E0C5"/>
<path d="M537.468 330.629L534.252 318.843L544.636 319.56L546.601 330.994L537.468 330.629Z" fill="#F7E0C5"/>
<path d="M531.035 307.057L521.656 314.263L525.441 324.23L529.227 334.198L561.969 420.409L537.468 330.629L534.252 318.843L531.035 307.057Z" fill="#DC8484"/>
<path d="M529.227 334.198L525.441 324.231L534.251 318.843L537.468 330.629L529.227 334.198Z" fill="#E8BD87"/>
<path d="M521.656 314.263L509.844 315.392L514.813 325.401L520.259 336.374L561.97 420.409L529.227 334.198L525.442 324.231L521.656 314.263Z" fill="#F3A5A5"/>
<path d="M520.259 336.374L514.812 325.401L525.441 324.231L529.227 334.198L520.259 336.374Z" fill="#F7E0C5"/>
<path d="M520.259 336.374L514.812 325.401L525.441 324.231L529.227 334.198L520.259 336.374Z" fill="#F7E0C5"/>
<path d="M509.844 315.391L502.12 323.657L507.456 332.282L513.736 342.435L561.97 420.409L520.259 336.374L514.813 325.401L509.844 315.391Z" fill="#DC8484"/>
<path d="M513.736 342.434L507.456 332.281L514.813 325.4L520.259 336.373L513.736 342.434Z" fill="#E8BD87"/>
<path d="M502.12 323.657L490.784 327.852L497.515 336.604L505.162 346.547L561.969 420.409L513.736 342.435L507.455 332.282L502.12 323.657Z" fill="#F3A5A5"/>
<path d="M505.162 346.547L497.515 336.604L507.455 332.282L513.736 342.435L505.162 346.547Z" fill="#F7E0C5"/>
<path d="M505.162 346.547L497.515 336.604L507.455 332.282L513.736 342.435L505.162 346.547Z" fill="#F7E0C5"/>
<path d="M490.784 327.852L485.28 337.489L492.622 345.428L500.477 353.921L561.969 420.408L505.162 346.547L497.515 336.604L490.784 327.852Z" fill="#DC8484"/>
<path d="M500.477 353.922L492.622 345.429L497.515 336.605L505.162 346.547L500.477 353.922Z" fill="#E8BD87"/>
<path d="M485.28 337.489L475.016 341.253L483.282 348.777L492.156 356.855L561.97 420.409L500.477 353.921L492.622 345.428L485.28 337.489Z" fill="#F3A5A5"/>
<path d="M483.282 348.777L492.622 345.428L500.477 353.921L492.156 356.855L483.282 348.777Z" fill="#F7E0C5"/>
<path d="M483.282 348.777L492.622 345.428L500.477 353.921L492.156 356.855L483.282 348.777Z" fill="#F7E0C5"/>
<path fill-rule="evenodd" clip-rule="evenodd" d="M558.897 430.035C565.169 430.035 570.254 424.973 570.254 418.729C570.254 412.484 565.169 407.422 558.897 407.422C552.624 407.422 547.539 412.484 547.539 418.729C547.539 424.973 552.624 430.035 558.897 430.035ZM558.897 424.382C562.033 424.382 564.575 421.851 564.575 418.729C564.575 415.607 562.033 413.075 558.897 413.075C555.76 413.075 553.218 415.607 553.218 418.729C553.218 421.851 555.76 424.382 558.897 424.382Z" fill="url(#paint43_linear_2722_60026)"/>
<g filter="url(#filter5_d_2722_60026)">
<path d="M565.886 418.729C565.886 422.571 562.757 425.687 558.897 425.687C555.036 425.687 551.907 422.571 551.907 418.729C551.907 414.886 555.036 411.771 558.897 411.771C562.757 411.771 565.886 414.886 565.886 418.729Z" fill="url(#paint44_radial_2722_60026)"/>
</g>
</g>
<defs>
<filter id="filter0_d_2722_60026" x="331.261" y="147.087" width="25.4788" height="25.3021" filterUnits="userSpaceOnUse" color-interpolation-filters="sRGB">
<feFlood flood-opacity="0" result="BackgroundImageFix"/>
<feColorMatrix in="SourceAlpha" type="matrix" values="0 0 0 0 0 0 0 0 0 0 0 0 0 0 0 0 0 0 127 0" result="hardAlpha"/>
<feOffset dy="1.82627"/>
<feGaussianBlur stdDeviation="1.36971"/>
<feComposite in2="hardAlpha" operator="out"/>
<feColorMatrix type="matrix" values="0 0 0 0 0 0 0 0 0 0 0 0 0 0 0 0 0 0 0.12 0"/>
<feBlend mode="normal" in2="BackgroundImageFix" result="effect1_dropShadow_2722_60026"/>
<feBlend mode="normal" in="SourceGraphic" in2="effect1_dropShadow_2722_60026" result="shape"/>
</filter>
<filter id="filter1_d_2722_60026" x="470.261" y="217.087" width="35.4788" height="35.4788" filterUnits="userSpaceOnUse" color-interpolation-filters="sRGB">
<feFlood flood-opacity="0" result="BackgroundImageFix"/>
<feColorMatrix in="SourceAlpha" type="matrix" values="0 0 0 0 0 0 0 0 0 0 0 0 0 0 0 0 0 0 127 0" result="hardAlpha"/>
<feOffset dy="1.82627"/>
<feGaussianBlur stdDeviation="1.36971"/>
<feComposite in2="hardAlpha" operator="out"/>
<feColorMatrix type="matrix" values="0 0 0 0 0 0 0 0 0 0 0 0 0 0 0 0 0 0 0.12 0"/>
<feBlend mode="normal" in2="BackgroundImageFix" result="effect1_dropShadow_2722_60026"/>
<feBlend mode="normal" in="SourceGraphic" in2="effect1_dropShadow_2722_60026" result="shape"/>
</filter>
<filter id="filter2_d_2722_60026" x="1563.26" y="147.087" width="25.4788" height="25.3021" filterUnits="userSpaceOnUse" color-interpolation-filters="sRGB">
<feFlood flood-opacity="0" result="BackgroundImageFix"/>
<feColorMatrix in="SourceAlpha" type="matrix" values="0 0 0 0 0 0 0 0 0 0 0 0 0 0 0 0 0 0 127 0" result="hardAlpha"/>
<feOffset dy="1.82627"/>
<feGaussianBlur stdDeviation="1.36971"/>
<feComposite in2="hardAlpha" operator="out"/>
<feColorMatrix type="matrix" values="0 0 0 0 0 0 0 0 0 0 0 0 0 0 0 0 0 0 0.12 0"/>
<feBlend mode="normal" in2="BackgroundImageFix" result="effect1_dropShadow_2722_60026"/>
<feBlend mode="normal" in="SourceGraphic" in2="effect1_dropShadow_2722_60026" result="shape"/>
</filter>
<filter id="filter3_d_2722_60026" x="1414.26" y="217.087" width="35.4788" height="35.4788" filterUnits="userSpaceOnUse" color-interpolation-filters="sRGB">
<feFlood flood-opacity="0" result="BackgroundImageFix"/>
<feColorMatrix in="SourceAlpha" type="matrix" values="0 0 0 0 0 0 0 0 0 0 0 0 0 0 0 0 0 0 127 0" result="hardAlpha"/>
<feOffset dy="1.82627"/>
<feGaussianBlur stdDeviation="1.36971"/>
<feComposite in2="hardAlpha" operator="out"/>
<feColorMatrix type="matrix" values="0 0 0 0 0 0 0 0 0 0 0 0 0 0 0 0 0 0 0.12 0"/>
<feBlend mode="normal" in2="BackgroundImageFix" result="effect1_dropShadow_2722_60026"/>
<feBlend mode="normal" in="SourceGraphic" in2="effect1_dropShadow_2722_60026" result="shape"/>
</filter>
<filter id="filter4_d_2722_60026" x="1351.37" y="410.857" width="19.4573" height="19.3948" filterUnits="userSpaceOnUse" color-interpolation-filters="sRGB">
<feFlood flood-opacity="0" result="BackgroundImageFix"/>
<feColorMatrix in="SourceAlpha" type="matrix" values="0 0 0 0 0 0 0 0 0 0 0 0 0 0 0 0 0 0 127 0" result="hardAlpha"/>
<feOffset dy="1.82627"/>
<feGaussianBlur stdDeviation="1.36971"/>
<feComposite in2="hardAlpha" operator="out"/>
<feColorMatrix type="matrix" values="0 0 0 0 0 0 0 0 0 0 0 0 0 0 0 0 0 0 0.12 0"/>
<feBlend mode="normal" in2="BackgroundImageFix" result="effect1_dropShadow_2722_60026"/>
<feBlend mode="normal" in="SourceGraphic" in2="effect1_dropShadow_2722_60026" result="shape"/>
</filter>
<filter id="filter5_d_2722_60026" x="549.168" y="410.857" width="19.4573" height="19.3948" filterUnits="userSpaceOnUse" color-interpolation-filters="sRGB">
<feFlood flood-opacity="0" result="BackgroundImageFix"/>
<feColorMatrix in="SourceAlpha" type="matrix" values="0 0 0 0 0 0 0 0 0 0 0 0 0 0 0 0 0 0 127 0" result="hardAlpha"/>
<feOffset dy="1.82627"/>
<feGaussianBlur stdDeviation="1.36971"/>
<feComposite in2="hardAlpha" operator="out"/>
<feColorMatrix type="matrix" values="0 0 0 0 0 0 0 0 0 0 0 0 0 0 0 0 0 0 0.12 0"/>
<feBlend mode="normal" in2="BackgroundImageFix" result="effect1_dropShadow_2722_60026"/>
<feBlend mode="normal" in="SourceGraphic" in2="effect1_dropShadow_2722_60026" result="shape"/>
</filter>
<radialGradient id="paint0_radial_2722_60026" cx="0" cy="0" r="1" gradientUnits="userSpaceOnUse" gradientTransform="translate(1175.61 -232.504) rotate(72.1936) scale(685.888 720.067)">
<stop stop-color="#FFF0CE"/>
<stop offset="1" stop-color="#A4480A"/>
</radialGradient>
<radialGradient id="paint1_radial_2722_60026" cx="0" cy="0" r="1" gradientUnits="userSpaceOnUse" gradientTransform="translate(1132.82 581.666) rotate(72.1936) scale(552.694 580.235)">
<stop stop-color="#FFF0CE"/>
<stop offset="1" stop-color="#A4480A"/>
</radialGradient>
<linearGradient id="paint2_linear_2722_60026" x1="799.077" y1="-62.1716" x2="795.395" y2="43.8505" gradientUnits="userSpaceOnUse">
<stop stop-color="#FFF0CE"/>
<stop offset="1" stop-color="#A4480A"/>
</linearGradient>
<linearGradient id="paint3_linear_2722_60026" x1="748.313" y1="-11.407" x2="744.63" y2="94.6152" gradientUnits="userSpaceOnUse">
<stop stop-color="#FFF0CE"/>
<stop offset="1" stop-color="#A4480A"/>
</linearGradient>
<linearGradient id="paint4_linear_2722_60026" x1="697.548" y1="39.3581" x2="693.865" y2="145.38" gradientUnits="userSpaceOnUse">
<stop stop-color="#FFF0CE"/>
<stop offset="1" stop-color="#A4480A"/>
</linearGradient>
<linearGradient id="paint5_linear_2722_60026" x1="646.783" y1="90.1228" x2="643.1" y2="196.145" gradientUnits="userSpaceOnUse">
<stop stop-color="#FFF0CE"/>
<stop offset="1" stop-color="#A4480A"/>
</linearGradient>
<linearGradient id="paint6_linear_2722_60026" x1="1378.6" y1="173.708" x2="1374.92" y2="279.73" gradientUnits="userSpaceOnUse">
<stop stop-color="#FFF0CE"/>
<stop offset="1" stop-color="#A4480A"/>
</linearGradient>
<linearGradient id="paint7_linear_2722_60026" x1="1327.83" y1="224.473" x2="1324.15" y2="330.495" gradientUnits="userSpaceOnUse">
<stop stop-color="#FFF0CE"/>
<stop offset="1" stop-color="#A4480A"/>
</linearGradient>
<linearGradient id="paint8_linear_2722_60026" x1="1277.07" y1="275.238" x2="1273.39" y2="381.26" gradientUnits="userSpaceOnUse">
<stop stop-color="#FFF0CE"/>
<stop offset="1" stop-color="#A4480A"/>
</linearGradient>
<linearGradient id="paint9_linear_2722_60026" x1="1226.3" y1="326.002" x2="1222.62" y2="432.024" gradientUnits="userSpaceOnUse">
<stop stop-color="#FFF0CE"/>
<stop offset="1" stop-color="#A4480A"/>
</linearGradient>
<linearGradient id="paint10_linear_2722_60026" x1="1175.54" y1="376.767" x2="1171.86" y2="482.789" gradientUnits="userSpaceOnUse">
<stop stop-color="#FFF0CE"/>
<stop offset="1" stop-color="#A4480A"/>
</linearGradient>
<linearGradient id="paint11_linear_2722_60026" x1="1433.19" y1="251.428" x2="1327.17" y2="247.745" gradientUnits="userSpaceOnUse">
<stop stop-color="#FFF0CE"/>
<stop offset="1" stop-color="#A4480A"/>
</linearGradient>
<linearGradient id="paint12_linear_2722_60026" x1="1382.43" y1="200.664" x2="1276.4" y2="196.981" gradientUnits="userSpaceOnUse">
<stop stop-color="#FFF0CE"/>
<stop offset="1" stop-color="#A4480A"/>
</linearGradient>
<linearGradient id="paint13_linear_2722_60026" x1="1331.66" y1="149.899" x2="1225.64" y2="146.216" gradientUnits="userSpaceOnUse">
<stop stop-color="#FFF0CE"/>
<stop offset="1" stop-color="#A4480A"/>
</linearGradient>
<linearGradient id="paint14_linear_2722_60026" x1="1280.9" y1="99.1343" x2="1174.87" y2="95.4514" gradientUnits="userSpaceOnUse">
<stop stop-color="#FFF0CE"/>
<stop offset="1" stop-color="#A4480A"/>
</linearGradient>
<linearGradient id="paint15_linear_2722_60026" x1="1230.13" y1="48.3696" x2="1124.11" y2="44.6867" gradientUnits="userSpaceOnUse">
<stop stop-color="#FFF0CE"/>
<stop offset="1" stop-color="#A4480A"/>
</linearGradient>
<linearGradient id="paint16_linear_2722_60026" x1="839.828" y1="476.305" x2="733.806" y2="472.622" gradientUnits="userSpaceOnUse">
<stop stop-color="#FFF0CE"/>
<stop offset="1" stop-color="#A4480A"/>
</linearGradient>
<linearGradient id="paint17_linear_2722_60026" x1="789.063" y1="425.54" x2="683.041" y2="421.857" gradientUnits="userSpaceOnUse">
<stop stop-color="#FFF0CE"/>
<stop offset="1" stop-color="#A4480A"/>
</linearGradient>
<linearGradient id="paint18_linear_2722_60026" x1="738.299" y1="374.775" x2="632.276" y2="371.093" gradientUnits="userSpaceOnUse">
<stop stop-color="#FFF0CE"/>
<stop offset="1" stop-color="#A4480A"/>
</linearGradient>
<linearGradient id="paint19_linear_2722_60026" x1="687.534" y1="324.011" x2="581.512" y2="320.328" gradientUnits="userSpaceOnUse">
<stop stop-color="#FFF0CE"/>
<stop offset="1" stop-color="#A4480A"/>
</linearGradient>
<linearGradient id="paint20_linear_2722_60026" x1="636.769" y1="273.246" x2="530.747" y2="269.563" gradientUnits="userSpaceOnUse">
<stop stop-color="#FFF0CE"/>
<stop offset="1" stop-color="#A4480A"/>
</linearGradient>
<linearGradient id="paint21_linear_2722_60026" x1="334.333" y1="172.333" x2="355.333" y2="144" gradientUnits="userSpaceOnUse">
<stop stop-color="#E8BD87"/>
<stop offset="1" stop-color="#F7E0C4"/>
</linearGradient>
<linearGradient id="paint22_linear_2722_60026" x1="351" y1="150.313" x2="338.462" y2="164.96" gradientUnits="userSpaceOnUse">
<stop stop-color="#E8BD87"/>
<stop offset="1" stop-color="#F7E0C5"/>
</linearGradient>
<linearGradient id="paint23_linear_2722_60026" x1="412" y1="26" x2="412" y2="98" gradientUnits="userSpaceOnUse">
<stop stop-color="#E6AAAA"/>
<stop offset="1" stop-color="#CE6767"/>
</linearGradient>
<radialGradient id="paint24_radial_2722_60026" cx="0" cy="0" r="1" gradientUnits="userSpaceOnUse" gradientTransform="translate(395 21.5) rotate(68.3142) scale(92.0122 113.92)">
<stop stop-color="#F1E7D0"/>
<stop offset="1" stop-color="#E0A680"/>
</radialGradient>
<linearGradient id="paint25_linear_2722_60026" x1="405" y1="144" x2="417" y2="144" gradientUnits="userSpaceOnUse">
<stop stop-color="#E5A6A6"/>
<stop offset="1" stop-color="#CE6767"/>
</linearGradient>
<linearGradient id="paint26_linear_2722_60026" x1="473.5" y1="254.5" x2="505" y2="212" gradientUnits="userSpaceOnUse">
<stop stop-color="#E8BD87"/>
<stop offset="1" stop-color="#F7E0C4"/>
</linearGradient>
<linearGradient id="paint27_linear_2722_60026" x1="498.5" y1="221.5" x2="479.5" y2="243.5" gradientUnits="userSpaceOnUse">
<stop stop-color="#E8BD87"/>
<stop offset="1" stop-color="#F7E0C5"/>
</linearGradient>
<linearGradient id="paint28_linear_2722_60026" x1="33" y1="0" x2="33" y2="49" gradientUnits="userSpaceOnUse">
<stop stop-color="#E6AAAA"/>
<stop offset="1" stop-color="#CE6767"/>
</linearGradient>
<radialGradient id="paint29_radial_2722_60026" cx="0" cy="0" r="1" gradientUnits="userSpaceOnUse" gradientTransform="translate(557.115 13.9821) rotate(111.658) scale(60.2346 74.5003)">
<stop stop-color="#F1E7D0"/>
<stop offset="1" stop-color="#E0A680"/>
</radialGradient>
<linearGradient id="paint30_linear_2722_60026" x1="550.5" y1="95" x2="542.5" y2="95" gradientUnits="userSpaceOnUse">
<stop stop-color="#E5A6A6"/>
<stop offset="1" stop-color="#CE6767"/>
</linearGradient>
<linearGradient id="paint31_linear_2722_60026" x1="1585.67" y1="172.333" x2="1564.67" y2="144" gradientUnits="userSpaceOnUse">
<stop stop-color="#E8BD87"/>
<stop offset="1" stop-color="#F7E0C4"/>
</linearGradient>
<linearGradient id="paint32_linear_2722_60026" x1="1569" y1="150.313" x2="1581.54" y2="164.96" gradientUnits="userSpaceOnUse">
<stop stop-color="#E8BD87"/>
<stop offset="1" stop-color="#F7E0C5"/>
</linearGradient>
<linearGradient id="paint33_linear_2722_60026" x1="50" y1="0" x2="50" y2="72" gradientUnits="userSpaceOnUse">
<stop stop-color="#E6AAAA"/>
<stop offset="1" stop-color="#CE6767"/>
</linearGradient>
<radialGradient id="paint34_radial_2722_60026" cx="0" cy="0" r="1" gradientUnits="userSpaceOnUse" gradientTransform="translate(1525 21.5) rotate(111.686) scale(92.0122 113.92)">
<stop stop-color="#F1E7D0"/>
<stop offset="1" stop-color="#E0A680"/>
</radialGradient>
<linearGradient id="paint35_linear_2722_60026" x1="1515" y1="144" x2="1503" y2="144" gradientUnits="userSpaceOnUse">
<stop stop-color="#E5A6A6"/>
<stop offset="1" stop-color="#CE6767"/>
</linearGradient>
<linearGradient id="paint36_linear_2722_60026" x1="1446.5" y1="254.5" x2="1415" y2="212" gradientUnits="userSpaceOnUse">
<stop stop-color="#E8BD87"/>
<stop offset="1" stop-color="#F7E0C4"/>
</linearGradient>
<linearGradient id="paint37_linear_2722_60026" x1="1421.5" y1="221.5" x2="1440.5" y2="243.5" gradientUnits="userSpaceOnUse">
<stop stop-color="#E8BD87"/>
<stop offset="1" stop-color="#F7E0C5"/>
</linearGradient>
<linearGradient id="paint38_linear_2722_60026" x1="1374" y1="16" x2="1374" y2="65" gradientUnits="userSpaceOnUse">
<stop stop-color="#E6AAAA"/>
<stop offset="1" stop-color="#CE6767"/>
</linearGradient>
<radialGradient id="paint39_radial_2722_60026" cx="0" cy="0" r="1" gradientUnits="userSpaceOnUse" gradientTransform="translate(1362.88 13.9821) rotate(68.3417) scale(60.2346 74.5003)">
<stop stop-color="#F1E7D0"/>
<stop offset="1" stop-color="#E0A680"/>
</radialGradient>
<linearGradient id="paint40_linear_2722_60026" x1="1369.5" y1="95" x2="1377.5" y2="95" gradientUnits="userSpaceOnUse">
<stop stop-color="#E5A6A6"/>
<stop offset="1" stop-color="#CE6767"/>
</linearGradient>
<linearGradient id="paint41_linear_2722_60026" x1="1353.02" y1="411.01" x2="1370.31" y2="427.286" gradientUnits="userSpaceOnUse">
<stop stop-color="#FFDDB4"/>
<stop offset="0.256329" stop-color="#FFF1C2"/>
<stop offset="0.691007" stop-color="#FFCC6C"/>
<stop offset="1" stop-color="#FFFAE9"/>
</linearGradient>
<radialGradient id="paint42_radial_2722_60026" cx="0" cy="0" r="1" gradientUnits="userSpaceOnUse" gradientTransform="translate(1357.39 412.858) rotate(65.0816) scale(19.1806 28.3014)">
<stop stop-color="#FFD5A2"/>
<stop offset="0.256329" stop-color="#FFFBED"/>
<stop offset="0.691007" stop-color="#FFDA94"/>
<stop offset="1" stop-color="#FFF5D3"/>
</radialGradient>
<linearGradient id="paint43_linear_2722_60026" x1="566.978" y1="411.01" x2="549.687" y2="427.286" gradientUnits="userSpaceOnUse">
<stop stop-color="#FFDDB4"/>
<stop offset="0.256329" stop-color="#FFF1C2"/>
<stop offset="0.691007" stop-color="#FFCC6C"/>
<stop offset="1" stop-color="#FFFAE9"/>
</linearGradient>
<radialGradient id="paint44_radial_2722_60026" cx="0" cy="0" r="1" gradientUnits="userSpaceOnUse" gradientTransform="translate(562.61 412.858) rotate(114.918) scale(19.1806 28.3014)">
<stop stop-color="#FFD5A2"/>
<stop offset="0.256329" stop-color="#FFFBED"/>
<stop offset="0.691007" stop-color="#FFDA94"/>
<stop offset="1" stop-color="#FFF5D3"/>
</radialGradient>
<clipPath id="clip0_2722_60026">
<rect width="1920" height="420" fill="white"/>
</clipPath>
</defs>
</svg>
