<svg width="1920" height="420" viewBox="0 0 1920 420" fill="none" xmlns="http://www.w3.org/2000/svg">
<g id="festive/2025/israj-mi&#39;raj-hero-desktop" clipPath="url(#clip0_2744_6025)">
<path id="path310" opacity="0.07" d="M959.453 512C988.795 512 1014.74 497.766 1030.98 475.902C1038.04 477.702 1045.4 478.761 1053.02 478.761C1101.4 478.761 1140.68 440.215 1142 392.201C1187.72 388.423 1223.67 350.218 1223.67 303.56C1223.67 296.887 1222.88 290.409 1221.48 284.156H1223.63C1229.82 283.273 1249.04 276.124 1256.33 257.672C1269.58 224.125 1293 210.001 1293 210.001C1293 210.001 1269.58 195.875 1256.33 162.328C1249.04 143.876 1229.82 136.727 1223.63 135.844H1221.48C1222.88 129.591 1223.67 123.113 1223.67 116.44C1223.67 69.7819 1187.72 31.5772 1142 27.7991C1140.68 -20.2154 1101.4 -58.7598 1053.02 -58.7598C1045.4 -58.7598 1038.04 -57.7002 1030.98 -55.9007C1014.74 -77.7663 988.795 -92 959.453 -92C930.217 -92 904.35 -77.8667 888.103 -56.137C881.319 -57.7882 874.269 -58.7598 866.977 -58.7598C820.867 -58.7598 782.942 -23.7649 778.349 21.0893C775.677 23.5993 773.05 26.1541 770.485 28.7737C728.408 35.8883 696.33 72.3768 696.33 116.44C696.33 123.113 697.123 129.591 698.516 135.844H696.364C690.18 136.727 670.962 143.876 663.671 162.328C650.417 195.875 627 210.001 627 210.001C627 210.001 650.417 224.125 663.671 257.672C670.962 276.124 690.18 283.273 696.364 284.156H698.516C697.123 290.409 696.33 296.887 696.33 303.56C696.33 347.623 728.408 384.113 770.485 391.226C773.049 393.846 775.677 396.401 778.349 398.912C782.942 443.766 820.867 478.761 866.977 478.761C874.269 478.761 881.319 477.79 888.103 476.139C904.35 497.868 930.217 512 959.453 512Z" fill="url(#paint0_linear_2744_6025)"/>
<path id="path452" opacity="0.07" d="M960.052 458C984.063 458 1005.3 446.336 1018.58 428.416C1024.36 429.891 1030.38 430.759 1036.62 430.759C1076.21 430.759 1108.36 399.169 1109.43 359.82C1146.85 356.723 1176.27 325.413 1176.27 287.175C1176.27 281.707 1175.62 276.398 1174.48 271.273H1176.24C1181.3 270.549 1197.03 264.692 1202.99 249.568C1213.84 222.076 1233 210.499 1233 210.499C1233 210.499 1213.84 198.924 1202.99 171.432C1197.03 156.308 1181.3 150.449 1176.24 149.726H1174.48C1175.62 144.601 1176.27 139.291 1176.27 133.823C1176.27 95.5857 1146.85 64.2754 1109.43 61.1796C1108.36 21.8293 1076.21 -9.75925 1036.62 -9.75925C1030.38 -9.75925 1024.36 -8.89059 1018.58 -7.41611C1005.3 -25.3355 984.063 -37 960.052 -37C936.128 -37 914.96 -25.419 901.666 -7.60931C896.115 -8.96323 890.345 -9.75925 884.378 -9.75925C846.645 -9.75925 815.61 18.9205 811.852 55.6805C809.665 57.7376 807.516 59.8319 805.417 61.9787C770.984 67.8086 744.734 97.7124 744.734 133.823C744.734 139.291 745.383 144.601 746.523 149.726H744.764C739.702 150.449 723.975 156.308 718.009 171.432C707.162 198.924 688 210.499 688 210.499C688 210.499 707.162 222.076 718.009 249.568C723.975 264.692 739.702 270.549 744.764 271.273H746.523C745.383 276.398 744.734 281.707 744.734 287.175C744.734 323.288 770.985 353.191 805.417 359.021C807.515 361.168 809.665 363.262 811.852 365.32C815.61 402.081 846.645 430.759 884.378 430.759C890.345 430.759 896.115 429.963 901.666 428.609C914.96 446.419 936.128 458 960.052 458Z" fill="url(#paint1_linear_2744_6025)"/>
<path id="path338" opacity="0.07" d="M959.488 494C986.979 494 1011.29 480.663 1026.5 460.172C1033.12 461.859 1040.01 462.852 1047.16 462.852C1092.48 462.852 1129.29 426.732 1130.52 381.738C1173.36 378.197 1207.04 342.396 1207.04 298.674C1207.04 292.421 1206.3 286.351 1204.99 280.491H1207.01C1212.8 279.663 1230.81 272.964 1237.64 255.673C1250.06 224.236 1272 211.001 1272 211.001C1272 211.001 1250.06 197.764 1237.64 166.327C1230.81 149.036 1212.8 142.337 1207.01 141.509H1204.99C1206.3 135.649 1207.04 129.579 1207.04 123.326C1207.04 79.6042 1173.36 43.8026 1130.52 40.2625C1129.29 -4.73087 1092.48 -40.8507 1047.16 -40.8507C1040.01 -40.8507 1033.12 -39.859 1026.5 -38.1724C1011.29 -58.6611 986.979 -72 959.488 -72C932.095 -72 907.859 -58.7569 892.638 -38.3932C886.282 -39.9409 879.677 -40.8507 872.844 -40.8507C829.642 -40.8507 794.107 -8.0579 789.806 33.9745C787.301 36.3269 784.841 38.721 782.437 41.1769C743.012 47.8417 712.958 82.0354 712.958 123.326C712.958 129.579 713.701 135.649 715.007 141.509H712.99C707.195 142.337 689.19 149.036 682.358 166.327C669.939 197.764 648 211.001 648 211.001C648 211.001 669.939 224.236 682.358 255.673C689.19 272.964 707.195 279.663 712.99 280.491H715.007C713.701 286.351 712.958 292.421 712.958 298.674C712.958 339.966 743.014 374.158 782.437 380.825C784.839 383.281 787.301 385.675 789.806 388.027C794.107 430.059 829.642 462.852 872.844 462.852C879.677 462.852 886.282 461.941 892.638 460.395C907.859 480.757 932.095 494 959.488 494Z" stroke="#DAC05A" strokeWidth="2.66667" stroke-miterlimit="10"/>
<path id="masjid" fill-rule="evenodd" clip-rule="evenodd" d="M1540.82 311.262L1541.38 359.666H1544.62V363.928C1544.62 365.072 1543.69 366.001 1542.54 366.001H1541.46L1543.68 436.5H1449.58H1356L1357.97 389.204C1358.04 387.597 1359.36 386.328 1360.97 386.328L1373.35 386.328V377.217C1373.35 376.136 1374.23 375.261 1375.31 375.261H1381.65V362.756C1381.65 361.621 1382.57 360.704 1383.71 360.704H1384.94V351.959C1384.94 350.851 1385.84 349.955 1386.94 349.955H1388.78C1390.83 340.874 1396.04 332.818 1403.47 327.218C1413.65 319.542 1428.02 308.45 1435.43 301.53C1437.2 299.884 1438.19 297.577 1438.19 295.161V277.798C1436.91 277.314 1435.68 276.614 1434.56 275.691C1429.13 271.196 1428.37 263.15 1432.87 257.719C1434.47 255.779 1436.53 254.432 1438.76 253.711C1437.37 254.42 1436.1 255.416 1435.04 256.693C1430.91 261.691 1431.61 269.089 1436.6 273.224C1441.6 277.356 1449 276.657 1453.14 271.659C1454.19 270.382 1454.93 268.947 1455.37 267.448C1455.08 269.776 1454.14 272.049 1452.54 273.99C1450.29 276.711 1447.14 278.261 1443.89 278.564V295.161C1443.89 297.577 1444.88 299.884 1446.65 301.53C1454.06 308.45 1468.43 319.542 1478.61 327.218C1486.04 332.818 1491.25 340.874 1493.3 349.955H1495.13C1496.24 349.955 1497.14 350.851 1497.14 351.959V360.704H1498.37C1499.51 360.704 1500.43 361.621 1500.43 362.756V375.261H1511.01C1512.09 375.261 1512.97 376.136 1512.97 377.217V386.328L1523.89 386.328V388.375L1524.24 366.001H1522.95C1521.8 366.001 1520.87 365.072 1520.87 363.928V359.666H1524.34L1525.08 311.262H1524.49C1523.34 311.262 1522.41 310.333 1522.41 309.186V305.747H1525.17L1526.01 250.699C1525.13 250.463 1524.47 249.658 1524.47 248.695V246.358H1524.51V245.689C1524.51 245.532 1524.64 245.405 1524.79 245.405H1524.96V244.191C1524.96 244.037 1525.09 243.913 1525.24 243.913H1525.5C1525.78 242.653 1526.5 241.536 1527.53 240.758C1528.81 239.796 1530.56 238.446 1531.65 237.486L1532.98 230L1534.4 237.961C1535.46 238.857 1536.88 239.947 1537.96 240.758C1538.99 241.536 1539.71 242.653 1540 243.913H1540.25C1540.4 243.913 1540.53 244.037 1540.53 244.191V245.405H1540.7C1540.86 245.405 1540.99 245.532 1540.99 245.689V246.358H1541.02V248.695C1541.02 249.416 1540.65 250.048 1540.1 250.421L1540.75 305.747H1543.08V309.186C1543.08 310.333 1542.15 311.262 1541 311.262H1540.82Z" fill="url(#paint2_linear_2744_6025)"/>
<g id="light-1">
<g id="ring">
<mask id="path-5-inside-1_2744_6025" fill="white">
<path d="M422.226 68.4988C422.226 66.1401 424.141 64.2234 426.498 64.2234C428.859 64.2234 430.775 66.1401 430.775 68.4988C430.775 70.1423 429.847 71.5703 428.484 72.2855C428.272 72.3957 428.05 72.49 427.818 72.5671C427.4 72.7018 426.96 72.7766 426.498 72.7766C426.041 72.7766 425.601 72.7018 425.183 72.5671C424.951 72.49 424.729 72.3957 424.516 72.2855C423.157 71.5703 422.226 70.1423 422.226 68.4988ZM421 68.4988C421 70.664 422.26 72.5463 424.085 73.4379C424.289 73.5395 424.5 73.6277 424.718 73.7024C425.136 73.8457 425.575 73.94 426.032 73.9792C426.185 73.9939 426.342 74 426.498 74C426.657 74 426.812 73.9939 426.967 73.9792C427.423 73.94 427.866 73.8457 428.283 73.7024C428.502 73.6277 428.712 73.5395 428.916 73.4379C430.745 72.5402 432.001 70.664 432.001 68.4988C432.001 65.4677 429.535 63 426.498 63C423.469 63 421 65.4677 421 68.4988Z"/>
</mask>
<path d="M422.226 68.4988C422.226 66.1401 424.141 64.2234 426.498 64.2234C428.859 64.2234 430.775 66.1401 430.775 68.4988C430.775 70.1423 429.847 71.5703 428.484 72.2855C428.272 72.3957 428.05 72.49 427.818 72.5671C427.4 72.7018 426.96 72.7766 426.498 72.7766C426.041 72.7766 425.601 72.7018 425.183 72.5671C424.951 72.49 424.729 72.3957 424.516 72.2855C423.157 71.5703 422.226 70.1423 422.226 68.4988ZM421 68.4988C421 70.664 422.26 72.5463 424.085 73.4379C424.289 73.5395 424.5 73.6277 424.718 73.7024C425.136 73.8457 425.575 73.94 426.032 73.9792C426.185 73.9939 426.342 74 426.498 74C426.657 74 426.812 73.9939 426.967 73.9792C427.423 73.94 427.866 73.8457 428.283 73.7024C428.502 73.6277 428.712 73.5395 428.916 73.4379C430.745 72.5402 432.001 70.664 432.001 68.4988C432.001 65.4677 429.535 63 426.498 63C423.469 63 421 65.4677 421 68.4988Z" fill="#D7B372"/>
<path d="M428.484 72.2855L429.103 73.4661L429.099 73.4683L428.484 72.2855ZM427.818 72.5671L428.237 73.8328L428.227 73.8361L427.818 72.5671ZM425.183 72.5671L424.774 73.8361L424.764 73.8327L425.183 72.5671ZM424.516 72.2855L423.903 73.4698L423.895 73.4654L424.516 72.2855ZM424.085 73.4379L424.67 72.2399L424.678 72.2439L424.085 73.4379ZM424.718 73.7024L425.15 72.4411L425.151 72.4412L424.718 73.7024ZM426.032 73.9792L426.146 72.6507L426.16 72.6519L426.032 73.9792ZM426.967 73.9792L426.84 72.6518L426.853 72.6507L426.967 73.9792ZM428.283 73.7024L427.85 72.4412L427.853 72.4403L428.283 73.7024ZM428.916 73.4379L428.323 72.2439L428.329 72.241L428.916 73.4379ZM420.893 68.4988C420.893 65.4047 423.404 62.8901 426.498 62.8901V65.5568C424.879 65.5568 423.559 66.8754 423.559 68.4988H420.893ZM426.498 62.8901C429.595 62.8901 432.109 65.4032 432.109 68.4988H429.442C429.442 66.8769 428.123 65.5568 426.498 65.5568V62.8901ZM432.109 68.4988C432.109 70.6572 430.888 72.5297 429.103 73.4661L427.864 71.1048C428.806 70.6108 429.442 69.6274 429.442 68.4988H432.109ZM429.099 73.4683C428.826 73.6108 428.538 73.7329 428.237 73.8327L427.398 71.3016C427.562 71.2471 427.719 71.1806 427.869 71.1026L429.099 73.4683ZM428.227 73.8361C427.684 74.0112 427.107 74.1099 426.498 74.1099V71.4432C426.814 71.4432 427.116 71.3925 427.408 71.2982L428.227 73.8361ZM426.498 74.1099C425.894 74.1099 425.316 74.0109 424.774 73.8361L425.593 71.2982C425.886 71.3928 426.188 71.4432 426.498 71.4432V74.1099ZM424.764 73.8327C424.463 73.7328 424.177 73.611 423.903 73.4697L425.129 71.1012C425.282 71.1804 425.439 71.2471 425.603 71.3016L424.764 73.8327ZM423.895 73.4654C422.116 72.5295 420.893 70.6581 420.893 68.4988H423.559C423.559 69.6264 424.197 70.611 425.137 71.1055L423.895 73.4654ZM422.333 68.4988C422.333 70.1358 423.286 71.5636 424.67 72.2399L423.5 74.6359C421.234 73.529 419.667 71.1922 419.667 68.4988H422.333ZM424.678 72.2439C424.831 72.3198 424.988 72.3854 425.15 72.4411L424.286 74.9637C424.012 74.87 423.748 74.7593 423.492 74.6319L424.678 72.2439ZM425.151 72.4412C425.466 72.5494 425.799 72.6209 426.146 72.6507L425.918 75.3076C425.352 75.2591 424.805 75.142 424.285 74.9636L425.151 72.4412ZM426.16 72.6519C426.263 72.6618 426.376 72.6667 426.498 72.6667V75.3333C426.308 75.3333 426.108 75.3259 425.905 75.3064L426.16 72.6519ZM426.498 72.6667C426.623 72.6667 426.735 72.6618 426.84 72.6519L427.093 75.3065C426.889 75.3259 426.691 75.3333 426.498 75.3333V72.6667ZM426.853 72.6507C427.201 72.6208 427.536 72.5491 427.85 72.4412L428.716 74.9636C428.195 75.1423 427.646 75.2591 427.081 75.3076L426.853 72.6507ZM427.853 72.4403C428.014 72.3856 428.169 72.3205 428.323 72.2439L429.51 74.6319C429.255 74.7585 428.991 74.8698 428.713 74.9645L427.853 72.4403ZM428.329 72.241C429.72 71.5581 430.668 70.1347 430.668 68.4988H433.335C433.335 71.1933 431.77 73.5222 429.504 74.6347L428.329 72.241ZM430.668 68.4988C430.668 66.2047 428.799 64.3333 426.498 64.3333V61.6667C430.271 61.6667 433.335 64.7308 433.335 68.4988H430.668ZM426.498 64.3333C424.205 64.3333 422.333 66.2041 422.333 68.4988H419.667C419.667 64.7313 422.733 61.6667 426.498 61.6667V64.3333Z" fill="#D7B372" mask="url(#path-5-inside-1_2744_6025)"/>
</g>
<g id="rope">
<path d="M426.5 63.6133V-188V63.6133Z" fill="#D7B372"/>
<path d="M426.5 63.6133V-188" stroke="#D7B372" stroke-miterlimit="10"/>
</g>
<g id="kubah-mini-light-bottom">
<path d="M411.143 167.233C411.334 166.745 411.564 166.314 411.787 165.953C412.206 165.271 412.587 164.862 412.587 164.862L425.798 164.742V164.727L426.503 164.734L427.208 164.727V164.742L440.415 164.862C440.415 164.862 440.8 165.271 441.218 165.953C441.442 166.314 441.672 166.745 441.863 167.233C442.3 168.347 442.524 169.75 441.936 171.205C440.523 174.69 434.171 177.373 430.03 178.59H422.975C418.835 177.373 412.482 174.69 411.07 171.205C410.482 169.75 410.706 168.347 411.143 167.233Z" fill="#E5E5E5"/>
<path d="M411.143 167.233C411.334 166.745 411.564 166.314 411.787 165.953C412.206 165.271 412.587 164.862 412.587 164.862L425.798 164.742V164.727L426.503 164.734L427.208 164.727V164.742L440.415 164.862C440.415 164.862 440.8 165.271 441.218 165.953C441.442 166.314 441.672 166.745 441.863 167.233C442.3 168.347 442.524 169.75 441.936 171.205C440.523 174.69 434.171 177.373 430.03 178.59H422.975C418.835 177.373 412.482 174.69 411.07 171.205C410.482 169.75 410.706 168.347 411.143 167.233Z" fill="url(#paint3_linear_2744_6025)"/>
</g>
<path id="body" d="M409.32 112.002L409.451 111.866L410.937 110.333H442.069L443.551 111.866L443.681 112.002L446.007 114.406V128.247V146.163V160.005L443.681 162.409L443.551 162.543L442.069 164.078H410.937L409.451 162.543L409.32 162.409L407 160.005V146.163V128.247V114.406L409.32 112.002Z" fill="url(#paint4_linear_2744_6025)"/>
<path id="hinge-bottom" d="M424.46 185.021C424.46 183.891 425.374 182.977 426.504 182.977C427.632 182.977 428.546 183.891 428.546 185.021C428.546 186.149 427.632 187.063 426.504 187.063C425.374 187.063 424.46 186.149 424.46 185.021Z" fill="#F8B12C"/>
<path id="kubah-cover-bottom" fill-rule="evenodd" clip-rule="evenodd" d="M422.972 178.995C422.972 179.095 422.976 179.2 422.986 179.3C423.112 180.783 424.126 182.107 425.035 183.007C425.467 183.435 425.874 183.767 426.154 183.972C426.372 184.147 426.635 184.147 426.852 183.972C427.132 183.767 427.539 183.435 427.971 183.007C428.88 182.107 429.895 180.783 430.022 179.3C430.03 179.2 430.034 179.095 430.034 178.995C430.034 178.707 430.016 178.427 429.986 178.151C429.974 178.029 429.956 177.916 429.924 177.801C429.891 177.653 429.846 177.515 429.792 177.386C431.474 175.955 433.257 173.803 433.752 171.203C434.145 169.139 433.765 167.173 433.427 165.992H442.183C442.984 165.992 443.635 165.341 443.635 164.538C443.635 163.736 442.984 163.085 442.183 163.085H410.823C410.02 163.085 409.37 163.736 409.37 164.538C409.37 165.341 410.02 165.992 410.823 165.992H419.578C419.24 167.173 418.86 169.139 419.254 171.203C419.749 173.803 421.532 175.955 423.214 177.386C423.16 177.515 423.115 177.653 423.082 177.801C423.051 177.916 423.034 178.029 423.02 178.151C422.99 178.427 422.972 178.707 422.972 178.995Z" fill="url(#paint5_linear_2744_6025)"/>
<g id="kubah-mini-light-top">
<path d="M409.871 97.0387C411.221 90.7933 416.759 85.8253 421.105 83.068C421.852 82.5933 422.559 82.188 423.208 81.848H429.799C430.447 82.188 431.155 82.5933 431.9 83.068C436.248 85.8253 441.785 90.7933 443.136 97.0387C444.049 101.256 443.149 105.268 442.361 107.645C441.912 109.021 441.496 109.844 441.496 109.844L427.264 110.092V110.119L426.503 110.105L425.743 110.119V110.092L411.505 109.844C411.505 109.844 411.095 109.021 410.644 107.645C409.857 105.268 408.957 101.256 409.871 97.0387Z" fill="#E5E5E5"/>
<path d="M409.871 97.0387C411.221 90.7933 416.759 85.8253 421.105 83.068C421.852 82.5933 422.559 82.188 423.208 81.848H429.799C430.447 82.188 431.155 82.5933 431.9 83.068C436.248 85.8253 441.785 90.7933 443.136 97.0387C444.049 101.256 443.149 105.268 442.361 107.645C441.912 109.021 441.496 109.844 441.496 109.844L427.264 110.092V110.119L426.503 110.105L425.743 110.119V110.092L411.505 109.844C411.505 109.844 411.095 109.021 410.644 107.645C409.857 105.268 408.957 101.256 409.871 97.0387Z" fill="url(#paint6_linear_2744_6025)"/>
</g>
<path id="kubah-cover-top" fill-rule="evenodd" clip-rule="evenodd" d="M442.183 111.325H410.823C410.02 111.325 409.37 110.675 409.37 109.872C409.37 109.069 410.02 108.419 410.823 108.419H418.409C417.987 106.218 417.339 101.754 417.869 97.0381C418.613 90.4126 421.8 85.2251 424.103 82.5868C423.947 82.5478 423.797 82.4669 423.663 82.3471C423.396 82.1071 423.186 81.7351 423.082 81.2764C423.051 81.1618 423.034 81.0484 423.02 80.9271C422.99 80.6511 422.972 80.3711 422.972 80.0831C422.972 78.4751 424.064 77.0324 425.035 76.0711C425.467 75.6431 425.874 75.3111 426.154 75.1058C426.372 74.9311 426.635 74.9311 426.852 75.1058C427.132 75.3111 427.539 75.6431 427.971 76.0711C428.942 77.0324 430.034 78.4751 430.034 80.0831C430.034 80.3711 430.016 80.6511 429.986 80.9271C429.974 81.0484 429.956 81.1618 429.924 81.2764C429.82 81.7351 429.611 82.1071 429.344 82.3471C429.209 82.4671 429.059 82.548 428.902 82.587C431.206 85.2253 434.394 90.4128 435.138 97.0381C435.667 101.754 435.019 106.218 434.597 108.419H442.183C442.984 108.419 443.635 109.069 443.635 109.872C443.635 110.675 442.984 111.325 442.183 111.325Z" fill="url(#paint7_linear_2744_6025)"/>
<path id="hinge-top" d="M424.46 74.0556C424.46 75.185 425.375 76.0996 426.504 76.0996C427.632 76.0996 428.547 75.185 428.547 74.0556C428.547 72.9276 427.632 72.0129 426.504 72.0129C425.375 72.0129 424.46 72.9276 424.46 74.0556Z" fill="url(#paint8_radial_2744_6025)"/>
<path id="door-middle" d="M420.71 124.652C416.928 127.69 418.3 129.974 419.557 131.122V156.43H433.449V131.122C434.708 129.974 436.078 127.69 432.294 124.652C426.74 120.188 426.504 117.648 426.504 117.648C426.504 117.648 426.268 120.188 420.71 124.652Z" fill="#D7B372"/>
<path id="door-left" d="M408.901 124.652C407.071 127.69 407.735 129.974 408.341 131.122V156.43H415.057V131.122C415.665 129.974 416.328 127.69 414.499 124.652C411.815 120.188 411.699 117.648 411.699 117.648C411.699 117.648 411.585 120.188 408.901 124.652Z" fill="#D7B372"/>
<path id="door-right" d="M438.507 124.652C436.679 127.69 437.341 129.974 437.949 131.122V156.43H444.664V131.122C445.273 129.974 445.935 127.69 444.107 124.652C441.421 120.188 441.307 117.648 441.307 117.648C441.307 117.648 441.193 120.188 438.507 124.652Z" fill="#D7B372"/>
</g>
<g id="light-1_2">
<g id="ring_2">
<mask id="path-19-inside-2_2744_6025" fill="white">
<path d="M1489.23 68.4988C1489.23 66.1401 1491.14 64.2234 1493.5 64.2234C1495.86 64.2234 1497.78 66.1401 1497.78 68.4988C1497.78 70.1423 1496.85 71.5703 1495.48 72.2855C1495.27 72.3957 1495.05 72.49 1494.82 72.5671C1494.4 72.7018 1493.96 72.7766 1493.5 72.7766C1493.04 72.7766 1492.6 72.7018 1492.18 72.5671C1491.95 72.49 1491.73 72.3957 1491.52 72.2855C1490.16 71.5703 1489.23 70.1423 1489.23 68.4988ZM1488 68.4988C1488 70.664 1489.26 72.5463 1491.08 73.4379C1491.29 73.5395 1491.5 73.6277 1491.72 73.7024C1492.14 73.8457 1492.58 73.94 1493.03 73.9792C1493.19 73.9939 1493.34 74 1493.5 74C1493.66 74 1493.81 73.9939 1493.97 73.9792C1494.42 73.94 1494.87 73.8457 1495.28 73.7024C1495.5 73.6277 1495.71 73.5395 1495.92 73.4379C1497.74 72.5402 1499 70.664 1499 68.4988C1499 65.4677 1496.53 63 1493.5 63C1490.47 63 1488 65.4677 1488 68.4988Z"/>
</mask>
<path d="M1489.23 68.4988C1489.23 66.1401 1491.14 64.2234 1493.5 64.2234C1495.86 64.2234 1497.78 66.1401 1497.78 68.4988C1497.78 70.1423 1496.85 71.5703 1495.48 72.2855C1495.27 72.3957 1495.05 72.49 1494.82 72.5671C1494.4 72.7018 1493.96 72.7766 1493.5 72.7766C1493.04 72.7766 1492.6 72.7018 1492.18 72.5671C1491.95 72.49 1491.73 72.3957 1491.52 72.2855C1490.16 71.5703 1489.23 70.1423 1489.23 68.4988ZM1488 68.4988C1488 70.664 1489.26 72.5463 1491.08 73.4379C1491.29 73.5395 1491.5 73.6277 1491.72 73.7024C1492.14 73.8457 1492.58 73.94 1493.03 73.9792C1493.19 73.9939 1493.34 74 1493.5 74C1493.66 74 1493.81 73.9939 1493.97 73.9792C1494.42 73.94 1494.87 73.8457 1495.28 73.7024C1495.5 73.6277 1495.71 73.5395 1495.92 73.4379C1497.74 72.5402 1499 70.664 1499 68.4988C1499 65.4677 1496.53 63 1493.5 63C1490.47 63 1488 65.4677 1488 68.4988Z" fill="#D7B372"/>
<path d="M1495.48 72.2855L1496.1 73.4661L1496.1 73.4683L1495.48 72.2855ZM1494.82 72.5671L1495.24 73.8328L1495.23 73.8361L1494.82 72.5671ZM1492.18 72.5671L1491.77 73.8361L1491.76 73.8327L1492.18 72.5671ZM1491.52 72.2855L1490.9 73.4698L1490.9 73.4654L1491.52 72.2855ZM1491.08 73.4379L1491.67 72.2399L1491.68 72.2439L1491.08 73.4379ZM1491.72 73.7024L1492.15 72.4411L1492.15 72.4412L1491.72 73.7024ZM1493.03 73.9792L1493.15 72.6507L1493.16 72.6519L1493.03 73.9792ZM1493.97 73.9792L1493.84 72.6518L1493.85 72.6507L1493.97 73.9792ZM1495.28 73.7024L1494.85 72.4412L1494.85 72.4403L1495.28 73.7024ZM1495.92 73.4379L1495.32 72.2439L1495.33 72.241L1495.92 73.4379ZM1487.89 68.4988C1487.89 65.4047 1490.4 62.8901 1493.5 62.8901V65.5568C1491.88 65.5568 1490.56 66.8754 1490.56 68.4988H1487.89ZM1493.5 62.8901C1496.59 62.8901 1499.11 65.4032 1499.11 68.4988H1496.44C1496.44 66.8769 1495.12 65.5568 1493.5 65.5568V62.8901ZM1499.11 68.4988C1499.11 70.6572 1497.89 72.5297 1496.1 73.4661L1494.86 71.1048C1495.81 70.6108 1496.44 69.6274 1496.44 68.4988H1499.11ZM1496.1 73.4683C1495.83 73.6108 1495.54 73.7329 1495.24 73.8327L1494.4 71.3016C1494.56 71.2471 1494.72 71.1806 1494.87 71.1026L1496.1 73.4683ZM1495.23 73.8361C1494.68 74.0112 1494.11 74.1099 1493.5 74.1099V71.4432C1493.81 71.4432 1494.12 71.3925 1494.41 71.2982L1495.23 73.8361ZM1493.5 74.1099C1492.89 74.1099 1492.32 74.0109 1491.77 73.8361L1492.59 71.2982C1492.89 71.3928 1493.19 71.4432 1493.5 71.4432V74.1099ZM1491.76 73.8327C1491.46 73.7328 1491.18 73.611 1490.9 73.4697L1492.13 71.1012C1492.28 71.1804 1492.44 71.2471 1492.6 71.3016L1491.76 73.8327ZM1490.9 73.4654C1489.12 72.5295 1487.89 70.6581 1487.89 68.4988H1490.56C1490.56 69.6264 1491.2 70.611 1492.14 71.1055L1490.9 73.4654ZM1489.33 68.4988C1489.33 70.1358 1490.29 71.5636 1491.67 72.2399L1490.5 74.6359C1488.23 73.529 1486.67 71.1922 1486.67 68.4988H1489.33ZM1491.68 72.2439C1491.83 72.3198 1491.99 72.3854 1492.15 72.4411L1491.29 74.9637C1491.01 74.87 1490.75 74.7593 1490.49 74.6319L1491.68 72.2439ZM1492.15 72.4412C1492.47 72.5494 1492.8 72.6209 1493.15 72.6507L1492.92 75.3076C1492.35 75.2591 1491.81 75.142 1491.29 74.9636L1492.15 72.4412ZM1493.16 72.6519C1493.26 72.6618 1493.38 72.6667 1493.5 72.6667V75.3333C1493.31 75.3333 1493.11 75.3259 1492.9 75.3064L1493.16 72.6519ZM1493.5 72.6667C1493.62 72.6667 1493.74 72.6618 1493.84 72.6519L1494.09 75.3065C1493.89 75.3259 1493.69 75.3333 1493.5 75.3333V72.6667ZM1493.85 72.6507C1494.2 72.6208 1494.54 72.5491 1494.85 72.4412L1495.72 74.9636C1495.19 75.1423 1494.65 75.2591 1494.08 75.3076L1493.85 72.6507ZM1494.85 72.4403C1495.01 72.3856 1495.17 72.3205 1495.32 72.2439L1496.51 74.6319C1496.25 74.7585 1495.99 74.8698 1495.71 74.9645L1494.85 72.4403ZM1495.33 72.241C1496.72 71.5581 1497.67 70.1347 1497.67 68.4988H1500.33C1500.33 71.1933 1498.77 73.5222 1496.5 74.6347L1495.33 72.241ZM1497.67 68.4988C1497.67 66.2047 1495.8 64.3333 1493.5 64.3333V61.6667C1497.27 61.6667 1500.33 64.7308 1500.33 68.4988H1497.67ZM1493.5 64.3333C1491.21 64.3333 1489.33 66.2041 1489.33 68.4988H1486.67C1486.67 64.7313 1489.73 61.6667 1493.5 61.6667V64.3333Z" fill="#D7B372" mask="url(#path-19-inside-2_2744_6025)"/>
</g>
<g id="rope_2">
<path d="M1493.5 63.6133V-188V63.6133Z" fill="#D7B372"/>
<path d="M1493.5 63.6133V-188" stroke="#D7B372" stroke-miterlimit="10"/>
</g>
<g id="kubah-mini-light-bottom_2">
<path d="M1478.14 167.233C1478.33 166.745 1478.56 166.314 1478.79 165.953C1479.21 165.271 1479.59 164.862 1479.59 164.862L1492.8 164.742V164.727L1493.5 164.734L1494.21 164.727V164.742L1507.42 164.862C1507.42 164.862 1507.8 165.271 1508.22 165.953C1508.44 166.314 1508.67 166.745 1508.86 167.233C1509.3 168.347 1509.52 169.75 1508.94 171.205C1507.52 174.69 1501.17 177.373 1497.03 178.59H1489.98C1485.84 177.373 1479.48 174.69 1478.07 171.205C1477.48 169.75 1477.71 168.347 1478.14 167.233Z" fill="#E5E5E5"/>
<path d="M1478.14 167.233C1478.33 166.745 1478.56 166.314 1478.79 165.953C1479.21 165.271 1479.59 164.862 1479.59 164.862L1492.8 164.742V164.727L1493.5 164.734L1494.21 164.727V164.742L1507.42 164.862C1507.42 164.862 1507.8 165.271 1508.22 165.953C1508.44 166.314 1508.67 166.745 1508.86 167.233C1509.3 168.347 1509.52 169.75 1508.94 171.205C1507.52 174.69 1501.17 177.373 1497.03 178.59H1489.98C1485.84 177.373 1479.48 174.69 1478.07 171.205C1477.48 169.75 1477.71 168.347 1478.14 167.233Z" fill="url(#paint9_linear_2744_6025)"/>
</g>
<path id="body_2" d="M1476.32 112.002L1476.45 111.866L1477.94 110.333H1509.07L1510.55 111.866L1510.68 112.002L1513.01 114.406V128.247V146.163V160.005L1510.68 162.409L1510.55 162.543L1509.07 164.078H1477.94L1476.45 162.543L1476.32 162.409L1474 160.005V146.163V128.247V114.406L1476.32 112.002Z" fill="url(#paint10_linear_2744_6025)"/>
<path id="hinge-bottom_2" d="M1491.46 185.021C1491.46 183.891 1492.37 182.977 1493.5 182.977C1494.63 182.977 1495.55 183.891 1495.55 185.021C1495.55 186.149 1494.63 187.063 1493.5 187.063C1492.37 187.063 1491.46 186.149 1491.46 185.021Z" fill="#F8B12C"/>
<path id="kubah-cover-bottom_2" fill-rule="evenodd" clip-rule="evenodd" d="M1489.97 178.995C1489.97 179.095 1489.98 179.2 1489.99 179.3C1490.11 180.783 1491.13 182.107 1492.03 183.007C1492.47 183.435 1492.87 183.767 1493.15 183.972C1493.37 184.147 1493.63 184.147 1493.85 183.972C1494.13 183.767 1494.54 183.435 1494.97 183.007C1495.88 182.107 1496.89 180.783 1497.02 179.3C1497.03 179.2 1497.03 179.095 1497.03 178.995C1497.03 178.707 1497.02 178.427 1496.99 178.151C1496.97 178.029 1496.96 177.916 1496.92 177.801C1496.89 177.653 1496.85 177.515 1496.79 177.386C1498.47 175.955 1500.26 173.803 1500.75 171.203C1501.15 169.139 1500.77 167.173 1500.43 165.992H1509.18C1509.98 165.992 1510.64 165.341 1510.64 164.538C1510.64 163.736 1509.98 163.085 1509.18 163.085H1477.82C1477.02 163.085 1476.37 163.736 1476.37 164.538C1476.37 165.341 1477.02 165.992 1477.82 165.992H1486.58C1486.24 167.173 1485.86 169.139 1486.25 171.203C1486.75 173.803 1488.53 175.955 1490.21 177.386C1490.16 177.515 1490.12 177.653 1490.08 177.801C1490.05 177.916 1490.03 178.029 1490.02 178.151C1489.99 178.427 1489.97 178.707 1489.97 178.995Z" fill="url(#paint11_linear_2744_6025)"/>
<g id="kubah-mini-light-top_2">
<path d="M1476.87 97.0387C1478.22 90.7933 1483.76 85.8253 1488.11 83.068C1488.85 82.5933 1489.56 82.188 1490.21 81.848H1496.8C1497.45 82.188 1498.15 82.5933 1498.9 83.068C1503.25 85.8253 1508.79 90.7933 1510.14 97.0387C1511.05 101.256 1510.15 105.268 1509.36 107.645C1508.91 109.021 1508.5 109.844 1508.5 109.844L1494.26 110.092V110.119L1493.5 110.105L1492.74 110.119V110.092L1478.51 109.844C1478.51 109.844 1478.09 109.021 1477.64 107.645C1476.86 105.268 1475.96 101.256 1476.87 97.0387Z" fill="#E5E5E5"/>
<path d="M1476.87 97.0387C1478.22 90.7933 1483.76 85.8253 1488.11 83.068C1488.85 82.5933 1489.56 82.188 1490.21 81.848H1496.8C1497.45 82.188 1498.15 82.5933 1498.9 83.068C1503.25 85.8253 1508.79 90.7933 1510.14 97.0387C1511.05 101.256 1510.15 105.268 1509.36 107.645C1508.91 109.021 1508.5 109.844 1508.5 109.844L1494.26 110.092V110.119L1493.5 110.105L1492.74 110.119V110.092L1478.51 109.844C1478.51 109.844 1478.09 109.021 1477.64 107.645C1476.86 105.268 1475.96 101.256 1476.87 97.0387Z" fill="url(#paint12_linear_2744_6025)"/>
</g>
<path id="kubah-cover-top_2" fill-rule="evenodd" clip-rule="evenodd" d="M1509.18 111.325H1477.82C1477.02 111.325 1476.37 110.675 1476.37 109.872C1476.37 109.069 1477.02 108.419 1477.82 108.419H1485.41C1484.99 106.218 1484.34 101.754 1484.87 97.0381C1485.61 90.4126 1488.8 85.2251 1491.1 82.5868C1490.95 82.5478 1490.8 82.4669 1490.66 82.3471C1490.4 82.1071 1490.19 81.7351 1490.08 81.2764C1490.05 81.1618 1490.03 81.0484 1490.02 80.9271C1489.99 80.6511 1489.97 80.3711 1489.97 80.0831C1489.97 78.4751 1491.06 77.0324 1492.03 76.0711C1492.47 75.6431 1492.87 75.3111 1493.15 75.1058C1493.37 74.9311 1493.63 74.9311 1493.85 75.1058C1494.13 75.3111 1494.54 75.6431 1494.97 76.0711C1495.94 77.0324 1497.03 78.4751 1497.03 80.0831C1497.03 80.3711 1497.02 80.6511 1496.99 80.9271C1496.97 81.0484 1496.96 81.1618 1496.92 81.2764C1496.82 81.7351 1496.61 82.1071 1496.34 82.3471C1496.21 82.4671 1496.06 82.548 1495.9 82.587C1498.21 85.2253 1501.39 90.4128 1502.14 97.0381C1502.67 101.754 1502.02 106.218 1501.6 108.419H1509.18C1509.98 108.419 1510.64 109.069 1510.64 109.872C1510.64 110.675 1509.98 111.325 1509.18 111.325Z" fill="url(#paint13_linear_2744_6025)"/>
<path id="hinge-top_2" d="M1491.46 74.0556C1491.46 75.185 1492.37 76.0996 1493.5 76.0996C1494.63 76.0996 1495.55 75.185 1495.55 74.0556C1495.55 72.9276 1494.63 72.0129 1493.5 72.0129C1492.37 72.0129 1491.46 72.9276 1491.46 74.0556Z" fill="url(#paint14_radial_2744_6025)"/>
<path id="door-middle_2" d="M1487.71 124.652C1483.93 127.69 1485.3 129.974 1486.56 131.122V156.43H1500.45V131.122C1501.71 129.974 1503.08 127.69 1499.29 124.652C1493.74 120.188 1493.5 117.648 1493.5 117.648C1493.5 117.648 1493.27 120.188 1487.71 124.652Z" fill="#D7B372"/>
<path id="door-left_2" d="M1475.9 124.652C1474.07 127.69 1474.73 129.974 1475.34 131.122V156.43H1482.06V131.122C1482.67 129.974 1483.33 127.69 1481.5 124.652C1478.81 120.188 1478.7 117.648 1478.7 117.648C1478.7 117.648 1478.59 120.188 1475.9 124.652Z" fill="#D7B372"/>
<path id="door-right_2" d="M1505.51 124.652C1503.68 127.69 1504.34 129.974 1504.95 131.122V156.43H1511.66V131.122C1512.27 129.974 1512.93 127.69 1511.11 124.652C1508.42 120.188 1508.31 117.648 1508.31 117.648C1508.31 117.648 1508.19 120.188 1505.51 124.652Z" fill="#D7B372"/>
</g>
<g id="light-small">
<path id="line" d="M558.747 64.6133V-187" stroke="#D7B372" strokeWidth="1.33333" stroke-miterlimit="10"/>
<path id="bg" fill-rule="evenodd" clip-rule="evenodd" d="M558.747 59.1634C558.747 59.1634 558.747 59.1634 558.747 59.1634V59.1635C558.715 59.187 556.359 60.9842 556.359 65.1352C556.359 65.1352 550.816 70.1659 553.971 73.7486V103.873C553.971 103.873 556.273 107.176 558.747 108.199V108.201C561.22 107.177 563.523 103.873 563.523 103.873V73.7487C566.677 70.1674 561.135 65.1354 561.135 65.1354C561.135 60.9689 558.761 59.1739 558.747 59.1634Z" fill="url(#paint15_linear_2744_6025)"/>
<path id="window" d="M557.212 77.2133C557.212 74.9653 558.746 73.7453 558.746 73.7453C558.746 73.7453 560.281 74.9653 560.281 77.2133C560.281 77.2133 561.876 77.6426 561.876 78.8079V101.407C561.876 101.407 560.168 104.079 558.746 104.079C557.325 104.079 555.617 101.407 555.617 101.407V78.8079C555.617 77.6426 557.212 77.2133 557.212 77.2133Z" fill="#FFF4C7"/>
</g>
<g id="light-small_2">
<path id="line_2" d="M1361.75 64.6133V-187" stroke="#D7B372" strokeWidth="1.33333" stroke-miterlimit="10"/>
<path id="bg_2" fill-rule="evenodd" clip-rule="evenodd" d="M1361.75 59.1634C1361.75 59.1634 1361.75 59.1634 1361.75 59.1634V59.1635C1361.72 59.187 1359.36 60.9842 1359.36 65.1352C1359.36 65.1352 1353.82 70.1659 1356.97 73.7486V103.873C1356.97 103.873 1359.27 107.176 1361.75 108.199V108.201C1364.22 107.177 1366.52 103.873 1366.52 103.873V73.7487C1369.68 70.1674 1364.13 65.1354 1364.13 65.1354C1364.13 60.9689 1361.76 59.1739 1361.75 59.1634Z" fill="url(#paint16_linear_2744_6025)"/>
<path id="window_2" d="M1360.21 77.2133C1360.21 74.9653 1361.75 73.7453 1361.75 73.7453C1361.75 73.7453 1363.28 74.9653 1363.28 77.2133C1363.28 77.2133 1364.88 77.6426 1364.88 78.8079V101.407C1364.88 101.407 1363.17 104.079 1361.75 104.079C1360.32 104.079 1358.62 101.407 1358.62 101.407V78.8079C1358.62 77.6426 1360.21 77.2133 1360.21 77.2133Z" fill="#FFF4C7"/>
</g>
<g id="star" opacity="0.5">
<path d="M514 165C507.465 166.361 506.362 167.465 504.999 174C503.638 167.465 502.535 166.361 496 165C502.535 163.639 503.638 162.535 504.999 156C506.362 162.535 507.465 163.639 514 165Z" fill="#FFF4C7"/>
<path d="M514 165C507.465 166.361 506.362 167.465 504.999 174C503.638 167.465 502.535 166.361 496 165C502.535 163.639 503.638 162.535 504.999 156C506.362 162.535 507.465 163.639 514 165Z" fill="#FFF4C7"/>
</g>
<g id="star_2" opacity="0.5">
<path d="M659 109C652.465 110.361 651.362 111.465 649.999 118C648.638 111.465 647.535 110.361 641 109C647.535 107.639 648.638 106.535 649.999 100C651.362 106.535 652.465 107.639 659 109Z" fill="#FFF4C7"/>
<path d="M659 109C652.465 110.361 651.362 111.465 649.999 118C648.638 111.465 647.535 110.361 641 109C647.535 107.639 648.638 106.535 649.999 100C651.362 106.535 652.465 107.639 659 109Z" fill="#FFF4C7"/>
</g>
<g id="star_3" opacity="0.5">
<path d="M388 86.5C377.471 88.6924 375.694 90.4717 373.499 101C371.306 90.4717 369.529 88.6924 359 86.5C369.529 84.3076 371.306 82.5283 373.499 72C375.694 82.5283 377.471 84.3076 388 86.5Z" fill="#FFF4C7"/>
<path d="M388 86.5C377.471 88.6924 375.694 90.4717 373.499 101C371.306 90.4717 369.529 88.6924 359 86.5C369.529 84.3076 371.306 82.5283 373.499 72C375.694 82.5283 377.471 84.3076 388 86.5Z" fill="#FFF4C7"/>
</g>
<g id="star_4" opacity="0.5">
<path d="M1309 127C1297.38 129.419 1295.42 131.383 1293 143C1290.58 131.383 1288.62 129.419 1277 127C1288.62 124.581 1290.58 122.617 1293 111C1295.42 122.617 1297.38 124.581 1309 127Z" fill="#FFF4C7"/>
<path d="M1309 127C1297.38 129.419 1295.42 131.383 1293 143C1290.58 131.383 1288.62 129.419 1277 127C1288.62 124.581 1290.58 122.617 1293 111C1295.42 122.617 1297.38 124.581 1309 127Z" fill="#FFF4C7"/>
</g>
<g id="star_5" opacity="0.5">
<path d="M1311 293C1304.46 294.361 1303.36 295.465 1302 302C1300.64 295.465 1299.54 294.361 1293 293C1299.54 291.639 1300.64 290.535 1302 284C1303.36 290.535 1304.46 291.639 1311 293Z" fill="#FFF4C7"/>
<path d="M1311 293C1304.46 294.361 1303.36 295.465 1302 302C1300.64 295.465 1299.54 294.361 1293 293C1299.54 291.639 1300.64 290.535 1302 284C1303.36 290.535 1304.46 291.639 1311 293Z" fill="#FFF4C7"/>
</g>
<path id="star_6" d="M1456 261C1449.46 262.361 1448.36 263.465 1447 270C1445.64 263.465 1444.54 262.361 1438 261C1444.54 259.639 1445.64 258.535 1447 252C1448.36 258.535 1449.46 259.639 1456 261Z" fill="#FFF4C7"/>
<path id="moon" fill-rule="evenodd" clip-rule="evenodd" d="M545.32 342.792C545.61 341.806 544.37 341.126 543.628 341.838C533.692 351.377 520.198 357.241 505.336 357.241C474.794 357.241 450.035 332.482 450.035 301.94C450.035 293.109 452.105 284.761 455.786 277.356C456.244 276.435 455.222 275.452 454.368 276.026C438.336 286.792 427.785 305.092 427.785 325.855C427.785 358.981 454.639 385.835 487.765 385.835C515.009 385.835 538.011 367.671 545.32 342.792Z" fill="url(#paint17_linear_2744_6025)"/>
<path id="cloud" d="M385.996 407.219C385.996 407.219 385.996 411.871 392.981 414.778C399.966 417.685 408.697 414.778 408.697 414.778C408.697 414.778 408.697 424.08 418.01 426.987C427.323 429.894 430.816 424.08 430.816 424.08C430.816 424.08 430.816 429.313 441.294 433.382C451.771 437.452 463.413 432.219 463.413 432.219C463.413 432.219 466.454 452.597 489.025 451.987C515.523 451.271 519.293 431.637 519.293 431.637C519.293 431.637 523.368 434.544 536.756 430.474C550.143 426.404 552.472 411.288 552.472 411.288C552.472 411.288 567.606 412.451 565.86 402.567C564.114 392.683 552.472 395.59 552.472 395.59C552.472 395.59 547.815 378.148 528.024 372.915C508.233 367.682 492.518 385.706 492.518 385.706C492.518 385.706 491.936 375.822 478.547 371.171C465.159 366.52 455.264 374.659 455.264 374.659C455.264 374.659 451.449 362.305 437.801 363.031C425.946 363.661 422.085 377.566 422.085 377.566C422.085 377.566 418.01 374.659 408.115 377.566C398.219 380.473 396.473 395.008 396.473 395.008C396.473 395.008 391.71 388.28 381.921 395.589C381.921 395.589 367.489 388.92 367.007 400.937C366.566 411.962 385.996 407.219 385.996 407.219Z" fill="url(#paint18_radial_2744_6025)"/>
</g>
<defs>
<linearGradient id="paint0_linear_2744_6025" x1="960" y1="500.645" x2="960" y2="-80.645" gradientUnits="userSpaceOnUse">
<stop stop-color="#EA9F3A"/>
<stop offset="0.477221" stop-color="#FBC950"/>
<stop offset="1" stop-color="#FFF2C7"/>
</linearGradient>
<linearGradient id="paint1_linear_2744_6025" x1="960.5" y1="-51.699" x2="960.5" y2="399" gradientUnits="userSpaceOnUse">
<stop stop-color="#E4BB83"/>
<stop offset="1" stop-color="#E3DABD"/>
</linearGradient>
<linearGradient id="paint2_linear_2744_6025" x1="1435.99" y1="262.413" x2="1495.06" y2="423.953" gradientUnits="userSpaceOnUse">
<stop offset="0.384076" stop-color="#D3E7DD"/>
<stop offset="1" stop-color="#B0D2BC"/>
</linearGradient>
<linearGradient id="paint3_linear_2744_6025" x1="424.105" y1="176.414" x2="425.87" y2="164.378" gradientUnits="userSpaceOnUse">
<stop offset="0.384076" stop-color="#D3E7DD"/>
<stop offset="1" stop-color="#B0D2BC"/>
</linearGradient>
<linearGradient id="paint4_linear_2744_6025" x1="418" y1="110" x2="437.5" y2="162" gradientUnits="userSpaceOnUse">
<stop stop-color="#F0D8AC"/>
<stop offset="1" stop-color="#E0B667"/>
</linearGradient>
<linearGradient id="paint5_linear_2744_6025" x1="435.5" y1="191" x2="438.959" y2="164.048" gradientUnits="userSpaceOnUse">
<stop stop-color="#F0D8AC"/>
<stop offset="1" stop-color="#E0B667"/>
</linearGradient>
<linearGradient id="paint6_linear_2744_6025" x1="423.919" y1="105.681" x2="430.378" y2="82.4004" gradientUnits="userSpaceOnUse">
<stop offset="0.384076" stop-color="#D3E7DD"/>
<stop offset="1" stop-color="#B0D2BC"/>
</linearGradient>
<linearGradient id="paint7_linear_2744_6025" x1="419.033" y1="74.7497" x2="429.724" y2="111.779" gradientUnits="userSpaceOnUse">
<stop stop-color="#F0D8AC"/>
<stop offset="1" stop-color="#E0B667"/>
</linearGradient>
<radialGradient id="paint8_radial_2744_6025" cx="0" cy="0" r="1" gradientUnits="userSpaceOnUse" gradientTransform="translate(425.5 73) rotate(56.3099) scale(3.60555 3.24599)">
<stop stop-color="#FFF2DA"/>
<stop offset="1" stop-color="#E0B667"/>
</radialGradient>
<linearGradient id="paint9_linear_2744_6025" x1="1491.11" y1="176.414" x2="1492.87" y2="164.378" gradientUnits="userSpaceOnUse">
<stop offset="0.384076" stop-color="#D3E7DD"/>
<stop offset="1" stop-color="#B0D2BC"/>
</linearGradient>
<linearGradient id="paint10_linear_2744_6025" x1="1485" y1="110" x2="1504.5" y2="162" gradientUnits="userSpaceOnUse">
<stop stop-color="#F0D8AC"/>
<stop offset="1" stop-color="#E0B667"/>
</linearGradient>
<linearGradient id="paint11_linear_2744_6025" x1="1502.5" y1="191" x2="1505.96" y2="164.048" gradientUnits="userSpaceOnUse">
<stop stop-color="#F0D8AC"/>
<stop offset="1" stop-color="#E0B667"/>
</linearGradient>
<linearGradient id="paint12_linear_2744_6025" x1="1490.92" y1="105.681" x2="1497.38" y2="82.4004" gradientUnits="userSpaceOnUse">
<stop offset="0.384076" stop-color="#D3E7DD"/>
<stop offset="1" stop-color="#B0D2BC"/>
</linearGradient>
<linearGradient id="paint13_linear_2744_6025" x1="1486.03" y1="74.7497" x2="1496.72" y2="111.779" gradientUnits="userSpaceOnUse">
<stop stop-color="#F0D8AC"/>
<stop offset="1" stop-color="#E0B667"/>
</linearGradient>
<radialGradient id="paint14_radial_2744_6025" cx="0" cy="0" r="1" gradientUnits="userSpaceOnUse" gradientTransform="translate(1492.5 73) rotate(56.3099) scale(3.60555 3.24599)">
<stop stop-color="#FFF2DA"/>
<stop offset="1" stop-color="#E0B667"/>
</radialGradient>
<linearGradient id="paint15_linear_2744_6025" x1="558" y1="95" x2="536.39" y2="70.2049" gradientUnits="userSpaceOnUse">
<stop stop-color="#F0D8AC"/>
<stop offset="1" stop-color="#E0B667"/>
</linearGradient>
<linearGradient id="paint16_linear_2744_6025" x1="1361" y1="95" x2="1339.39" y2="70.2049" gradientUnits="userSpaceOnUse">
<stop stop-color="#F0D8AC"/>
<stop offset="1" stop-color="#E0B667"/>
</linearGradient>
<linearGradient id="paint17_linear_2744_6025" x1="476.219" y1="302.968" x2="456.101" y2="399.667" gradientUnits="userSpaceOnUse">
<stop stop-color="#F0D8AC"/>
<stop offset="1" stop-color="#E0B667"/>
</linearGradient>
<radialGradient id="paint18_radial_2744_6025" cx="0" cy="0" r="1" gradientUnits="userSpaceOnUse" gradientTransform="translate(533.116 380.808) rotate(163.438) scale(219.025 337.069)">
<stop offset="0.384076" stop-color="#D3E7DD"/>
<stop offset="1" stop-color="#B0D2BC"/>
</radialGradient>
<clipPath id="clip0_2744_6025">
<rect width="1920" height="420" fill="white"/>
</clipPath>
</defs>
</svg>
