<svg width="430" height="460" viewBox="0 0 430 460" fill="none" xmlns="http://www.w3.org/2000/svg">
<g clip-path="url(#clip0_2744_6028)">
<path opacity="0.07" d="M214.663 416C232.727 416 248.702 407.234 258.695 393.768C263.043 394.876 267.573 395.529 272.267 395.529C302.049 395.529 326.232 371.788 327.04 342.216C355.189 339.89 377.319 316.36 377.319 287.623C377.319 283.513 376.831 279.523 375.974 275.672H377.297C381.106 275.128 392.937 270.726 397.425 259.361C405.584 238.699 420 230 420 230C420 230 405.584 221.301 397.425 200.639C392.937 189.274 381.106 184.872 377.297 184.328H375.974C376.831 180.477 377.319 176.487 377.319 172.377C377.319 143.64 355.189 120.11 327.04 117.784C326.232 88.2117 302.049 64.4724 272.267 64.4724C267.573 64.4724 263.044 65.1251 258.695 66.2333C248.702 52.7664 232.727 44 214.663 44C196.665 44 180.741 52.7046 170.739 66.0878C166.563 65.0708 162.223 64.4724 157.733 64.4724C129.347 64.4724 106 86.0256 103.173 113.651C101.528 115.197 99.9108 116.77 98.3318 118.384C72.4282 122.766 52.6807 145.239 52.6807 172.377C52.6807 176.487 53.1689 180.477 54.0265 184.328H52.7016C48.8945 184.872 37.0638 189.274 32.5753 200.639C24.4156 221.301 10 230 10 230C10 230 24.4156 238.699 32.5753 259.361C37.0638 270.726 48.8945 275.128 52.7016 275.672H54.0265C53.1689 279.523 52.6807 283.513 52.6807 287.623C52.6807 314.761 72.4282 337.235 98.3318 341.616C99.9099 343.23 101.528 344.803 103.173 346.35C106 373.975 129.347 395.529 157.733 395.529C162.223 395.529 166.563 394.93 170.739 393.913C180.741 407.296 196.665 416 214.663 416Z" fill="url(#paint0_linear_2744_6028)"/>
<path opacity="0.07" d="M215.225 382C229.984 382 243.037 374.836 251.202 363.831C254.754 364.737 258.456 365.27 262.291 365.27C286.624 365.27 306.384 345.87 307.044 321.704C330.044 319.802 348.127 300.573 348.127 277.089C348.127 273.731 347.728 270.471 347.027 267.323H348.109C351.22 266.879 360.887 263.281 364.554 253.993C371.221 237.109 383 230 383 230C383 230 371.221 222.891 364.554 206.007C360.887 196.719 351.22 193.12 348.109 192.676H347.027C347.728 189.528 348.127 186.268 348.127 182.91C348.127 159.426 330.044 140.197 307.044 138.296C306.384 114.129 286.624 94.7297 262.291 94.7297C258.456 94.7297 254.755 95.2632 251.202 96.1687C243.037 85.1636 229.984 78 215.225 78C200.519 78 187.508 85.1124 179.336 96.05C175.924 95.2185 172.377 94.7297 168.709 94.7297C145.516 94.7297 126.439 112.343 124.129 134.919C122.785 136.182 121.464 137.468 120.174 138.787C99.0083 142.367 82.8734 160.732 82.8734 182.91C82.8734 186.268 83.2722 189.528 83.9729 192.676H82.8914C79.7799 193.12 70.113 196.719 66.446 206.007C59.7786 222.891 48 230 48 230C48 230 59.7786 237.109 66.446 253.993C70.113 263.281 79.7799 266.879 82.8914 267.323H83.9729C83.2722 270.471 82.8734 273.731 82.8734 277.089C82.8734 299.268 99.0092 317.633 120.174 321.213C121.463 322.532 122.785 323.818 124.129 325.081C126.439 347.658 145.516 365.27 168.709 365.27C172.377 365.27 175.924 364.781 179.336 363.95C187.508 374.888 200.519 382 215.225 382Z" fill="url(#paint1_linear_2744_6028)"/>
<path opacity="0.07" d="M214.685 404C231.602 404 246.565 395.823 255.925 383.261C259.997 384.295 264.24 384.904 268.635 384.904C296.529 384.904 319.178 362.76 319.936 335.175C346.298 333.004 367.027 311.055 367.027 284.25C367.027 280.417 366.569 276.696 365.766 273.103H367.006C370.572 272.596 381.653 268.489 385.857 257.888C393.499 238.615 407 230.5 407 230.5C407 230.5 393.499 222.385 385.857 203.112C381.653 192.511 370.572 188.404 367.006 187.897H365.766C366.569 184.304 367.027 180.583 367.027 176.75C367.027 149.945 346.298 127.996 319.936 125.825C319.178 98.241 296.529 76.0969 268.635 76.0969C264.24 76.0969 259.997 76.7048 255.925 77.7389C246.565 65.1777 231.602 57 214.685 57C197.828 57 182.913 65.119 173.546 77.6034C169.635 76.6546 165.57 76.0969 161.366 76.0969C134.779 76.0969 112.912 96.2013 110.265 121.97C108.724 123.412 107.21 124.88 105.73 126.386C81.469 130.472 62.974 151.435 62.974 176.75C62.974 180.583 63.4316 184.304 64.2354 187.897H62.994C59.4278 188.404 48.3477 192.511 44.1432 203.112C36.501 222.385 23 230.5 23 230.5C23 230.5 36.501 238.615 44.1432 257.888C48.3477 268.489 59.4278 272.596 62.994 273.103H64.2354C63.4316 276.696 62.974 280.417 62.974 284.25C62.974 309.566 81.47 330.528 105.73 334.615C107.209 336.121 108.724 337.589 110.265 339.031C112.912 364.8 134.779 384.904 161.366 384.904C165.57 384.904 169.635 384.345 173.546 383.398C182.913 395.881 197.828 404 214.685 404Z" stroke="#DAC05A" stroke-width="2.66667" stroke-miterlimit="10"/>
<mask id="path-4-inside-1_2744_6028" fill="white">
<path d="M399.605 71.5508C399.605 70.01 398.354 68.758 396.815 68.758C395.273 68.758 394.021 70.01 394.021 71.5508C394.021 72.6243 394.627 73.5571 395.518 74.0243C395.656 74.0963 395.801 74.1579 395.953 74.2083C396.226 74.2963 396.513 74.3451 396.815 74.3451C397.114 74.3451 397.401 74.2963 397.674 74.2083C397.826 74.1579 397.97 74.0963 398.109 74.0243C398.997 73.5571 399.605 72.6243 399.605 71.5508ZM400.406 71.5508C400.406 72.9651 399.583 74.1947 398.391 74.7771C398.257 74.8435 398.12 74.9011 397.977 74.9499C397.705 75.0435 397.418 75.1051 397.119 75.1307C397.019 75.1403 396.917 75.1443 396.815 75.1443C396.711 75.1443 396.61 75.1403 396.509 75.1307C396.21 75.1051 395.922 75.0435 395.649 74.9499C395.506 74.9011 395.369 74.8435 395.235 74.7771C394.041 74.1907 393.22 72.9651 393.22 71.5508C393.22 69.5708 394.831 67.9588 396.815 67.9588C398.793 67.9588 400.406 69.5708 400.406 71.5508Z"/>
</mask>
<path d="M399.605 71.5508C399.605 70.01 398.354 68.758 396.815 68.758C395.273 68.758 394.021 70.01 394.021 71.5508C394.021 72.6243 394.627 73.5571 395.518 74.0243C395.656 74.0963 395.801 74.1579 395.953 74.2083C396.226 74.2963 396.513 74.3451 396.815 74.3451C397.114 74.3451 397.401 74.2963 397.674 74.2083C397.826 74.1579 397.97 74.0963 398.109 74.0243C398.997 73.5571 399.605 72.6243 399.605 71.5508ZM400.406 71.5508C400.406 72.9651 399.583 74.1947 398.391 74.7771C398.257 74.8435 398.12 74.9011 397.977 74.9499C397.705 75.0435 397.418 75.1051 397.119 75.1307C397.019 75.1403 396.917 75.1443 396.815 75.1443C396.711 75.1443 396.61 75.1403 396.509 75.1307C396.21 75.1051 395.922 75.0435 395.649 74.9499C395.506 74.9011 395.369 74.8435 395.235 74.7771C394.041 74.1907 393.22 72.9651 393.22 71.5508C393.22 69.5708 394.831 67.9588 396.815 67.9588C398.793 67.9588 400.406 69.5708 400.406 71.5508Z" fill="#D7B372"/>
<path d="M395.518 74.0243L394.898 75.205L394.902 75.2072L395.518 74.0243ZM395.953 74.2083L395.533 75.4739L395.543 75.4773L395.953 74.2083ZM397.674 74.2083L398.083 75.4773L398.093 75.4739L397.674 74.2083ZM398.109 74.0243L398.722 75.2086L398.73 75.2043L398.109 74.0243ZM398.391 74.7771L397.806 73.5791L397.798 73.5831L398.391 74.7771ZM397.977 74.9499L397.545 73.6886L397.545 73.6887L397.977 74.9499ZM397.119 75.1307L397.005 73.8022L396.992 73.8035L397.119 75.1307ZM396.509 75.1307L396.635 73.8033L396.623 73.8022L396.509 75.1307ZM395.649 74.9499L396.081 73.6887L396.079 73.6878L395.649 74.9499ZM395.235 74.7771L395.829 73.5831L395.823 73.5802L395.235 74.7771ZM400.939 71.5508C400.939 69.2746 399.092 67.4247 396.815 67.4247V70.0914C397.617 70.0914 398.272 70.7454 398.272 71.5508H400.939ZM396.815 67.4247C394.537 67.4247 392.687 69.2731 392.687 71.5508H395.354C395.354 70.7469 396.009 70.0914 396.815 70.0914V67.4247ZM392.687 71.5508C392.687 73.1392 393.586 74.5166 394.898 75.205L396.137 72.8436C395.668 72.5976 395.354 72.1094 395.354 71.5508H392.687ZM394.902 75.2072C395.103 75.3114 395.313 75.4008 395.533 75.4739L396.372 72.9427C396.289 72.915 396.209 72.8812 396.133 72.8415L394.902 75.2072ZM395.543 75.4773C395.941 75.6056 396.367 75.6784 396.815 75.6784V73.0118C396.659 73.0118 396.51 72.987 396.362 72.9394L395.543 75.4773ZM396.815 75.6784C397.261 75.6784 397.686 75.6053 398.083 75.4773L397.264 72.9394C397.116 72.9873 396.966 73.0118 396.815 73.0118V75.6784ZM398.093 75.4739C398.314 75.4008 398.523 75.3116 398.722 75.2086L397.497 72.84C397.418 72.881 397.337 72.9151 397.254 72.9427L398.093 75.4739ZM398.73 75.2043C400.038 74.5164 400.939 73.1402 400.939 71.5508H398.272C398.272 72.1085 397.957 72.5978 397.489 72.8443L398.73 75.2043ZM399.073 71.5508C399.073 72.4369 398.557 73.212 397.806 73.5791L398.976 75.9751C400.609 75.1774 401.74 73.4933 401.74 71.5508H399.073ZM397.798 73.5831C397.716 73.6237 397.632 73.6588 397.545 73.6886L398.41 76.2112C398.608 76.1434 398.799 76.0633 398.985 75.9711L397.798 73.5831ZM397.545 73.6887C397.374 73.7472 397.194 73.786 397.005 73.8022L397.233 76.4591C397.641 76.4242 398.035 76.3398 398.41 76.2111L397.545 73.6887ZM396.992 73.8035C396.942 73.8082 396.883 73.811 396.815 73.811V76.4776C396.951 76.4776 397.096 76.4723 397.247 76.4579L396.992 73.8035ZM396.815 73.811C396.745 73.811 396.687 73.8083 396.635 73.8034L396.382 76.458C396.533 76.4723 396.677 76.4776 396.815 76.4776V73.811ZM396.623 73.8022C396.433 73.7859 396.251 73.7469 396.081 73.6887L395.216 76.2111C395.592 76.3401 395.988 76.4242 396.395 76.4591L396.623 73.8022ZM396.079 73.6878C395.994 73.659 395.912 73.6245 395.829 73.5831L394.642 75.9711C394.826 76.0625 395.017 76.1432 395.219 76.212L396.079 73.6878ZM395.823 73.5802C395.066 73.2087 394.553 72.4359 394.553 71.5508H391.887C391.887 73.4944 393.016 75.1728 394.648 75.974L395.823 73.5802ZM394.553 71.5508C394.553 70.3078 395.567 69.2922 396.815 69.2922V66.6255C394.095 66.6255 391.887 68.8338 391.887 71.5508H394.553ZM396.815 69.2922C398.057 69.2922 399.073 70.3072 399.073 71.5508H401.74C401.74 68.8344 399.53 66.6255 396.815 66.6255V69.2922Z" fill="#D7B372" mask="url(#path-4-inside-1_2744_6028)"/>
<path d="M396.813 68.3594V-96.0002V68.3594Z" fill="#D7B372"/>
<path d="M396.813 68.3594V-96.0002" stroke="#D7B372" stroke-miterlimit="10"/>
<path d="M406.845 136.046C406.72 135.727 406.57 135.446 406.424 135.21C406.151 134.765 405.901 134.497 405.901 134.497L397.272 134.419V134.409L396.811 134.414L396.351 134.409V134.419L387.724 134.497C387.724 134.497 387.472 134.765 387.199 135.21C387.053 135.446 386.902 135.727 386.778 136.046C386.492 136.774 386.346 137.69 386.73 138.641C387.653 140.917 391.802 142.67 394.508 143.465H399.116C401.82 142.67 405.97 140.917 406.893 138.641C407.277 137.69 407.13 136.774 406.845 136.046Z" fill="#E5E5E5"/>
<path d="M406.845 136.046C406.72 135.727 406.57 135.446 406.424 135.21C406.151 134.765 405.901 134.497 405.901 134.497L397.272 134.419V134.409L396.811 134.414L396.351 134.409V134.419L387.724 134.497C387.724 134.497 387.472 134.765 387.199 135.21C387.053 135.446 386.902 135.727 386.778 136.046C386.492 136.774 386.346 137.69 386.73 138.641C387.653 140.917 391.802 142.67 394.508 143.465H399.116C401.82 142.67 405.97 140.917 406.893 138.641C407.277 137.69 407.13 136.774 406.845 136.046Z" fill="url(#paint2_linear_2744_6028)"/>
<path d="M408.036 99.9684L407.95 99.8795L406.979 98.8779H386.643L385.676 99.8795L385.59 99.9684L384.071 101.539V110.58V122.283V131.325L385.59 132.895L385.676 132.983L386.643 133.986H406.979L407.95 132.983L408.036 132.895L409.551 131.325V122.283V110.58V101.539L408.036 99.9684Z" fill="url(#paint3_linear_2744_6028)"/>
<path d="M398.146 147.666C398.146 146.928 397.549 146.33 396.811 146.33C396.074 146.33 395.477 146.928 395.477 147.666C395.477 148.403 396.074 149 396.811 149C397.549 149 398.146 148.403 398.146 147.666Z" fill="#F8B12C"/>
<path fill-rule="evenodd" clip-rule="evenodd" d="M399.118 143.729C399.118 143.795 399.115 143.863 399.109 143.929C399.026 144.897 398.365 145.762 397.771 146.35C397.488 146.63 397.223 146.846 397.04 146.981C396.897 147.095 396.725 147.095 396.583 146.981C396.401 146.846 396.135 146.63 395.853 146.35C395.259 145.762 394.596 144.897 394.513 143.929C394.508 143.863 394.505 143.795 394.505 143.729C394.505 143.541 394.517 143.358 394.537 143.178C394.545 143.099 394.556 143.025 394.577 142.95C394.599 142.853 394.628 142.762 394.663 142.679C393.565 141.744 392.4 140.338 392.076 138.64C391.819 137.291 392.068 136.007 392.289 135.235H386.569C386.046 135.235 385.621 134.81 385.621 134.286C385.621 133.762 386.046 133.337 386.569 133.337H407.054C407.578 133.337 408.003 133.762 408.003 134.286C408.003 134.81 407.578 135.235 407.054 135.235H401.335C401.556 136.007 401.804 137.291 401.547 138.64C401.224 140.338 400.059 141.744 398.96 142.679C398.995 142.762 399.025 142.853 399.047 142.95C399.067 143.025 399.078 143.099 399.087 143.178C399.107 143.358 399.118 143.541 399.118 143.729Z" fill="url(#paint4_linear_2744_6028)"/>
<path d="M407.676 90.1936C406.794 86.114 403.177 82.8688 400.337 81.0677C399.85 80.7576 399.388 80.4928 398.964 80.2708H394.659C394.235 80.4928 393.773 80.7576 393.286 81.0677C390.446 82.8688 386.829 86.114 385.946 90.1936C385.35 92.9485 385.938 95.5692 386.452 97.1222C386.746 98.021 387.018 98.5584 387.018 98.5584L396.314 98.7204V98.7378L396.812 98.7291L397.308 98.7378V98.7204L406.608 98.5584C406.608 98.5584 406.877 98.021 407.171 97.1222C407.685 95.5692 408.273 92.9485 407.676 90.1936Z" fill="#E5E5E5"/>
<path d="M407.676 90.1936C406.794 86.114 403.177 82.8688 400.337 81.0677C399.85 80.7576 399.388 80.4928 398.964 80.2708H394.659C394.235 80.4928 393.773 80.7576 393.286 81.0677C390.446 82.8688 386.829 86.114 385.946 90.1936C385.35 92.9485 385.938 95.5692 386.452 97.1222C386.746 98.021 387.018 98.5584 387.018 98.5584L396.314 98.7204V98.7378L396.812 98.7291L397.308 98.7378V98.7204L406.608 98.5584C406.608 98.5584 406.877 98.021 407.171 97.1222C407.685 95.5692 408.273 92.9485 407.676 90.1936Z" fill="url(#paint5_linear_2744_6028)"/>
<path fill-rule="evenodd" clip-rule="evenodd" d="M386.569 99.5261H407.054C407.578 99.5261 408.003 99.1011 408.003 98.5768C408.003 98.0525 407.578 97.6274 407.054 97.6274H402.099C402.375 96.1899 402.797 93.2742 402.452 90.1933C401.966 85.8654 399.884 82.4767 398.379 80.7534C398.481 80.7279 398.579 80.675 398.667 80.5968C398.841 80.44 398.979 80.197 399.047 79.8974C399.067 79.8225 399.078 79.7485 399.087 79.6692C399.107 79.4889 399.118 79.306 399.118 79.1179C399.118 78.0675 398.405 77.1251 397.771 76.4972C397.488 76.2176 397.223 76.0007 397.04 75.8666C396.897 75.7525 396.725 75.7525 396.583 75.8666C396.401 76.0007 396.135 76.2176 395.853 76.4972C395.219 77.1251 394.505 78.0675 394.505 79.1179C394.505 79.306 394.517 79.4889 394.537 79.6692C394.545 79.7485 394.556 79.8225 394.577 79.8974C394.645 80.197 394.781 80.44 394.956 80.5968C395.044 80.6752 395.142 80.7281 395.244 80.7535C393.739 82.4769 391.657 85.8655 391.171 90.1933C390.826 93.2742 391.249 96.1899 391.525 97.6274H386.569C386.046 97.6274 385.621 98.0525 385.621 98.5768C385.621 99.1011 386.046 99.5261 386.569 99.5261Z" fill="url(#paint6_linear_2744_6028)"/>
<path d="M398.146 75.1807C398.146 75.9184 397.549 76.5159 396.811 76.5159C396.074 76.5159 395.476 75.9184 395.476 75.1807C395.476 74.4439 396.074 73.8464 396.811 73.8464C397.549 73.8464 398.146 74.4439 398.146 75.1807Z" fill="url(#paint7_radial_2744_6028)"/>
<path d="M400.595 108.231C403.066 110.216 402.17 111.708 401.349 112.458V128.99H392.274V112.458C391.452 111.708 390.556 110.216 393.028 108.231C396.657 105.315 396.811 103.656 396.811 103.656C396.811 103.656 396.965 105.315 400.595 108.231Z" fill="#D7B372"/>
<path d="M408.309 108.231C409.505 110.216 409.071 111.708 408.675 112.458V128.99H404.288V112.458C403.891 111.708 403.458 110.216 404.653 108.231C406.406 105.315 406.482 103.656 406.482 103.656C406.482 103.656 406.556 105.315 408.309 108.231Z" fill="#D7B372"/>
<path d="M388.97 108.231C390.165 110.216 389.732 111.708 389.335 112.458V128.99H384.948V112.458C384.55 111.708 384.118 110.216 385.312 108.231C387.067 105.315 387.141 103.656 387.141 103.656C387.141 103.656 387.215 105.315 388.97 108.231Z" fill="#D7B372"/>
<mask id="path-18-inside-2_2744_6028" fill="white">
<path d="M29.9458 71.5508C29.9458 70.01 31.197 68.758 32.7361 68.758C34.2785 68.758 35.5305 70.01 35.5305 71.5508C35.5305 72.6243 34.9241 73.5571 34.0337 74.0243C33.8953 74.0963 33.7505 74.1579 33.5985 74.2083C33.3257 74.2963 33.0385 74.3451 32.7361 74.3451C32.4378 74.3451 32.1506 74.2963 31.8778 74.2083C31.7258 74.1579 31.581 74.0963 31.4418 74.0243C30.5538 73.5571 29.9458 72.6243 29.9458 71.5508ZM29.145 71.5508C29.145 72.9651 29.9682 74.1947 31.1602 74.7771C31.2938 74.8435 31.4314 74.9011 31.5738 74.9499C31.8466 75.0435 32.1338 75.1051 32.4322 75.1307C32.5321 75.1403 32.6345 75.1443 32.7361 75.1443C32.8401 75.1443 32.9417 75.1403 33.0425 75.1307C33.3409 75.1051 33.6297 75.0435 33.9025 74.9499C34.0457 74.9011 34.1825 74.8435 34.3161 74.7771C35.5105 74.1907 36.3313 72.9651 36.3313 71.5508C36.3313 69.5708 34.7201 67.9588 32.7361 67.9588C30.7578 67.9588 29.145 69.5708 29.145 71.5508Z"/>
</mask>
<path d="M29.9458 71.5508C29.9458 70.01 31.197 68.758 32.7361 68.758C34.2785 68.758 35.5305 70.01 35.5305 71.5508C35.5305 72.6243 34.9241 73.5571 34.0337 74.0243C33.8953 74.0963 33.7505 74.1579 33.5985 74.2083C33.3257 74.2963 33.0385 74.3451 32.7361 74.3451C32.4378 74.3451 32.1506 74.2963 31.8778 74.2083C31.7258 74.1579 31.581 74.0963 31.4418 74.0243C30.5538 73.5571 29.9458 72.6243 29.9458 71.5508ZM29.145 71.5508C29.145 72.9651 29.9682 74.1947 31.1602 74.7771C31.2938 74.8435 31.4314 74.9011 31.5738 74.9499C31.8466 75.0435 32.1338 75.1051 32.4322 75.1307C32.5321 75.1403 32.6345 75.1443 32.7361 75.1443C32.8401 75.1443 32.9417 75.1403 33.0425 75.1307C33.3409 75.1051 33.6297 75.0435 33.9025 74.9499C34.0457 74.9011 34.1825 74.8435 34.3161 74.7771C35.5105 74.1907 36.3313 72.9651 36.3313 71.5508C36.3313 69.5708 34.7201 67.9588 32.7361 67.9588C30.7578 67.9588 29.145 69.5708 29.145 71.5508Z" fill="#D7B372"/>
<path d="M34.0337 74.0243L34.6532 75.205L34.6491 75.2072L34.0337 74.0243ZM33.5985 74.2083L34.0182 75.4739L34.0079 75.4773L33.5985 74.2083ZM31.8778 74.2083L31.4684 75.4773L31.4581 75.4739L31.8778 74.2083ZM31.4418 74.0243L30.8292 75.2086L30.821 75.2043L31.4418 74.0243ZM31.1602 74.7771L31.7455 73.5791L31.7536 73.5831L31.1602 74.7771ZM31.5738 74.9499L32.006 73.6886L32.0065 73.6887L31.5738 74.9499ZM32.4322 75.1307L32.5461 73.8022L32.5596 73.8035L32.4322 75.1307ZM33.0425 75.1307L32.9161 73.8033L32.9286 73.8022L33.0425 75.1307ZM33.9025 74.9499L33.4698 73.6887L33.4724 73.6878L33.9025 74.9499ZM34.3161 74.7771L33.7227 73.5831L33.7285 73.5802L34.3161 74.7771ZM28.6125 71.5508C28.6125 69.2746 30.4596 67.4247 32.7361 67.4247V70.0914C31.9344 70.0914 31.2791 70.7454 31.2791 71.5508H28.6125ZM32.7361 67.4247C35.0144 67.4247 36.8638 69.2731 36.8638 71.5508H34.1972C34.1972 70.7469 33.5426 70.0914 32.7361 70.0914V67.4247ZM36.8638 71.5508C36.8638 73.1392 35.9652 74.5166 34.6532 75.205L33.4142 72.8436C33.883 72.5976 34.1972 72.1094 34.1972 71.5508H36.8638ZM34.6491 75.2072C34.4487 75.3114 34.2385 75.4008 34.0182 75.4739L33.1789 72.9427C33.2625 72.915 33.3419 72.8812 33.4184 72.8415L34.6491 75.2072ZM34.0079 75.4773C33.6098 75.6056 33.1847 75.6784 32.7361 75.6784V73.0118C32.8924 73.0118 33.0416 72.987 33.1892 72.9394L34.0079 75.4773ZM32.7361 75.6784C32.2906 75.6784 31.8655 75.6053 31.4684 75.4773L32.2871 72.9394C32.4356 72.9873 32.5849 73.0118 32.7361 73.0118V75.6784ZM31.4581 75.4739C31.2376 75.4008 31.0284 75.3116 30.8292 75.2086L32.0543 72.84C32.1335 72.881 32.2139 72.9151 32.2974 72.9427L31.4581 75.4739ZM30.821 75.2043C29.5135 74.5164 28.6125 73.1402 28.6125 71.5508H31.2791C31.2791 72.1085 31.5941 72.5978 32.0626 72.8443L30.821 75.2043ZM30.4784 71.5508C30.4784 72.4369 30.9942 73.212 31.7455 73.5791L30.5749 75.9751C28.9422 75.1774 27.8117 73.4933 27.8117 71.5508H30.4784ZM31.7536 73.5831C31.8354 73.6237 31.9191 73.6588 32.006 73.6886L31.1415 76.2112C30.9436 76.1434 30.7522 76.0633 30.5668 75.9711L31.7536 73.5831ZM32.0065 73.6887C32.177 73.7472 32.3572 73.786 32.5461 73.8022L32.3182 76.4591C31.9104 76.4242 31.5162 76.3398 31.1411 76.2111L32.0065 73.6887ZM32.5596 73.8035C32.6095 73.8082 32.6686 73.811 32.7361 73.811V76.4776C32.6005 76.4776 32.4548 76.4723 32.3047 76.4579L32.5596 73.8035ZM32.7361 73.811C32.8061 73.811 32.8647 73.8083 32.9161 73.8034L33.169 76.458C33.0188 76.4723 32.8742 76.4776 32.7361 76.4776V73.811ZM32.9286 73.8022C33.1185 73.7859 33.3003 73.7469 33.4698 73.6887L34.3352 76.2111C33.9592 76.3401 33.5633 76.4242 33.1565 76.4591L32.9286 73.8022ZM33.4724 73.6878C33.5571 73.659 33.6394 73.6245 33.7227 73.5831L34.9095 75.9711C34.7256 76.0625 34.5344 76.1432 34.3326 76.212L33.4724 73.6878ZM33.7285 73.5802C34.4853 73.2087 34.9979 72.4359 34.9979 71.5508H37.6646C37.6646 73.4944 36.5356 75.1728 34.9037 75.974L33.7285 73.5802ZM34.9979 71.5508C34.9979 70.3078 33.9843 69.2922 32.7361 69.2922V66.6255C35.4559 66.6255 37.6646 68.8338 37.6646 71.5508H34.9979ZM32.7361 69.2922C31.4942 69.2922 30.4784 70.3072 30.4784 71.5508H27.8117C27.8117 68.8344 30.0214 66.6255 32.7361 66.6255V69.2922Z" fill="#D7B372" mask="url(#path-18-inside-2_2744_6028)"/>
<path d="M32.7378 68.3594V-96.0002V68.3594Z" fill="#D7B372"/>
<path d="M32.7378 68.3594V-96.0002" stroke="#D7B372" stroke-miterlimit="10"/>
<path d="M22.7065 136.046C22.8311 135.727 22.9817 135.446 23.1272 135.21C23.4007 134.765 23.6498 134.497 23.6498 134.497L32.2793 134.419V134.409L32.74 134.414L33.2008 134.409V134.419L41.8277 134.497C41.8277 134.497 42.0794 134.765 42.352 135.21C42.4983 135.446 42.649 135.727 42.7735 136.046C43.0592 136.774 43.2055 137.69 42.8214 138.641C41.8982 140.917 37.7489 142.67 35.0437 143.465H30.4355C27.7311 142.67 23.581 140.917 22.6586 138.641C22.2745 137.69 22.4208 136.774 22.7065 136.046Z" fill="#E5E5E5"/>
<path d="M22.7065 136.046C22.8311 135.727 22.9817 135.446 23.1272 135.21C23.4007 134.765 23.6498 134.497 23.6498 134.497L32.2793 134.419V134.409L32.74 134.414L33.2008 134.409V134.419L41.8277 134.497C41.8277 134.497 42.0794 134.765 42.352 135.21C42.4983 135.446 42.649 135.727 42.7735 136.046C43.0592 136.774 43.2055 137.69 42.8214 138.641C41.8982 140.917 37.7489 142.67 35.0437 143.465H30.4355C27.7311 142.67 23.581 140.917 22.6586 138.641C22.2745 137.69 22.4208 136.774 22.7065 136.046Z" fill="url(#paint8_linear_2744_6028)"/>
<path d="M21.5155 99.9684L21.6008 99.8795L22.572 98.8779H42.9081L43.8757 99.8795L43.9611 99.9684L45.48 101.539V110.58V122.283V131.325L43.9611 132.895L43.8757 132.983L42.9081 133.986H22.572L21.6008 132.983L21.5155 132.895L20 131.325V122.283V110.58V101.539L21.5155 99.9684Z" fill="url(#paint9_linear_2744_6028)"/>
<path d="M31.4048 147.666C31.4048 146.928 32.0023 146.33 32.74 146.33C33.4768 146.33 34.0743 146.928 34.0743 147.666C34.0743 148.403 33.4768 149 32.74 149C32.0023 149 31.4048 148.403 31.4048 147.666Z" fill="#F8B12C"/>
<path fill-rule="evenodd" clip-rule="evenodd" d="M30.4333 143.729C30.4333 143.795 30.4359 143.863 30.442 143.929C30.5248 144.897 31.1867 145.762 31.7807 146.35C32.0629 146.63 32.3285 146.846 32.5115 146.981C32.6543 147.095 32.8259 147.095 32.9678 146.981C33.1507 146.846 33.4164 146.63 33.6986 146.35C34.2926 145.762 34.9554 144.897 35.0381 143.929C35.0433 143.863 35.046 143.795 35.046 143.729C35.046 143.541 35.0346 143.358 35.0146 143.178C35.0068 143.099 34.9954 143.025 34.9745 142.95C34.9526 142.853 34.9235 142.762 34.8883 142.679C35.9867 141.744 37.1515 140.338 37.4753 138.64C37.7318 137.291 37.4837 136.007 37.2625 135.235H42.9823C43.5057 135.235 43.9307 134.81 43.9307 134.286C43.9307 133.762 43.5057 133.337 42.9823 133.337H22.4972C21.9729 133.337 21.5479 133.762 21.5479 134.286C21.5479 134.81 21.9729 135.235 22.4972 135.235H28.2164C27.9954 136.007 27.7475 137.291 28.0045 138.64C28.3276 140.338 29.4926 141.744 30.5912 142.679C30.5559 142.762 30.5267 142.853 30.5048 142.95C30.4847 143.025 30.4734 143.099 30.4647 143.178C30.4447 143.358 30.4333 143.541 30.4333 143.729Z" fill="url(#paint10_linear_2744_6028)"/>
<path d="M21.8751 90.1936C22.7574 86.114 26.3745 82.8688 29.2139 81.0677C29.7016 80.7576 30.1632 80.4928 30.5874 80.2708H34.8926C35.3158 80.4928 35.7783 80.7576 36.2652 81.0677C39.1054 82.8688 42.7225 86.114 43.6048 90.1936C44.2014 92.9485 43.6135 95.5692 43.0988 97.1222C42.8053 98.021 42.5335 98.5584 42.5335 98.5584L33.2369 98.7204V98.7378L32.7395 98.7291L32.2431 98.7378V98.7204L22.9429 98.5584C22.9429 98.5584 22.6747 98.021 22.3803 97.1222C21.8664 95.5692 21.2785 92.9485 21.8751 90.1936Z" fill="#E5E5E5"/>
<path d="M21.8751 90.1936C22.7574 86.114 26.3745 82.8688 29.2139 81.0677C29.7016 80.7576 30.1632 80.4928 30.5874 80.2708H34.8926C35.3158 80.4928 35.7783 80.7576 36.2652 81.0677C39.1054 82.8688 42.7225 86.114 43.6048 90.1936C44.2014 92.9485 43.6135 95.5692 43.0988 97.1222C42.8053 98.021 42.5335 98.5584 42.5335 98.5584L33.2369 98.7204V98.7378L32.7395 98.7291L32.2431 98.7378V98.7204L22.9429 98.5584C22.9429 98.5584 22.6747 98.021 22.3803 97.1222C21.8664 95.5692 21.2785 92.9485 21.8751 90.1936Z" fill="url(#paint11_linear_2744_6028)"/>
<path fill-rule="evenodd" clip-rule="evenodd" d="M42.9823 99.5261H22.4972C21.9729 99.5261 21.5479 99.1011 21.5479 98.5768C21.5479 98.0525 21.9729 97.6274 22.4972 97.6274H27.4523C27.1766 96.1899 26.7538 93.2742 27.0994 90.1933C27.5854 85.8654 29.6677 82.4767 31.1722 80.7534C31.0698 80.7279 30.9722 80.675 30.8844 80.5968C30.7103 80.44 30.5726 80.197 30.5047 79.8974C30.4847 79.8225 30.4734 79.7485 30.4646 79.6692C30.4446 79.4889 30.4333 79.306 30.4333 79.1179C30.4333 78.0675 31.1466 77.1251 31.7807 76.4972C32.0629 76.2176 32.3285 76.0007 32.5114 75.8666C32.6542 75.7525 32.8258 75.7525 32.9678 75.8666C33.1507 76.0007 33.4163 76.2176 33.6985 76.4972C34.3326 77.1251 35.0459 78.0675 35.0459 79.1179C35.0459 79.306 35.0346 79.4889 35.0146 79.6692C35.0067 79.7485 34.9954 79.8225 34.9745 79.8974C34.9066 80.197 34.7698 80.44 34.5956 80.5968C34.5071 80.6752 34.4095 80.7281 34.3068 80.7535C35.8119 82.4769 37.8941 85.8655 38.3801 90.1933C38.7257 93.2742 38.3025 96.1899 38.0265 97.6274H42.9823C43.5057 97.6274 43.9307 98.0525 43.9307 98.5768C43.9307 99.1011 43.5057 99.5261 42.9823 99.5261Z" fill="url(#paint12_linear_2744_6028)"/>
<path d="M31.4053 75.1807C31.4053 75.9184 32.0028 76.5159 32.7405 76.5159C33.4773 76.5159 34.0748 75.9184 34.0748 75.1807C34.0748 74.4439 33.4773 73.8464 32.7405 73.8464C32.0028 73.8464 31.4053 74.4439 31.4053 75.1807Z" fill="url(#paint13_radial_2744_6028)"/>
<path d="M28.9561 108.231C26.4852 110.216 27.3814 111.708 28.2027 112.458V128.99H37.2773V112.458C38.0995 111.708 38.9948 110.216 36.523 108.231C32.8946 105.315 32.7404 103.656 32.7404 103.656C32.7404 103.656 32.5863 105.315 28.9561 108.231Z" fill="#D7B372"/>
<path d="M21.2419 108.231C20.0461 110.216 20.4798 111.708 20.8761 112.458V128.99H25.2631V112.458C25.6603 111.708 26.0932 110.216 24.8982 108.231C23.1449 105.315 23.0692 103.656 23.0692 103.656C23.0692 103.656 22.9951 105.315 21.2419 108.231Z" fill="#D7B372"/>
<path d="M40.5808 108.231C39.3867 110.216 39.8196 111.708 40.2167 112.458V128.99H44.6029V112.458C45.0009 111.708 45.4329 110.216 44.2388 108.231C42.4847 105.315 42.4098 103.656 42.4098 103.656C42.4098 103.656 42.3358 105.315 40.5808 108.231Z" fill="#D7B372"/>
<path d="M94.2754 49.9858V-181" stroke="#D7B372" stroke-width="1.33333" stroke-miterlimit="10"/>
<path fill-rule="evenodd" clip-rule="evenodd" d="M94.2755 44.9828C94.2755 44.9828 94.2755 44.9828 94.2755 44.9828V44.9828C94.2469 45.0045 92.0835 46.6543 92.0835 50.465C92.0835 50.465 86.9953 55.0833 89.8913 58.3722V86.0266C89.8913 86.0266 92.005 89.0595 94.2755 89.9985V90C96.546 89.0599 98.6599 86.0268 98.6599 86.0268V58.3724C101.556 55.0847 96.4677 50.4652 96.4677 50.4652C96.4677 46.6366 94.284 44.9892 94.2755 44.9828Z" fill="url(#paint14_linear_2744_6028)"/>
<path d="M92.8663 61.5529C92.8663 59.4892 94.2751 58.3692 94.2751 58.3692C94.2751 58.3692 95.684 59.4892 95.684 61.5529C95.684 61.5529 97.1479 61.9471 97.1479 63.0169V83.7629C97.1479 83.7629 95.5799 86.2158 94.2751 86.2158C92.9703 86.2158 91.4023 83.7629 91.4023 83.7629V63.0169C91.4023 61.9471 92.8663 61.5529 92.8663 61.5529Z" fill="#FFF4C7"/>
<path d="M335.276 49.9858V-181" stroke="#D7B372" stroke-width="1.33333" stroke-miterlimit="10"/>
<path fill-rule="evenodd" clip-rule="evenodd" d="M335.276 44.9828C335.276 44.9828 335.276 44.9828 335.276 44.9828V44.9828C335.304 45.0045 337.468 46.6543 337.468 50.465C337.468 50.465 342.556 55.0833 339.66 58.3722V86.0266C339.66 86.0266 337.546 89.0595 335.276 89.9985V90C333.005 89.0599 330.891 86.0268 330.891 86.0268V58.3724C327.995 55.0847 333.084 50.4652 333.084 50.4652C333.084 46.6366 335.267 44.9892 335.276 44.9828Z" fill="url(#paint15_linear_2744_6028)"/>
<path d="M336.685 61.5529C336.685 59.4892 335.276 58.3692 335.276 58.3692C335.276 58.3692 333.867 59.4892 333.867 61.5529C333.867 61.5529 332.403 61.9471 332.403 63.0169V83.7629C332.403 83.7629 333.971 86.2158 335.276 86.2158C336.581 86.2158 338.149 83.7629 338.149 83.7629V63.0169C338.149 61.9471 336.685 61.5529 336.685 61.5529Z" fill="#FFF4C7"/>
<path fill-rule="evenodd" clip-rule="evenodd" d="M85.08 414.85C85.4373 413.887 84.209 413.178 83.4171 413.833C78.8425 417.613 72.9749 419.885 66.5767 419.885C51.9673 419.885 40.1241 408.041 40.1241 393.432C40.1241 389.914 40.8107 386.557 42.0572 383.487C42.4443 382.534 41.3961 381.571 40.5836 382.202C33.8279 387.451 29.481 395.654 29.481 404.872C29.481 420.717 42.3263 433.563 58.1719 433.563C70.5085 433.563 81.0266 425.776 85.08 414.85Z" fill="url(#paint16_linear_2744_6028)"/>
<path d="M9.16375 444.573C9.16375 444.573 9.16375 446.768 12.5335 448.14C15.9032 449.512 20.1152 448.14 20.1152 448.14C20.1152 448.14 20.1152 452.53 24.608 453.902C29.1007 455.274 30.7857 452.53 30.7857 452.53C30.7857 452.53 30.7857 454.999 35.8401 456.92C40.8945 458.841 46.5106 456.371 46.5106 456.371C46.5106 456.371 47.9778 465.987 58.8661 465.699C71.6495 465.362 73.468 456.096 73.468 456.096C73.468 456.096 75.4337 457.468 81.8921 455.548C88.3506 453.627 89.4739 446.493 89.4739 446.493C89.4739 446.493 96.7747 447.042 95.9323 442.378C95.09 437.713 89.4739 439.085 89.4739 439.085C89.4739 439.085 87.2276 430.854 77.6801 428.385C68.1326 425.915 60.5512 434.421 60.5512 434.421C60.5512 434.421 60.2705 429.757 53.8117 427.562C47.353 425.367 42.5796 429.208 42.5796 429.208C42.5796 429.208 40.7394 423.378 34.1554 423.72C28.4361 424.018 26.5737 430.58 26.5737 430.58C26.5737 430.58 24.608 429.208 19.8342 430.58C15.0605 431.951 14.2182 438.811 14.2182 438.811C14.2182 438.811 11.9206 435.636 7.19806 439.085C7.19806 439.085 0.23575 435.938 0.00357309 441.609C-0.209338 446.812 9.16375 444.573 9.16375 444.573Z" fill="url(#paint17_radial_2744_6028)"/>
<path fill-rule="evenodd" clip-rule="evenodd" d="M402.225 396.43L402.515 421.107H404.165V423.28C404.165 423.864 403.691 424.338 403.106 424.338H402.553L403.685 460.28H355.709H308L308.946 437.576C309.013 435.969 310.335 434.701 311.944 434.701H316.848V430.056C316.848 429.505 317.294 429.059 317.844 429.059H321.079V422.683C321.079 422.105 321.547 421.637 322.126 421.637H322.754V417.178C322.754 416.613 323.212 416.157 323.775 416.157H324.714C325.757 411.527 328.412 407.42 332.2 404.565C337.392 400.651 344.717 394.996 348.495 391.468C349.396 390.629 349.905 389.453 349.905 388.221V379.369C349.251 379.122 348.624 378.765 348.055 378.295C345.286 376.003 344.897 371.901 347.189 369.132C348.007 368.143 349.056 367.456 350.195 367.089C349.485 367.45 348.837 367.958 348.299 368.609C346.192 371.157 346.548 374.929 349.095 377.037C351.643 379.144 355.416 378.787 357.523 376.239C358.061 375.588 358.44 374.856 358.66 374.092C358.512 375.279 358.037 376.438 357.217 377.427C356.071 378.815 354.467 379.605 352.807 379.759V388.221C352.807 389.453 353.316 390.629 354.216 391.468C357.994 394.996 365.32 400.651 370.511 404.565C374.3 407.42 376.955 411.527 377.998 416.157H378.935C379.5 416.157 379.958 416.613 379.958 417.178V421.637H380.586C381.163 421.637 381.632 422.105 381.632 422.683V429.059H387.029C387.58 429.059 388.026 429.505 388.026 430.056V434.701H393.598V435.744L393.773 424.338H393.114C392.531 424.338 392.057 423.864 392.057 423.28V421.107H393.823L394.202 396.43H393.9C393.317 396.43 392.843 395.956 392.843 395.371V393.618H394.246L394.678 365.553C394.227 365.433 393.892 365.022 393.892 364.531V363.34H393.909V362.999C393.909 362.919 393.976 362.854 394.056 362.854H394.142V362.235C394.142 362.156 394.206 362.093 394.284 362.093H394.414C394.559 361.451 394.928 360.882 395.453 360.485C396.105 359.994 396.997 359.306 397.55 358.817L398.229 355L398.953 359.059C399.496 359.516 400.218 360.071 400.768 360.485C401.294 360.882 401.661 361.451 401.806 362.093H401.936C402.015 362.093 402.078 362.156 402.078 362.235V362.854H402.166C402.246 362.854 402.311 362.919 402.311 362.999V363.34H402.328V364.531C402.328 364.899 402.141 365.221 401.859 365.411L402.191 393.618H403.379V395.371C403.379 395.956 402.905 396.43 402.32 396.43H402.225Z" fill="url(#paint18_linear_2744_6028)"/>
<path d="M358.582 370.5C355.315 371.18 354.763 371.733 354.082 375C353.401 371.733 352.85 371.18 349.582 370.5C352.85 369.82 353.401 369.267 354.082 366C354.763 369.267 355.315 369.82 358.582 370.5Z" fill="#FFF4C7"/>
</g>
<defs>
<linearGradient id="paint0_linear_2744_6028" x1="215" y1="409.007" x2="215" y2="50.9935" gradientUnits="userSpaceOnUse">
<stop stop-color="#EA9F3A"/>
<stop offset="0.477221" stop-color="#FBC950"/>
<stop offset="1" stop-color="#FFF2C7"/>
</linearGradient>
<linearGradient id="paint1_linear_2744_6028" x1="215.5" y1="68.9727" x2="215.5" y2="345.766" gradientUnits="userSpaceOnUse">
<stop stop-color="#E4BB83"/>
<stop offset="1" stop-color="#E3DABD"/>
</linearGradient>
<linearGradient id="paint2_linear_2744_6028" x1="398.378" y1="142.043" x2="397.225" y2="134.181" gradientUnits="userSpaceOnUse">
<stop offset="0.384076" stop-color="#D3E7DD"/>
<stop offset="1" stop-color="#B0D2BC"/>
</linearGradient>
<linearGradient id="paint3_linear_2744_6028" x1="402.366" y1="98.6605" x2="389.628" y2="132.628" gradientUnits="userSpaceOnUse">
<stop stop-color="#F0D8AC"/>
<stop offset="1" stop-color="#E0B667"/>
</linearGradient>
<linearGradient id="paint4_linear_2744_6028" x1="390.935" y1="151.571" x2="388.675" y2="133.966" gradientUnits="userSpaceOnUse">
<stop stop-color="#F0D8AC"/>
<stop offset="1" stop-color="#E0B667"/>
</linearGradient>
<linearGradient id="paint5_linear_2744_6028" x1="398.5" y1="95.8392" x2="394.28" y2="80.6316" gradientUnits="userSpaceOnUse">
<stop offset="0.384076" stop-color="#D3E7DD"/>
<stop offset="1" stop-color="#B0D2BC"/>
</linearGradient>
<linearGradient id="paint6_linear_2744_6028" x1="401.691" y1="75.6342" x2="394.708" y2="99.8223" gradientUnits="userSpaceOnUse">
<stop stop-color="#F0D8AC"/>
<stop offset="1" stop-color="#E0B667"/>
</linearGradient>
<radialGradient id="paint7_radial_2744_6028" cx="0" cy="0" r="1" gradientUnits="userSpaceOnUse" gradientTransform="translate(397.467 74.4911) rotate(123.69) scale(2.35523 2.12036)">
<stop stop-color="#FFF2DA"/>
<stop offset="1" stop-color="#E0B667"/>
</radialGradient>
<linearGradient id="paint8_linear_2744_6028" x1="31.1735" y1="142.043" x2="32.3264" y2="134.181" gradientUnits="userSpaceOnUse">
<stop offset="0.384076" stop-color="#D3E7DD"/>
<stop offset="1" stop-color="#B0D2BC"/>
</linearGradient>
<linearGradient id="paint9_linear_2744_6028" x1="27.1855" y1="98.6605" x2="39.9233" y2="132.628" gradientUnits="userSpaceOnUse">
<stop stop-color="#F0D8AC"/>
<stop offset="1" stop-color="#E0B667"/>
</linearGradient>
<linearGradient id="paint10_linear_2744_6028" x1="38.6167" y1="151.571" x2="40.8764" y2="133.966" gradientUnits="userSpaceOnUse">
<stop stop-color="#F0D8AC"/>
<stop offset="1" stop-color="#E0B667"/>
</linearGradient>
<linearGradient id="paint11_linear_2744_6028" x1="31.0516" y1="95.8392" x2="35.2712" y2="80.6316" gradientUnits="userSpaceOnUse">
<stop offset="0.384076" stop-color="#D3E7DD"/>
<stop offset="1" stop-color="#B0D2BC"/>
</linearGradient>
<linearGradient id="paint12_linear_2744_6028" x1="27.8599" y1="75.6342" x2="34.8436" y2="99.8223" gradientUnits="userSpaceOnUse">
<stop stop-color="#F0D8AC"/>
<stop offset="1" stop-color="#E0B667"/>
</linearGradient>
<radialGradient id="paint13_radial_2744_6028" cx="0" cy="0" r="1" gradientUnits="userSpaceOnUse" gradientTransform="translate(32.0847 74.4911) rotate(56.3099) scale(2.35523 2.12036)">
<stop stop-color="#FFF2DA"/>
<stop offset="1" stop-color="#E0B667"/>
</radialGradient>
<linearGradient id="paint14_linear_2744_6028" x1="93.5901" y1="77.8815" x2="73.752" y2="55.1192" gradientUnits="userSpaceOnUse">
<stop stop-color="#F0D8AC"/>
<stop offset="1" stop-color="#E0B667"/>
</linearGradient>
<linearGradient id="paint15_linear_2744_6028" x1="335.961" y1="77.8815" x2="355.799" y2="55.1192" gradientUnits="userSpaceOnUse">
<stop stop-color="#F0D8AC"/>
<stop offset="1" stop-color="#E0B667"/>
</linearGradient>
<linearGradient id="paint16_linear_2744_6028" x1="52.6274" y1="393.993" x2="43.028" y2="440.171" gradientUnits="userSpaceOnUse">
<stop stop-color="#F0D8AC"/>
<stop offset="1" stop-color="#E0B667"/>
</linearGradient>
<radialGradient id="paint17_radial_2744_6028" cx="0" cy="0" r="1" gradientUnits="userSpaceOnUse" gradientTransform="translate(80.1365 432.11) rotate(163.78) scale(105.475 159.346)">
<stop offset="0.384076" stop-color="#D3E7DD"/>
<stop offset="1" stop-color="#B0D2BC"/>
</radialGradient>
<linearGradient id="paint18_linear_2744_6028" x1="348.779" y1="371.525" x2="378.897" y2="453.883" gradientUnits="userSpaceOnUse">
<stop offset="0.384076" stop-color="#D3E7DD"/>
<stop offset="1" stop-color="#B0D2BC"/>
</linearGradient>
<clipPath id="clip0_2744_6028">
<rect width="430" height="460" fill="white"/>
</clipPath>
</defs>
</svg>
